{
.appVersion = "3094";
.formatVersion = 3;
DisplayStrings = (
"aaa/a.ss01 eıou cdhnr
AEIOU CDHNR

̀à́lé̋őű̂â̌č̆ă̊å̃ñ
̄āō̏ȅ̑ȗ ȁ/adblgrave.ss01 ȅȉȍȑȕ
růží ťzh


/brevecomb_acutecomb/brevecomb_gravecomb/brevecomb_tildecomb/circumflexcomb_acutecomb/circumflexcomb_gravecomb/circumflexcomb_tildecomb . đềứờắĩn
/gravecomb.loclVIT/acutecomb.loclVIT/circumflexcomb.loclVIT/brevecomb.loclVIT/tildecomb.loclVIT ̛",
"ďľť

glyphs = (
{
glyphname = A.001;
lastChange = "2021-07-27 19:28:42 +0000";
layers = (
{
anchors = (
{
name = bottom;
pos = (304,0);
},
{
name = ogonek;
pos = (519,0);
},
{
name = top;
pos = (304,700);
}
);
background = {
shapes = (
{
attr = {
strokeWidth = 2;
};
closed = 0;
nodes = (
(48,0,l),
(304,700,l),
(556,0,l)
);
},
{
attr = {
strokeWidth = 2;
};
closed = 0;
nodes = (
(142,238,l),
(470,238,l)
);
}
);
};
layerId = "65988B1E-DCE2-4AC3-A6FF-994A1050067D";
shapes = (
{
closed = 1;
nodes = (
(478,207,l),
(478,283,l),
(124,283,l),
(124,207,l)
);
},
{
closed = 1;
nodes = (
(78,-10,o),
(94,1,o),
(99,16,cs),
(315,620,l),
(294,620,l),
(509,16,ls),
(514,1,o),
(530,-10,o),
(547,-10,cs),
(580,-10,o),
(594,24,o),
(585,47,cs),
(353,664,ls),
(341,695,o),
(323,710,o),
(304,710,cs),
(285,710,o),
(267,695,o),
(255,664,cs),
(23,47,ls),
(14,24,o),
(28,-10,o),
(61,-10,cs)
);
}
);
width = 608;
},
{
anchors = (
{
name = bottom;
pos = (333,0);
},
{
name = ogonek;
pos = (603,10);
},
{
name = top;
pos = (333,700);
}
);
background = {
shapes = (
{
attr = {
strokeWidth = 2;
};
closed = 0;
nodes = (
(72,0,l),
(323,700,l),
(585,0,l)
);
},
{
attr = {
strokeWidth = 2;
};
closed = 0;
nodes = (
(161,238,l),
(489,238,l)
);
},
{
closed = 1;
nodes = (
(97,-5,o),
(113,6,o),
(118,21,cs),
(334,620,l),
(313,620,l),
(528,21,ls),
(533,6,o),
(549,-5,o),
(566,-5,cs),
(588,-5,o),
(607,14,o),
(607,36,cs),
(607,42,o),
(606,47,o),
(604,52,cs),
(372,664,ls),
(360,695,o),
(342,710,o),
(323,710,cs),
(304,710,o),
(286,695,o),
(274,664,cs),
(42,52,ls),
(40,47,o),
(39,42,o),
(39,36,cs),
(39,14,o),
(58,-5,o),
(80,-5,cs)
);
},
{
closed = 1;
nodes = (
(497,202,l),
(497,276,l),
(143,276,l),
(143,202,l)
);
},
{
closed = 1;
nodes = (
(140,-10,o),
(172,12,o),
(183,43,cs),
(215,138,l),
(450,138,l),
(482,43,ls),
(492,12,o),
(525,-10,o),
(562,-10,cs),
(634,-10,o),
(659,67,o),
(641,108,cs),
(405,657,ls),
(391,690,o),
(360,710,o),
(327,710,cs),
(293,710,o),
(263,690,o),
(249,657,cs),
(25,106,ls),
(7,61,o),
(36,-10,o),
(104,-10,cs)
);
},
{
closed = 1;
nodes = (
(333,485,l),
(400,286,l),
(265,285,l)
);
}
);
};
layerId = "6242D68C-0A25-4F05-8F2A-2075F7C4A210";
shapes = (
{
closed = 1;
nodes = (
(161,293,l),
(161,143,l),
(489,143,l),
(489,293,l)
);
},
{
closed = 1;
nodes = (
(132,-8,o),
(164,10,o),
(174,40,cs),
(350,550,l),
(313,550,l),
(491,40,ls),
(502,10,o),
(533,-8,o),
(566,-8,cs),
(626,-5,o),
(659,52,o),
(639,100,cs),
(411,657,ls),
(395,695,o),
(368,709,o),
(333,709,cs),
(301,709,o),
(271,699,o),
(254,657,cs),
(25,100,ls),
(7,57,o),
(35,-5,o),
(99,-8,cs)
);
}
);
width = 665;
},
{
associatedMasterId = "65988B1E-DCE2-4AC3-A6FF-994A1050067D";
background = {
shapes = (
{
attr = {
strokeWidth = 2;
};
closed = 0;
nodes = (
(53,0,l),
(304,700,l),
(566,0,l)
);
},
{
attr = {
strokeWidth = 2;
};
closed = 0;
nodes = (
(142,238,l),
(470,238,l)
);
},
{
closed = 1;
nodes = (
(78,-5,o),
(94,6,o),
(99,21,cs),
(315,620,l),
(294,620,l),
(509,21,ls),
(514,6,o),
(530,-5,o),
(547,-5,cs),
(569,-5,o),
(588,14,o),
(588,36,cs),
(588,42,o),
(587,47,o),
(585,52,cs),
(353,664,ls),
(341,695,o),
(323,710,o),
(304,710,cs),
(285,710,o),
(267,695,o),
(255,664,cs),
(23,52,ls),
(21,47,o),
(20,42,o),
(20,36,cs),
(20,14,o),
(39,-5,o),
(61,-5,cs)
);
},
{
closed = 1;
nodes = (
(478,202,l),
(478,276,l),
(124,276,l),
(124,202,l)
);
}
);
};
layerId = "108E55AC-D5A3-4E4A-9ABE-828C3EE6594E";
name = "Original Skeleton";
shapes = (
{
attr = {
strokeWidth = 2;
};
closed = 0;
nodes = (
(41,0,l),
(302,700,l),
(574,0,l)
);
},
{
attr = {
strokeWidth = 2;
};
closed = 0;
nodes = (
(126,222,l),
(483,222,l)
);
}
);
width = 608;
},
{
anchors = (
{
name = bottom;
pos = (273,0);
},
{
name = ogonek;
pos = (498,0);
},
{
name = top;
pos = (273,700);
}
);
background = {
shapes = (
{
attr = {
strokeWidth = 2;
};
closed = 0;
nodes = (
(36,0,l),
(280,698,l)
);
},
{
attr = {
strokeWidth = 2;
};
closed = 0;
nodes = (
(110,251,l),
(438,251,l)
);
},
{
attr = {
strokeWidth = 2;
};
closed = 0;
nodes = (
(516,0,l),
(272,698,l)
);
},
{
closed = 1;
nodes = (
(123,281,l),
(123,223,l),
(425,223,l),
(425,281,l)
);
},
{
closed = 1;
nodes = (
(54,-10,o),
(64,-2,o),
(68,9,cs),
(289,639,l),
(262,639,l),
(483,9,ls),
(487,-2,o),
(497,-10,o),
(510,-10,cs),
(532,-10,o),
(544,10,o),
(537,29,cs),
(309,681,ls),
(302,701,o),
(289,710,o),
(276,710,cs),
(263,710,o),
(250,701,o),
(243,681,cs),
(15,29,ls),
(8,10,o),
(20,-10,o),
(42,-10,cs)
);
}
);
};
layerId = "3D52442A-254C-4C79-B742-A98FD72DF947";
shapes = (
{
closed = 1;
nodes = (
(125,281,l),
(125,236,l),
(424,236,l),
(424,281,l)
);
},
{
closed = 1;
nodes = (
(53,-10,o),
(62,-4,o),
(65,5,cs),
(278,640,l),
(268,640,l),
(481,5,ls),
(484,-4,o),
(493,-10,o),
(503,-10,cs),
(521,-10,o),
(530,7,o),
(525,21,cs),
(295,695,ls),
(292,703,o),
(283,710,o),
(273,710,cs),
(263,710,o),
(254,703,o),
(251,695,cs),
(21,21,ls),
(16,7,o),
(25,-10,o),
(43,-10,cs)
);
}
);
width = 546;
},
{
anchors = (
{
name = bottom;
pos = (304,0);
},
{
name = ogonek;
pos = (519,0);
},
{
name = top;
pos = (304,700);
}
);
associatedMasterId = "65988B1E-DCE2-4AC3-A6FF-994A1050067D";
background = {
shapes = (
{
attr = {
strokeWidth = 2;
};
closed = 0;
nodes = (
(48,0,l),
(304,700,l),
(556,0,l)
);
},
{
attr = {
strokeWidth = 2;
};
closed = 0;
nodes = (
(142,238,l),
(470,238,l)
);
}
);
};
layerId = "66031ED0-0312-484C-961A-FF787F6FA0DA";
name = "Jul 26, 21, 15:08";
shapes = (
{
closed = 1;
nodes = (
(478,207,l),
(478,283,l),
(124,283,l),
(124,207,l)
);
},
{
closed = 1;
nodes = (
(78,-10,o),
(94,1,o),
(99,16,cs),
(315,620,l),
(294,620,l),
(509,16,ls),
(514,1,o),
(530,-10,o),
(547,-10,cs),
(580,-10,o),
(594,24,o),
(585,47,cs),
(353,664,ls),
(341,695,o),
(323,710,o),
(304,710,cs),
(285,710,o),
(267,695,o),
(255,664,cs),
(23,47,ls),
(14,24,o),
(28,-10,o),
(61,-10,cs)
);
}
);
width = 608;
}
);
},
{
glyphname = A.ss02;
lastChange = "2021-07-27 15:57:53 +0000";
layers = (
{
layerId = "65988B1E-DCE2-4AC3-A6FF-994A1050067D";
shapes = (
{
closed = 1;
nodes = (
(88,-15,o),
(103,-4,o),
(109,11,cs),
(335,620,l),
(314,620,l),
(539,11,ls),
(544,-4,o),
(560,-15,o),
(577,-15,cs),
(599,-15,o),
(618,4,o),
(618,26,cs),
(618,32,o),
(617,37,o),
(615,42,cs),
(373,664,ls),
(361,695,o),
(343,710,o),
(324,710,cs),
(305,710,o),
(287,695,o),
(275,664,cs),
(33,42,ls),
(31,37,o),
(30,32,o),
(30,26,cs),
(30,4,o),
(49,-15,o),
(71,-15,cs)
);
},
{
closed = 1;
nodes = (
(498,193,l),
(498,267,l),
(144,267,l),
(144,193,l)
);
}
);
width = 648;
},
{
layerId = "6242D68C-0A25-4F05-8F2A-2075F7C4A210";
width = 600;
},
{
layerId = "3D52442A-254C-4C79-B742-A98FD72DF947";
width = 600;
}
);
},
{
glyphname = AE;
lastChange = "2021-07-27 15:57:53 +0000";
layers = (
{
anchors = (
{
name = bottom;
pos = (424,0);
},
{
name = top;
pos = (424,700);
}
);
background = {
shapes = (
{
closed = 1;
nodes = (
(58,-5,o),
(74,6,o),
(79,21,cs),
(295,620,l),
(274,620,l),
(489,21,ls),
(494,6,o),
(510,-5,o),
(527,-5,cs),
(549,-5,o),
(568,14,o),
(568,36,cs),
(568,44,o),
(567,46,o),
(565,52,cs),
(333,664,ls),
(321,695,o),
(303,710,o),
(284,710,cs),
(265,710,o),
(247,695,o),
(235,664,cs),
(3,52,ls),
(1,47,o),
(0,42,o),
(0,36,cs),
(0,14,o),
(19,-5,o),
(41,-5,cs)
);
},
{
closed = 1;
nodes = (
(458,249,l),
(458,323,l),
(104,323,l),
(104,249,l)
);
},
{
closed = 1;
nodes = (
(426,700,l),
(426,624,l),
(743,624,ls),
(764,624,o),
(781,641,o),
(781,662,cs),
(781,683,o),
(764,700,o),
(743,700,cs)
);
},
{
closed = 1;
nodes = (
(426,402,l),
(426,326,l),
(722,326,ls),
(743,326,o),
(760,343,o),
(760,364,cs),
(760,385,o),
(743,402,o),
(722,402,cs)
);
},
{
closed = 1;
nodes = (
(426,76,l),
(426,0,l),
(770,0,ls),
(791,0,o),
(808,17,o),
(808,38,cs),
(808,59,o),
(791,76,o),
(770,76,cs)
);
},
{
closed = 1;
nodes = (
(466,700,l),
(425,700,l),
(402,700,o),
(384,682,o),
(384,659,cs),
(384,41,ls),
(384,18,o),
(402,0,o),
(425,0,c),
(466,0,l)
);
},
{
closed = 1;
nodes = (
(1321,695,o),
(1303,710,o),
(1284,710,cs),
(1265,710,o),
(1247,695,o),
(1235,664,cs),
(1003,52,ls),
(1001,47,o),
(1000,42,o),
(1000,36,cs),
(1000,14,o),
(1019,-5,o),
(1041,-5,cs),
(1058,-5,o),
(1074,6,o),
(1079,21,cs),
(1295,620,l),
(1333,664,l)
);
},
{
closed = 1;
nodes = (
(1458,249,l),
(1458,323,l),
(1104,323,l),
(1104,249,l)
);
},
{
closed = 1;
nodes = (
(1426,700,l),
(1426,624,l),
(1743,624,ls),
(1764,624,o),
(1781,641,o),
(1781,662,cs),
(1781,683,o),
(1764,700,o),
(1743,700,cs)
);
},
{
closed = 1;
nodes = (
(1426,402,l),
(1426,326,l),
(1722,326,ls),
(1743,326,o),
(1760,343,o),
(1760,364,cs),
(1760,385,o),
(1743,402,o),
(1722,402,cs)
);
},
{
closed = 1;
nodes = (
(1426,76,l),
(1426,0,l),
(1770,0,ls),
(1791,0,o),
(1808,17,o),
(1808,38,cs),
(1808,59,o),
(1791,76,o),
(1770,76,cs)
);
},
{
closed = 1;
nodes = (
(1466,700,l),
(1425,700,l),
(1402,700,o),
(1384,682,o),
(1384,659,cs),
(1384,41,ls),
(1384,18,o),
(1402,0,o),
(1425,0,c),
(1466,0,l)
);
}
);
};
layerId = "65988B1E-DCE2-4AC3-A6FF-994A1050067D";
shapes = (
{
closed = 1;
nodes = (
(341,700,ls),
(322,700,o),
(306,686,o),
(292,654,cs),
(23,52,ls),
(21,47,o),
(20,42,o),
(20,36,cs),
(20,14,o),
(39,-5,o),
(61,-5,cs),
(78,-5,o),
(93,6,o),
(99,21,cs),
(358,616,ls),
(361,622,o),
(364,624,o),
(369,624,cs),
(723,624,ls),
(744,624,o),
(761,641,o),
(761,662,cs),
(761,683,o),
(744,700,o),
(723,700,cs)
);
},
{
closed = 1;
nodes = (
(458,209,l),
(458,283,l),
(164,283,l),
(164,209,l)
);
},
{
closed = 1;
nodes = (
(426,402,l),
(426,326,l),
(702,326,ls),
(723,326,o),
(740,343,o),
(740,364,cs),
(740,385,o),
(723,402,o),
(702,402,cs)
);
},
{
closed = 1;
nodes = (
(466,76,l),
(466,638,l),
(384,638,l),
(384,41,ls),
(384,18,o),
(402,0,o),
(425,0,cs),
(750,0,ls),
(771,0,o),
(788,17,o),
(788,38,cs),
(788,59,o),
(771,76,o),
(750,76,cs)
);
}
);
width = 848;
},
{
anchors = (
{
name = bottom;
pos = (300,0);
},
{
name = top;
pos = (300,700);
}
);
layerId = "6242D68C-0A25-4F05-8F2A-2075F7C4A210";
width = 600;
},
{
anchors = (
{
name = bottom;
pos = (300,0);
},
{
name = top;
pos = (300,700);
}
);
layerId = "3D52442A-254C-4C79-B742-A98FD72DF947";
width = 600;
}
);
metricLeft = "=A";
metricRight = "=E";
unicode = 198;
},
{
glyphname = B.001;
lastChange = "2021-07-27 19:28:42 +0000";
layers = (
{
anchors = (
{
name = bottom;
pos = (292,0);
},
{
name = center;
pos = (292,350);
},
{
name = top;
pos = (292,700);
}
);
background = {
shapes = (
{
attr = {
strokeWidth = 2;
};
closed = 0;
nodes = (
(122,665,l),
(122,42,l)
);
},
{
attr = {
strokeWidth = 2;
};
closed = 0;
nodes = (
(124,382,l),
(316,382,l)
);
},
{
attr = {
strokeWidth = 2;
};
closed = 0;
nodes = (
(112,42,l),
(351,42,ls),
(443,42,o),
(510,109,o),
(510,202,cs),
(510,315,o),
(440,381,o),
(319,382,c)
);
},
{
attr = {
strokeWidth = 2;
};
closed = 0;
nodes = (
(323,382,l),
(422,389,o),
(480,441,o),
(480,525,cs),
(480,612,o),
(427,663,o),
(332,663,cs),
(112,663,l)
);
}
);
};
layerId = "65988B1E-DCE2-4AC3-A6FF-994A1050067D";
shapes = (
{
closed = 1;
nodes = (
(358,0,ls),
(457,0,o),
(549,82,o),
(549,204,cs),
(549,295,o),
(498,368,o),
(415,393,c),
(414,370,l),
(483,405,o),
(519,461,o),
(519,529,cs),
(519,629,o),
(445,700,o),
(331,700,cs),
(121,700,ls),
(98,700,o),
(80,682,o),
(80,659,cs),
(80,41,ls),
(80,18,o),
(98,0,o),
(121,0,cs)
);
},
{
closed = 1;
nodes = (
(162,342,l),
(338,342,ls),
(415,342,o),
(467,289,o),
(467,212,cs),
(467,132,o),
(411,77,o),
(334,77,cs),
(162,77,l)
);
},
{
closed = 1;
nodes = (
(162,624,l),
(334,624,ls),
(397,624,o),
(438,583,o),
(438,519,cs),
(438,456,o),
(401,418,o),
(331,418,cs),
(162,418,l)
);
}
);
width = 584;
},
{
anchors = (
{
name = bottom;
pos = (344,0);
},
{
name = center;
pos = (344,350);
},
{
name = top;
pos = (344,700);
}
);
background = {
shapes = (
{
closed = 1;
nodes = (
(444,0,ls),
(571,0,o),
(682,90,o),
(682,216,cs),
(682,275,o),
(651,326,o),
(600,363,c),
(626,396,o),
(640,437,o),
(640,483,cs),
(640,623,o),
(540,700,o),
(403,700,cs),
(155,700,ls),
(108,700,o),
(70,661,o),
(70,615,cs),
(70,84,ls),
(70,38,o),
(108,0,o),
(155,0,cs)
);
},
{
closed = 1;
nodes = (
(240,529,l),
(402,529,ls),
(444,529,o),
(470,512,o),
(470,483,cs),
(470,449,o),
(446,428,o),
(406,428,cs),
(240,427,l)
);
},
{
closed = 1;
nodes = (
(240,278,l),
(448,278,ls),
(488,278,o),
(512,258,o),
(512,224,cs),
(512,190,o),
(488,170,o),
(449,170,cs),
(240,170,l)
);
},
{
attr = {
strokeWidth = 2;
};
closed = 0;
nodes = (
(155,696,l),
(155,0,l)
);
},
{
attr = {
strokeWidth = 2;
};
closed = 0;
nodes = (
(158,376,l),
(435,376,l)
);
},
{
attr = {
strokeWidth = 2;
};
closed = 0;
nodes = (
(155,0,l),
(428,0,ls),
(532,0,o),
(616,85,o),
(616,188,cs),
(616,291,o),
(534,374,o),
(432,376,c),
(516,378,o),
(584,447,o),
(584,532,cs),
(584,618,o),
(514,688,o),
(428,688,cs),
(155,688,l)
);
}
);
};
layerId = "6242D68C-0A25-4F05-8F2A-2075F7C4A210";
shapes = (
{
closed = 1;
nodes = (
(424,0,ls),
(562,0,o),
(652,85,o),
(652,216,cs),
(652,290,o),
(603,352,o),
(527,389,c),
(538,331,l),
(585,368,o),
(610,421,o),
(610,483,cs),
(610,614,o),
(520,700,o),
(383,700,cs),
(165,700,ls),
(118,700,o),
(80,661,o),
(80,615,cs),
(80,84,ls),
(80,38,o),
(118,0,o),
(165,0,cs)
);
},
{
closed = 1;
nodes = (
(240,550,l),
(382,550,ls),
(426,550,o),
(450,529,o),
(450,490,cs),
(450,450,o),
(428,428,o),
(386,428,cs),
(240,427,l)
);
},
{
closed = 1;
nodes = (
(240,278,l),
(428,278,ls),
(468,278,o),
(492,258,o),
(492,216,cs),
(492,177,o),
(468,150,o),
(429,150,cs),
(240,150,l)
);
}
);
width = 687;
},
{
associatedMasterId = "65988B1E-DCE2-4AC3-A6FF-994A1050067D";
background = {
shapes = (
{
attr = {
strokeWidth = 2;
};
closed = 0;
nodes = (
(121,696,l),
(121,0,l)
);
},
{
attr = {
strokeWidth = 2;
};
closed = 0;
nodes = (
(124,376,l),
(401,376,l)
);
},
{
attr = {
strokeWidth = 2;
};
closed = 0;
nodes = (
(121,0,l),
(394,0,ls),
(498,0,o),
(582,85,o),
(582,188,cs),
(582,291,o),
(500,374,o),
(398,376,c),
(482,378,o),
(550,447,o),
(550,532,cs),
(550,618,o),
(480,688,o),
(394,688,cs),
(121,688,l)
);
},
{
closed = 1;
nodes = (
(144,-10,o),
(162,8,o),
(162,31,cs),
(162,332,l),
(514,332,l),
(514,31,ls),
(514,8,o),
(532,-10,o),
(555,-10,cs),
(578,-10,o),
(596,8,o),
(596,31,cs),
(596,669,ls),
(596,692,o),
(578,710,o),
(555,710,cs),
(532,710,o),
(514,692,o),
(514,669,cs),
(514,408,l),
(162,408,l),
(162,669,ls),
(162,692,o),
(144,710,o),
(121,710,cs),
(98,710,o),
(80,692,o),
(80,669,cs),
(80,31,ls),
(80,8,o),
(98,-10,o),
(121,-10,cs)
);
}
);
};
layerId = "0051793E-74D6-4E6E-96B3-3FC0F2D83CCC";
name = "Original Skeleton";
shapes = (
{
attr = {
strokeWidth = 2;
};
closed = 0;
nodes = (
(101,696,l),
(101,0,l)
);
},
{
attr = {
strokeWidth = 2;
};
closed = 0;
nodes = (
(104,376,l),
(381,376,l)
);
},
{
attr = {
strokeWidth = 2;
};
closed = 0;
nodes = (
(101,0,l),
(374,0,ls),
(478,0,o),
(562,85,o),
(562,188,cs),
(562,291,o),
(480,374,o),
(378,376,c),
(462,378,o),
(530,447,o),
(530,532,cs),
(530,618,o),
(460,688,o),
(374,688,cs),
(101,688,l)
);
}
);
width = 583;
},
{
anchors = (
{
name = bottom;
pos = (272,0);
},
{
name = center;
pos = (285,350);
},
{
name = top;
pos = (264,700);
}
);
background = {
shapes = (
{
attr = {
strokeWidth = 2;
};
closed = 0;
nodes = (
(106,679,l),
(106,23,l)
);
},
{
attr = {
strokeWidth = 2;
};
closed = 0;
nodes = (
(108,382,l),
(309,382,l)
);
},
{
attr = {
strokeWidth = 2;
};
closed = 0;
nodes = (
(95,23,l),
(347,23,ls),
(445,23,o),
(515,94,o),
(515,193,cs),
(515,312,o),
(441,381,o),
(312,382,c)
);
},
{
attr = {
strokeWidth = 2;
};
closed = 0;
nodes = (
(317,382,l),
(421,389,o),
(482,443,o),
(482,532,cs),
(482,623,o),
(426,677,o),
(327,677,cs),
(95,677,l)
);
}
);
};
layerId = "3D52442A-254C-4C79-B742-A98FD72DF947";
shapes = (
{
closed = 1;
nodes = (
(344,0,ls),
(458,0,o),
(535,77,o),
(535,193,cs),
(535,282,o),
(487,350,o),
(403,379,c),
(403,368,l),
(465,396,o),
(502,448,o),
(502,526,cs),
(502,627,o),
(427,700,o),
(324,700,cs),
(103,700,ls),
(90,700,o),
(80,690,o),
(80,677,cs),
(80,23,ls),
(80,10,o),
(90,0,o),
(103,0,cs)
);
},
{
closed = 1;
nodes = (
(126,349,l),
(310,349,ls),
(430,349,o),
(489,286,o),
(489,193,cs),
(489,103,o),
(432,45,o),
(344,45,cs),
(126,45,l)
);
},
{
closed = 1;
nodes = (
(126,655,l),
(324,655,ls),
(406,655,o),
(456,600,o),
(456,526,cs),
(456,448,o),
(411,394,o),
(328,394,cs),
(126,394,l)
);
}
);
width = 570;
}
);
},
{
glyphname = B.ss02;
lastChange = "2021-07-27 15:57:53 +0000";
layers = (
{
background = {
shapes = (
{
closed = 0;
nodes = (
(162,0,l),
(162,698,l)
);
},
{
closed = 1;
nodes = (
(364,624,ls),
(427,624,o),
(468,584,o),
(468,522,cs),
(468,459,o),
(423,418,o),
(354,418,cs),
(133,418,l),
(133,342,l),
(368,342,ls),
(445,342,o),
(497,288,o),
(497,209,cs),
(497,128,o),
(446,76,o),
(364,76,cs),
(131,76,l),
(131,0,l),
(383,0,ls),
(499,0,o),
(578,95,o),
(578,209,cs),
(578,282,o),
(536,354,o),
(468,384,c),
(515,415,o),
(549,466,o),
(549,522,cs),
(549,622,o),
(470,700,o),
(369,700,cs),
(131,700,l),
(131,624,l)
);
},
{
closed = 1;
nodes = (
(121,700,ls),
(98,701,o),
(80,682,o),
(80,659,cs),
(80,41,ls),
(80,18,o),
(98,0,o),
(121,0,cs),
(162,0,l),
(162,698,l)
);
}
);
};
layerId = "65988B1E-DCE2-4AC3-A6FF-994A1050067D";
shapes = (
{
closed = 1;
nodes = (
(80,18,o),
(98,0,o),
(121,0,cs),
(383,0,ls),
(499,0,o),
(578,95,o),
(578,209,cs),
(578,282,o),
(536,354,o),
(468,384,c),
(515,415,o),
(549,466,o),
(549,522,cs),
(549,622,o),
(470,700,o),
(369,700,cs),
(131,700,l),
(121,700,ls),
(98,701,o),
(80,682,o),
(80,659,cs),
(80,41,ls)
);
},
{
closed = 1;
nodes = (
(162,342,l),
(368,342,ls),
(445,342,o),
(497,288,o),
(497,209,cs),
(497,128,o),
(446,76,o),
(364,76,cs),
(162,76,l)
);
},
{
closed = 1;
nodes = (
(162,624,l),
(364,624,ls),
(427,624,o),
(468,584,o),
(468,522,cs),
(468,459,o),
(423,418,o),
(354,418,cs),
(162,418,l)
);
}
);
width = 608;
},
{
layerId = "6242D68C-0A25-4F05-8F2A-2075F7C4A210";
width = 600;
},
{
layerId = "3D52442A-254C-4C79-B742-A98FD72DF947";
width = 600;
}
);
},
{
glyphname = C.001;
lastChange = "2021-07-27 19:28:42 +0000";
layers = (
{
anchors = (
{
name = bottom;
pos = (333,0);
},
{
name = top;
pos = (331,700);
}
);
background = {
shapes = (
{
attr = {
strokeWidth = 2;
};
closed = 0;
nodes = (
(528,513,l),
(528,513,o),
(506,680,o),
(338,680,cs),
(206,680,o),
(100,547,o),
(100,368,cs),
(100,153,o),
(198,28,o),
(340,28,cs),
(524,28,o),
(537,233,o),
(537,233,c)
);
}
);
};
layerId = "65988B1E-DCE2-4AC3-A6FF-994A1050067D";
shapes = (
{
closed = 1;
nodes = (
(448,-15,o),
(539,63,o),
(566,180,cs),
(573,213,o),
(557,237,o),
(532,237,cs),
(512,237,o),
(498,229,o),
(492,201,cs),
(473,115,o),
(418,60,o),
(340,60,cs),
(221,60,o),
(142,176,o),
(142,350,cs),
(142,523,o),
(222,640,o),
(336,640,cs),
(412,640,o),
(458,591,o),
(470,543,cs),
(476,521,o),
(490,510,o),
(510,510,cs),
(535,510,o),
(551,528,o),
(551,549,cs),
(551,633,o),
(430,715,o),
(331,715,cs),
(168,715,o),
(60,574,o),
(60,348,cs),
(60,131,o),
(167,-15,o),
(333,-15,cs)
);
}
);
width = 613;
},
{
anchors = (
{
name = bottom;
pos = (373,0);
},
{
name = top;
pos = (370,700);
}
);
background = {
shapes = (
{
attr = {
lineCapEnd = "2";
lineCapStart = "2";
strokeWidth = 2;
};
closed = 0;
nodes = (
(562,243,l),
(562,117,o),
(459,62,o),
(373,62,cs),
(220,62,o),
(145,191,o),
(145,347,cs),
(145,503,o),
(206,634,o),
(370,634,cs),
(479,634,o),
(543,565,o),
(543,491,c)
);
},
{
closed = 1;
nodes = (
(562,-14,o),
(701,136,o),
(701,351,cs),
(701,566,o),
(567,715,o),
(375,715,cs),
(183,715,o),
(39,566,o),
(39,351,cs),
(39,136,o),
(178,-14,o),
(370,-14,cs)
);
},
{
closed = 1;
nodes = (
(264,126,o),
(202,220,o),
(202,351,cs),
(202,482,o),
(264,575,o),
(370,575,cs),
(476,575,o),
(538,482,o),
(538,351,cs),
(538,220,o),
(476,126,o),
(370,126,cs)
);
}
);
};
layerId = "6242D68C-0A25-4F05-8F2A-2075F7C4A210";
shapes = (
{
closed = 1;
nodes = (
(514,-15,o),
(626,102,o),
(626,178,cs),
(626,219,o),
(593,252,o),
(552,252,cs),
(519,252,o),
(491,230,o),
(481,200,cs),
(467,153,o),
(426,125,o),
(373,125,cs),
(276,125,o),
(220,207,o),
(220,347,cs),
(220,486,o),
(254,575,o),
(370,575,cs),
(425,575,o),
(451,547,o),
(462,523,cs),
(474,498,o),
(499,481,o),
(529,481,cs),
(569,481,o),
(602,513,o),
(602,554,cs),
(602,647,o),
(505,715,o),
(370,715,cs),
(188,715,o),
(60,560,o),
(60,347,cs),
(60,137,o),
(191,-15,o),
(373,-15,cs)
);
}
);
width = 671;
},
{
anchors = (
{
name = bottom;
pos = (341,0);
},
{
name = top;
pos = (331,700);
}
);
associatedMasterId = "65988B1E-DCE2-4AC3-A6FF-994A1050067D";
background = {
shapes = (
{
closed = 1;
nodes = (
(554,179,o),
(478,58,o),
(346,58,cs),
(215,58,o),
(139,179,o),
(139,350,cs),
(139,521,o),
(215,643,o),
(346,643,cs),
(478,643,o),
(554,521,o),
(554,350,cs)
);
},
{
closed = 1;
nodes = (
(631,571,o),
(528,715,o),
(346,715,cs),
(175,715,o),
(57,571,o),
(57,350,cs),
(57,130,o),
(165,-14,o),
(346,-14,cs),
(528,-14,o),
(631,130,o),
(631,350,cs)
);
},
{
closed = 1;
nodes = (
(573,216,o),
(554,237,o),
(529,237,cs),
(509,237,o),
(495,222,o),
(491,203,cs),
(473,121,o),
(409,62,o),
(340,62,cs),
(214,62,o),
(141,168,o),
(141,350,cs),
(141,534,o),
(214,640,o),
(338,640,cs),
(407,640,o),
(462,593,o),
(476,541,cs),
(480,523,o),
(496,510,o),
(515,510,cs),
(537,510,o),
(556,529,o),
(556,551,cs),
(556,555,o),
(555,559,o),
(554,563,cs),
(528,648,o),
(437,715,o),
(338,715,cs),
(162,715,o),
(59,581,o),
(59,350,cs),
(59,120,o),
(162,-13,o),
(332,-13,cs),
(445,-13,o),
(540,75,o),
(565,180,c)
);
},
{
closed = 1;
nodes = (
(573,216,o),
(554,237,o),
(529,237,cs),
(509,237,o),
(495,222,o),
(491,203,cs),
(473,121,o),
(409,62,o),
(340,62,cs),
(214,62,o),
(141,168,o),
(141,350,cs),
(141,534,o),
(214,640,o),
(338,640,cs),
(407,640,o),
(462,593,o),
(476,541,cs),
(480,523,o),
(496,510,o),
(515,510,cs),
(537,510,o),
(556,529,o),
(556,551,cs),
(556,555,o),
(555,559,o),
(554,563,cs),
(528,648,o),
(437,715,o),
(338,715,cs),
(162,715,o),
(59,581,o),
(59,350,cs),
(59,120,o),
(162,-13,o),
(332,-13,cs),
(445,-13,o),
(540,75,o),
(565,180,c)
);
},
{
closed = 1;
nodes = (
(573,216,o),
(554,237,o),
(529,237,cs),
(509,237,o),
(495,222,o),
(491,203,cs),
(473,121,o),
(409,62,o),
(340,62,cs),
(214,62,o),
(141,168,o),
(141,350,cs),
(141,534,o),
(214,640,o),
(338,640,cs),
(407,640,o),
(462,593,o),
(476,541,cs),
(480,523,o),
(496,510,o),
(515,510,cs),
(537,510,o),
(556,529,o),
(556,551,cs),
(556,555,o),
(555,559,o),
(554,563,cs),
(528,648,o),
(437,715,o),
(338,715,cs),
(162,715,o),
(59,581,o),
(59,350,cs),
(59,120,o),
(162,-13,o),
(332,-13,cs),
(445,-13,o),
(540,75,o),
(565,180,c)
);
}
);
};
layerId = "E50927C1-70C4-4F90-A1B6-5BCAC655974E";
name = "Original Skeleton";
shapes = (
{
attr = {
strokeWidth = 2;
};
closed = 0;
nodes = (
(535,218,l),
(512,61,o),
(411,-7,o),
(315,-7,cs),
(144,-7,o),
(61,153,o),
(61,346,cs),
(61,539,o),
(129,701,o),
(312,701,cs),
(420,701,o),
(514,616,o),
(514,525,c)
);
}
);
width = 622;
},
{
anchors = (
{
name = bottom;
pos = (327,0);
},
{
name = top;
pos = (328,700);
}
);
background = {
shapes = (
{
attr = {
strokeWidth = 2;
};
closed = 0;
nodes = (
(514,516,l),
(514,516,o),
(483,691,o),
(320,691,cs),
(195,691,o),
(83,552,o),
(83,364,cs),
(83,138,o),
(185,8,o),
(328,8,cs),
(519,8,o),
(532,222,o),
(532,222,c)
);
}
);
};
layerId = "3D52442A-254C-4C79-B742-A98FD72DF947";
shapes = (
{
closed = 1;
nodes = (
(447,-15,o),
(529,63,o),
(552,198,cs),
(554,211,o),
(544,224,o),
(529,224,cs),
(518,224,o),
(508,216,o),
(507,205,cs),
(489,94,o),
(423,29,o),
(328,29,cs),
(199,29,o),
(106,162,o),
(106,344,cs),
(106,533,o),
(199,672,o),
(328,672,cs),
(402,672,o),
(461,619,o),
(487,530,cs),
(490,520,o),
(498,513,o),
(509,513,cs),
(524,513,o),
(535,528,o),
(531,543,cs),
(498,651,o),
(423,716,o),
(328,716,cs),
(173,716,o),
(60,557,o),
(60,340,cs),
(60,134,o),
(173,-15,o),
(328,-15,cs)
);
}
);
width = 597;
}
);
},
{
glyphname = C.ss02;
lastChange = "2021-07-27 15:57:53 +0000";
layers = (
{
layerId = "65988B1E-DCE2-4AC3-A6FF-994A1050067D";
shapes = (
{
closed = 1;
nodes = (
(575,622,o),
(483,716,o),
(346,716,cs),
(173,716,o),
(60,557,o),
(60,350,cs),
(60,138,o),
(176,-14,o),
(346,-14,cs),
(475,-14,o),
(586,80,o),
(599,224,cs),
(601,247,o),
(584,270,o),
(559,270,cs),
(539,270,o),
(524,255,o),
(521,236,cs),
(505,132,o),
(446,63,o),
(356,63,cs),
(234,63,o),
(143,170,o),
(143,350,cs),
(143,518,o),
(228,640,o),
(346,640,cs),
(428,640,o),
(490,581,o),
(504,512,cs),
(508,490,o),
(522,472,o),
(544,472,cs),
(566,472,o),
(587,490,o),
(584,519,cs)
);
}
);
width = 654;
},
{
layerId = "6242D68C-0A25-4F05-8F2A-2075F7C4A210";
width = 600;
},
{
layerId = "3D52442A-254C-4C79-B742-A98FD72DF947";
width = 600;
}
);
},
{
glyphname = D;
lastChange = "2021-07-27 15:57:53 +0000";
layers = (
{
anchors = (
{
name = bottom;
pos = (304,0);
},
{
name = center;
pos = (324,350);
},
{
name = top;
pos = (304,700);
}
);
background = {
shapes = (
{
closed = 1;
nodes = (
(162,664,ls),
(162,687,o),
(144,705,o),
(121,705,cs),
(98,705,o),
(80,687,o),
(80,664,cs),
(80,36,ls),
(80,13,o),
(98,-5,o),
(121,-5,cs),
(144,-5,o),
(162,13,o),
(162,36,cs)
);
},
{
closed = 1;
nodes = (
(586,664,ls),
(586,687,o),
(568,705,o),
(545,705,cs),
(522,705,o),
(504,687,o),
(504,664,cs),
(504,36,ls),
(504,13,o),
(522,-5,o),
(545,-5,cs),
(568,-5,o),
(586,13,o),
(586,36,cs)
);
},
{
closed = 1;
nodes = (
(121,408,l),
(121,332,l),
(545,332,l),
(545,408,l)
);
}
);
};
layerId = "65988B1E-DCE2-4AC3-A6FF-994A1050067D";
shapes = (
{
closed = 1;
nodes = (
(296,0,ls),
(482,0,o),
(587,124,o),
(587,354,cs),
(587,540,o),
(497,700,o),
(313,700,cs),
(157,700,l),
(157,624,l),
(313,624,ls),
(444,624,o),
(505,507,o),
(505,354,cs),
(505,166,o),
(438,76,o),
(293,76,cs),
(157,76,l),
(157,0,l)
);
},
{
closed = 1;
nodes = (
(162,700,l),
(121,700,ls),
(98,700,o),
(80,682,o),
(80,659,cs),
(80,41,ls),
(80,18,o),
(98,0,o),
(121,0,cs),
(162,0,l)
);
}
);
width = 647;
},
{
anchors = (
{
name = bottom;
pos = (300,0);
},
{
name = center;
pos = (300,350);
},
{
name = top;
pos = (300,700);
}
);
layerId = "6242D68C-0A25-4F05-8F2A-2075F7C4A210";
width = 600;
},
{
anchors = (
{
name = bottom;
pos = (284,0);
},
{
name = center;
pos = (284,350);
},
{
name = top;
pos = (284,700);
}
);
associatedMasterId = "65988B1E-DCE2-4AC3-A6FF-994A1050067D";
background = {
shapes = (
{
closed = 1;
nodes = (
(162,664,ls),
(162,687,o),
(144,705,o),
(121,705,cs),
(98,705,o),
(80,687,o),
(80,664,cs),
(80,36,ls),
(80,13,o),
(98,-5,o),
(121,-5,cs),
(144,-5,o),
(162,13,o),
(162,36,cs)
);
},
{
closed = 1;
nodes = (
(586,664,ls),
(586,687,o),
(568,705,o),
(545,705,cs),
(522,705,o),
(504,687,o),
(504,664,cs),
(504,36,ls),
(504,13,o),
(522,-5,o),
(545,-5,cs),
(568,-5,o),
(586,13,o),
(586,36,cs)
);
},
{
closed = 1;
nodes = (
(121,408,l),
(121,332,l),
(545,332,l),
(545,408,l)
);
}
);
};
layerId = "1996806A-A5F2-424C-A042-ACA4E2FCE14A";
name = "Original Skeleton";
shapes = (
{
attr = {
strokeWidth = 2;
};
closed = 0;
nodes = (
(101,696,l),
(101,0,l)
);
},
{
attr = {
strokeWidth = 2;
};
closed = 0;
nodes = (
(101,690,l),
(300,690,ls),
(471,690,o),
(555,533,o),
(555,345,cs),
(555,156,o),
(470,0,o),
(278,0,cs),
(101,0,l)
);
}
);
width = 647;
},
{
anchors = (
{
name = bottom;
pos = (300,0);
},
{
name = center;
pos = (300,350);
},
{
name = top;
pos = (300,700);
}
);
layerId = "3D52442A-254C-4C79-B742-A98FD72DF947";
width = 600;
}
);
unicode = 68;
},
{
glyphname = Eth;
lastChange = "2021-07-27 15:57:53 +0000";
layers = (
{
layerId = "65988B1E-DCE2-4AC3-A6FF-994A1050067D";
shapes = (
{
attr = {
lineCapEnd = 2;
lineCapStart = 2;
strokeHeight = 78;
strokeWidth = 78;
};
closed = 0;
nodes = (
(34,370,l),
(369,370,l)
);
},
{
pos = (51,0);
ref = D;
}
);
width = 698;
},
{
layerId = "6242D68C-0A25-4F05-8F2A-2075F7C4A210";
width = 600;
},
{
layerId = "3D52442A-254C-4C79-B742-A98FD72DF947";
width = 600;
}
);
unicode = 208;
},
{
glyphname = E.001;
lastChange = "2021-07-27 19:28:42 +0000";
layers = (
{
anchors = (
{
name = bottom;
pos = (282,0);
},
{
name = ogonek;
pos = (424,0);
},
{
name = top;
pos = (282,700);
},
{
name = topleft;
pos = (20,700);
}
);
background = {
shapes = (
{
attr = {
strokeWidth = 2;
};
closed = 0;
nodes = (
(502,40,l),
(120,40,l),
(123,663,l),
(476,663,l)
);
},
{
attr = {
strokeWidth = 2;
};
closed = 0;
nodes = (
(123,366,l),
(453,366,l)
);
}
);
};
guides = (
{
pos = (439,0);
}
);
layerId = "65988B1E-DCE2-4AC3-A6FF-994A1050067D";
shapes = (
{
closed = 1;
nodes = (
(162,0,l),
(162,700,l),
(121,700,ls),
(98,700,o),
(80,682,o),
(80,659,cs),
(80,41,ls),
(80,18,o),
(98,0,o),
(121,0,cs)
);
},
{
closed = 1;
nodes = (
(439,624,ls),
(460,624,o),
(477,641,o),
(477,662,cs),
(477,683,o),
(460,700,o),
(439,700,cs),
(122,700,l),
(122,624,l)
);
},
{
closed = 1;
nodes = (
(418,326,ls),
(439,326,o),
(456,343,o),
(456,364,cs),
(456,385,o),
(439,402,o),
(418,402,cs),
(122,402,l),
(122,326,l)
);
},
{
closed = 1;
nodes = (
(473,0,ls),
(494,0,o),
(504,17,o),
(504,38,cs),
(504,59,o),
(487,76,o),
(466,76,cs),
(129,76,l),
(129,0,l)
);
}
);
width = 564;
},
{
anchors = (
{
name = bottom;
pos = (314,0);
},
{
name = ogonek;
pos = (392,0);
},
{
name = top;
pos = (300,700);
},
{
name = topleft;
pos = (20,700);
}
);
background = {
shapes = (
{
attr = {
strokeWidth = 2;
};
closed = 0;
nodes = (
(522,80,l),
(140,80,l)
);
},
{
attr = {
strokeWidth = 2;
};
closed = 0;
nodes = (
(123,366,l),
(453,366,l)
);
},
{
attr = {
strokeWidth = 2;
};
closed = 0;
nodes = (
(128,623,l),
(481,623,l)
);
},
{
closed = 0;
nodes = (
(160,40,l),
(163,663,l)
);
},
{
closed = 1;
nodes = (
(204,-8,o),
(240,28,o),
(240,72,cs),
(240,628,ls),
(240,672,o),
(204,708,o),
(160,708,cs),
(116,708,o),
(80,672,o),
(80,628,cs),
(80,72,ls),
(80,28,o),
(116,-8,o),
(160,-8,cs)
);
},
{
closed = 1;
nodes = (
(674,628,ls),
(674,672,o),
(638,708,o),
(594,708,cs),
(550,708,o),
(514,672,o),
(514,628,cs),
(514,72,ls),
(514,28,o),
(550,-8,o),
(594,-8,cs),
(638,-8,o),
(674,28,o),
(674,72,cs)
);
},
{
closed = 1;
nodes = (
(188,431,l),
(188,281,l),
(605,281,l),
(605,431,l)
);
}
);
};
layerId = "6242D68C-0A25-4F05-8F2A-2075F7C4A210";
shapes = (
{
closed = 1;
nodes = (
(240,0,l),
(240,700,l),
(160,700,ls),
(116,700,o),
(80,664,o),
(80,620,cs),
(80,80,ls),
(80,36,o),
(116,0,o),
(160,0,cs)
);
},
{
closed = 1;
nodes = (
(484,550,ls),
(525,550,o),
(559,584,o),
(559,625,cs),
(559,666,o),
(525,700,o),
(484,700,cs),
(191,700,l),
(191,550,l)
);
},
{
closed = 1;
nodes = (
(461,281,ls),
(502,281,o),
(536,315,o),
(536,356,cs),
(536,397,o),
(502,431,o),
(461,431,cs),
(191,431,l),
(191,281,l)
);
},
{
closed = 1;
nodes = (
(502,0,ls),
(543,0,o),
(577,34,o),
(577,75,cs),
(577,116,o),
(543,150,o),
(502,150,cs),
(199,150,l),
(199,0,l)
);
}
);
width = 637;
},
{
anchors = (
{
name = bottom;
pos = (282,0);
},
{
name = ogonek;
pos = (505,56);
},
{
name = top;
pos = (282,700);
},
{
name = topleft;
pos = (20,700);
}
);
associatedMasterId = "65988B1E-DCE2-4AC3-A6FF-994A1050067D";
layerId = "809ED9A0-A97A-4F6B-ABDD-1F4CA130B89A";
name = "Original Skeleton";
shapes = (
{
attr = {
strokeWidth = 2;
};
closed = 0;
nodes = (
(101,696,l),
(101,0,l),
(561,0,l)
);
},
{
attr = {
strokeWidth = 2;
};
closed = 0;
nodes = (
(104,690,l),
(521,690,l)
);
},
{
attr = {
strokeWidth = 2;
};
closed = 0;
nodes = (
(104,366,l),
(411,366,l)
);
}
);
width = 564;
},
{
anchors = (
{
name = bottom;
pos = (268,0);
},
{
name = ogonek;
pos = (422,0);
},
{
name = top;
pos = (268,700);
},
{
name = topleft;
pos = (13,700);
}
);
background = {
shapes = (
{
attr = {
strokeWidth = 2;
};
closed = 0;
nodes = (
(476,24,l),
(120,24,l),
(123,675,l),
(448,675,l)
);
},
{
attr = {
strokeWidth = 2;
};
closed = 0;
nodes = (
(123,367,l),
(438,367,l)
);
},
{
closed = 1;
nodes = (
(122,700,l),
(122,624,l),
(439,624,ls),
(460,624,o),
(477,641,o),
(477,662,cs),
(477,683,o),
(460,700,o),
(439,700,cs)
);
},
{
closed = 1;
nodes = (
(122,402,l),
(122,326,l),
(418,326,ls),
(439,326,o),
(456,343,o),
(456,364,cs),
(456,385,o),
(439,402,o),
(418,402,cs)
);
},
{
closed = 1;
nodes = (
(122,76,l),
(122,0,l),
(466,0,ls),
(487,0,o),
(504,17,o),
(504,38,cs),
(504,59,o),
(487,76,o),
(466,76,cs)
);
},
{
closed = 1;
nodes = (
(162,700,l),
(121,700,l),
(98,700,o),
(80,682,o),
(80,659,cs),
(80,41,ls),
(80,18,o),
(98,0,o),
(121,0,c),
(162,0,l)
);
}
);
};
layerId = "3D52442A-254C-4C79-B742-A98FD72DF947";
shapes = (
{
closed = 1;
nodes = (
(121,0,l),
(121,700,l),
(98,700,ls),
(85,700,o),
(75,690,o),
(75,677,cs),
(75,23,ls),
(75,10,o),
(85,0,o),
(98,0,cs)
);
},
{
closed = 1;
nodes = (
(425,654,ls),
(438,654,o),
(448,664,o),
(448,677,cs),
(448,690,o),
(438,700,o),
(425,700,cs),
(101,700,l),
(101,654,l)
);
},
{
closed = 1;
nodes = (
(415,344,ls),
(428,344,o),
(438,354,o),
(438,367,cs),
(438,380,o),
(428,390,o),
(415,390,cs),
(100,390,l),
(100,344,l)
);
},
{
closed = 1;
nodes = (
(453,0,ls),
(466,0,o),
(476,10,o),
(476,23,cs),
(476,36,o),
(466,46,o),
(453,46,cs),
(106,46,l),
(106,0,l)
);
}
);
width = 536;
}
);
},
{
glyphname = E.ss02;
lastChange = "2021-07-27 15:57:53 +0000";
layers = (
{
background = {
shapes = (
{
closed = 1;
nodes = (
(162,664,ls),
(162,687,o),
(144,705,o),
(121,705,cs),
(98,705,o),
(80,687,o),
(80,664,cs),
(80,36,ls),
(80,13,o),
(98,-5,o),
(121,-5,cs),
(144,-5,o),
(162,13,o),
(162,36,cs)
);
},
{
closed = 1;
nodes = (
(586,664,ls),
(586,687,o),
(568,705,o),
(545,705,cs),
(522,705,o),
(504,687,o),
(504,664,cs),
(504,36,ls),
(504,13,o),
(522,-5,o),
(545,-5,cs),
(568,-5,o),
(586,13,o),
(586,36,cs)
);
},
{
closed = 1;
nodes = (
(121,408,l),
(121,332,l),
(545,332,l),
(545,408,l)
);
}
);
};
layerId = "65988B1E-DCE2-4AC3-A6FF-994A1050067D";
shapes = (
{
closed = 1;
nodes = (
(122,700,l),
(122,624,l),
(502,624,ls),
(523,624,o),
(540,641,o),
(540,662,cs),
(540,683,o),
(523,700,o),
(502,700,cs)
);
},
{
closed = 1;
nodes = (
(122,402,l),
(122,326,l),
(402,326,ls),
(423,326,o),
(440,343,o),
(440,364,cs),
(440,385,o),
(423,402,o),
(402,402,cs)
);
},
{
closed = 1;
nodes = (
(120,76,l),
(120,0,l),
(502,0,ls),
(523,0,o),
(540,17,o),
(540,38,cs),
(540,59,o),
(523,76,o),
(502,76,cs)
);
},
{
closed = 1;
nodes = (
(162,700,l),
(121,700,l),
(98,700,o),
(80,682,o),
(80,659,cs),
(80,41,ls),
(80,18,o),
(98,0,o),
(121,0,c),
(162,0,l)
);
}
);
width = 585;
},
{
layerId = "6242D68C-0A25-4F05-8F2A-2075F7C4A210";
width = 600;
},
{
layerId = "3D52442A-254C-4C79-B742-A98FD72DF947";
width = 600;
}
);
},
{
glyphname = F;
lastChange = "2021-07-27 15:57:53 +0000";
layers = (
{
layerId = "65988B1E-DCE2-4AC3-A6FF-994A1050067D";
shapes = (
{
closed = 1;
nodes = (
(122,700,l),
(122,624,l),
(439,624,ls),
(460,624,o),
(477,641,o),
(477,662,cs),
(477,683,o),
(460,700,o),
(439,700,cs)
);
},
{
closed = 1;
nodes = (
(122,397,l),
(122,321,l),
(418,321,ls),
(439,321,o),
(456,338,o),
(456,359,cs),
(456,380,o),
(439,397,o),
(418,397,cs)
);
},
{
closed = 1;
nodes = (
(162,700,l),
(121,700,l),
(98,700,o),
(80,682,o),
(80,659,cs),
(80,36,ls),
(80,13,o),
(98,-5,o),
(121,-5,cs),
(144,-5,o),
(162,13,o),
(162,36,cs)
);
}
);
width = 517;
},
{
layerId = "6242D68C-0A25-4F05-8F2A-2075F7C4A210";
width = 600;
},
{
associatedMasterId = "65988B1E-DCE2-4AC3-A6FF-994A1050067D";
layerId = "AF8F5731-F07F-4E71-B0D5-E02C60E10B50";
name = "Original Skeleton";
shapes = (
{
attr = {
strokeWidth = 2;
};
closed = 0;
nodes = (
(101,696,l),
(101,-2,l)
);
},
{
attr = {
strokeWidth = 2;
};
closed = 0;
nodes = (
(107,690,l),
(530,690,l)
);
},
{
attr = {
strokeWidth = 2;
};
closed = 0;
nodes = (
(105,366,l),
(420,366,l)
);
}
);
width = 517;
},
{
layerId = "3D52442A-254C-4C79-B742-A98FD72DF947";
width = 600;
}
);
unicode = 70;
},
{
glyphname = G;
lastChange = "2021-07-27 15:57:53 +0000";
layers = (
{
anchors = (
{
name = bottom;
pos = (310,0);
},
{
name = top;
pos = (340,700);
}
);
layerId = "65988B1E-DCE2-4AC3-A6FF-994A1050067D";
shapes = (
{
closed = 1;
nodes = (
(565,339,o),
(552,356,o),
(533,356,cs),
(377,358,ls),
(355,358,o),
(337,341,o),
(337,319,cs),
(337,298,o),
(354,280,o),
(375,280,cs),
(484,280,l),
(484,120,l),
(447,81,o),
(415,62,o),
(361,62,cs),
(229,62,o),
(142,181,o),
(142,350,cs),
(142,470,o),
(187,640,o),
(351,640,cs),
(424,640,o),
(461,601,o),
(481,553,cs),
(487,539,o),
(501,529,o),
(517,529,cs),
(538,529,o),
(556,547,o),
(556,568,cs),
(556,573,o),
(554,579,o),
(552,583,cs),
(523,652,o),
(459,715,o),
(345,715,cs),
(124,715,o),
(60,495,o),
(60,350,cs),
(60,137,o),
(177,-15,o),
(365,-15,cs),
(436,-15,o),
(504,11,o),
(565,96,c),
(565,315,ls)
);
}
);
width = 620;
},
{
layerId = "6242D68C-0A25-4F05-8F2A-2075F7C4A210";
width = 600;
},
{
anchors = (
{
name = bottom;
pos = (310,0);
},
{
name = top;
pos = (340,700);
}
);
associatedMasterId = "65988B1E-DCE2-4AC3-A6FF-994A1050067D";
layerId = "6A5D1632-9C88-4F41-ADAD-839021B4194E";
name = "Original Skeleton";
shapes = (
{
attr = {
strokeWidth = 2;
};
closed = 0;
nodes = (
(521,543,l),
(521,543,o),
(489,698,o),
(329,698,cs),
(128,698,o),
(61,483,o),
(61,347,cs),
(61,265,o),
(104,-4,o),
(337,-4,cs),
(460,-4,o),
(521,96,o),
(521,96,c),
(521,312,l),
(350,317,l)
);
}
);
width = 620;
},
{
layerId = "3D52442A-254C-4C79-B742-A98FD72DF947";
width = 600;
}
);
unicode = 71;
},
{
glyphname = G.alt;
lastChange = "2021-07-27 15:57:53 +0000";
layers = (
{
layerId = "65988B1E-DCE2-4AC3-A6FF-994A1050067D";
shapes = (
{
closed = 1;
nodes = (
(565,339,o),
(552,356,o),
(533,356,cs),
(377,358,ls),
(355,358,o),
(337,341,o),
(337,319,cs),
(337,298,o),
(354,280,o),
(375,280,cs),
(484,280,l),
(484,120,l),
(447,81,o),
(415,62,o),
(351,62,cs),
(219,62,o),
(132,181,o),
(132,350,cs),
(132,470,o),
(177,640,o),
(341,640,cs),
(414,640,o),
(451,601,o),
(471,553,cs),
(477,539,o),
(491,529,o),
(507,529,cs),
(528,529,o),
(546,547,o),
(546,568,cs),
(546,573,o),
(544,579,o),
(542,583,cs),
(513,652,o),
(449,715,o),
(335,715,cs),
(114,715,o),
(50,495,o),
(50,350,cs),
(50,138,o),
(176,-15,o),
(355,-15,cs),
(437,-15,o),
(505,11,o),
(566,96,c),
(565,315,ls)
);
}
);
width = 610;
},
{
layerId = "6242D68C-0A25-4F05-8F2A-2075F7C4A210";
width = 600;
},
{
layerId = "3D52442A-254C-4C79-B742-A98FD72DF947";
width = 600;
}
);
},
{
glyphname = G.ss02;
lastChange = "2021-07-27 15:57:53 +0000";
layers = (
{
anchors = (
{
name = bottom;
pos = (305,0);
},
{
name = top;
pos = (305,700);
}
);
layerId = "65988B1E-DCE2-4AC3-A6FF-994A1050067D";
shapes = (
{
closed = 1;
nodes = (
(555,339,o),
(542,356,o),
(523,356,cs),
(367,358,ls),
(345,358,o),
(327,341,o),
(327,319,cs),
(327,298,o),
(344,280,o),
(365,280,cs),
(477,280,l),
(477,126,l),
(440,80,o),
(400,59,o),
(349,59,cs),
(171,59,o),
(142,278,o),
(142,350,cs),
(142,470,o),
(187,641,o),
(341,641,cs),
(414,641,o),
(451,601,o),
(471,553,cs),
(477,539,o),
(491,529,o),
(507,529,cs),
(528,529,o),
(546,547,o),
(546,568,cs),
(546,573,o),
(544,579,o),
(542,583,cs),
(513,652,o),
(449,715,o),
(335,715,cs),
(124,715,o),
(60,495,o),
(60,350,cs),
(60,133,o),
(178,-15,o),
(331,-15,cs),
(428,-15,o),
(510,28,o),
(555,103,c),
(555,315,ls)
);
}
);
width = 610;
},
{
layerId = "6242D68C-0A25-4F05-8F2A-2075F7C4A210";
width = 600;
},
{
layerId = "3D52442A-254C-4C79-B742-A98FD72DF947";
width = 600;
}
);
},
{
glyphname = H.001;
lastChange = "2021-07-27 19:28:42 +0000";
layers = (
{
anchors = (
{
name = bottom;
pos = (338,0);
},
{
name = center;
pos = (338,350);
},
{
name = top;
pos = (338,700);
},
{
name = topleft;
pos = (20,700);
}
);
background = {
shapes = (
{
attr = {
strokeWidth = 2;
};
closed = 0;
nodes = (
(122,700,l),
(122,0,l)
);
},
{
attr = {
strokeWidth = 2;
};
closed = 0;
nodes = (
(555,700,l),
(555,0,l)
);
},
{
attr = {
strokeWidth = 2;
};
closed = 0;
nodes = (
(122,368,l),
(550,368,l)
);
}
);
};
layerId = "65988B1E-DCE2-4AC3-A6FF-994A1050067D";
shapes = (
{
closed = 1;
nodes = (
(144,-10,o),
(162,8,o),
(162,31,cs),
(162,669,ls),
(162,692,o),
(144,710,o),
(121,710,cs),
(98,710,o),
(80,692,o),
(80,669,cs),
(80,31,ls),
(80,8,o),
(98,-10,o),
(121,-10,cs)
);
},
{
closed = 1;
nodes = (
(578,-10,o),
(596,8,o),
(596,31,cs),
(596,669,ls),
(596,692,o),
(578,710,o),
(555,710,cs),
(532,710,o),
(514,692,o),
(514,669,cs),
(514,31,ls),
(514,8,o),
(532,-10,o),
(555,-10,cs)
);
},
{
closed = 1;
nodes = (
(555,332,l),
(555,408,l),
(121,408,l),
(121,332,l)
);
}
);
width = 676;
},
{
anchors = (
{
name = bottom;
pos = (377,0);
},
{
name = center;
pos = (377,350);
},
{
name = top;
pos = (377,700);
},
{
name = topleft;
pos = (20,700);
}
);
background = {
shapes = (
{
attr = {
strokeWidth = 2;
};
closed = 0;
nodes = (
(598,700,l),
(598,0,l)
);
},
{
attr = {
strokeWidth = 2;
};
closed = 0;
nodes = (
(581,358,l),
(158,357,l)
);
},
{
attr = {
strokeWidth = 2;
};
closed = 0;
nodes = (
(159,700,l),
(159,0,l)
);
}
);
};
layerId = "6242D68C-0A25-4F05-8F2A-2075F7C4A210";
shapes = (
{
closed = 1;
nodes = (
(204,-8,o),
(240,28,o),
(240,72,cs),
(240,628,ls),
(240,672,o),
(204,708,o),
(160,708,cs),
(116,708,o),
(80,672,o),
(80,628,cs),
(80,72,ls),
(80,28,o),
(116,-8,o),
(160,-8,cs)
);
},
{
closed = 1;
nodes = (
(638,-8,o),
(674,28,o),
(674,72,cs),
(674,628,ls),
(674,672,o),
(638,708,o),
(594,708,cs),
(550,708,o),
(514,672,o),
(514,628,cs),
(514,72,ls),
(514,28,o),
(550,-8,o),
(594,-8,cs)
);
},
{
closed = 1;
nodes = (
(605,281,l),
(605,431,l),
(188,431,l),
(188,281,l)
);
}
);
width = 754;
},
{
associatedMasterId = "65988B1E-DCE2-4AC3-A6FF-994A1050067D";
background = {
shapes = (
{
attr = {
strokeWidth = 2;
};
closed = 0;
nodes = (
(122,700,l),
(122,0,l)
);
},
{
attr = {
strokeWidth = 2;
};
closed = 0;
nodes = (
(546,700,l),
(546,0,l)
);
},
{
attr = {
strokeWidth = 2;
};
closed = 0;
nodes = (
(122,368,l),
(546,368,l)
);
}
);
};
layerId = "501F85B2-6C6F-4D2D-83D6-00BE89D5E89B";
name = "Original Skeleton";
shapes = (
{
attr = {
strokeWidth = 2;
};
closed = 0;
nodes = (
(101,700,l),
(101,0,l)
);
},
{
attr = {
strokeWidth = 2;
};
closed = 0;
nodes = (
(567,700,l),
(567,0,l)
);
},
{
attr = {
strokeWidth = 2;
};
closed = 0;
nodes = (
(101,368,l),
(567,368,l)
);
}
);
width = 676;
},
{
anchors = (
{
name = bottom;
pos = (313,0);
},
{
name = center;
pos = (313,350);
},
{
name = top;
pos = (313,700);
},
{
name = topleft;
pos = (20,700);
}
);
background = {
shapes = (
{
attr = {
strokeWidth = 2;
};
closed = 0;
nodes = (
(101,700,l),
(101,0,l)
);
},
{
attr = {
strokeWidth = 2;
};
closed = 0;
nodes = (
(529,700,l),
(529,0,l)
);
},
{
attr = {
strokeWidth = 2;
};
closed = 0;
nodes = (
(105,368,l),
(529,368,l)
);
},
{
closed = 1;
nodes = (
(119,-10,o),
(132,3,o),
(132,20,cs),
(132,680,ls),
(132,697,o),
(119,710,o),
(102,710,cs),
(85,710,o),
(72,697,o),
(72,680,cs),
(72,20,ls),
(72,3,o),
(85,-10,o),
(102,-10,cs)
);
},
{
closed = 1;
nodes = (
(532,-10,o),
(545,3,o),
(545,20,cs),
(545,680,ls),
(545,697,o),
(532,710,o),
(515,710,cs),
(498,710,o),
(485,697,o),
(485,680,cs),
(485,20,ls),
(485,3,o),
(498,-10,o),
(515,-10,cs)
);
},
{
closed = 1;
nodes = (
(516,341,l),
(516,399,l),
(98,398,l),
(98,340,l)
);
},
{
closed = 1;
nodes = (
(441,41,o),
(529,164,o),
(529,351,cs),
(529,538,o),
(441,661,o),
(314,661,cs),
(187,661,o),
(99,538,o),
(99,351,cs),
(99,164,o),
(187,41,o),
(314,41,cs)
);
},
{
closed = 1;
nodes = (
(155,-12,o),
(42,130,o),
(42,351,cs),
(42,572,o),
(155,714,o),
(314,714,cs),
(473,714,o),
(586,572,o),
(586,351,cs),
(586,127,o),
(458,-12,o),
(314,-12,cs)
);
}
);
};
layerId = "3D52442A-254C-4C79-B742-A98FD72DF947";
shapes = (
{
closed = 1;
nodes = (
(111,-10,o),
(121,0,o),
(121,13,cs),
(121,687,ls),
(121,700,o),
(111,710,o),
(98,710,cs),
(85,710,o),
(75,700,o),
(75,687,cs),
(75,13,ls),
(75,0,o),
(85,-10,o),
(98,-10,cs)
);
},
{
closed = 1;
nodes = (
(536,-10,o),
(546,0,o),
(546,13,cs),
(546,687,ls),
(546,700,o),
(536,710,o),
(523,710,cs),
(510,710,o),
(500,700,o),
(500,687,cs),
(500,13,ls),
(500,0,o),
(510,-10,o),
(523,-10,cs)
);
},
{
closed = 1;
nodes = (
(508,344,l),
(508,389,l),
(111,389,l),
(111,344,l)
);
}
);
width = 621;
}
);
},
{
glyphname = H.ss02.001;
lastChange = "2021-07-27 19:29:46 +0000";
layers = (
{
anchors = (
{
name = bottom;
pos = (333,0);
},
{
name = center;
pos = (333,350);
},
{
name = top;
pos = (333,700);
},
{
name = topleft;
pos = (20,700);
}
);
background = {
shapes = (
{
attr = {
strokeWidth = 2;
};
closed = 0;
nodes = (
(101,700,l),
(101,0,l)
);
},
{
attr = {
strokeWidth = 2;
};
closed = 0;
nodes = (
(567,700,l),
(567,0,l)
);
},
{
attr = {
strokeWidth = 2;
};
closed = 0;
nodes = (
(101,368,l),
(567,368,l)
);
}
);
};
layerId = "65988B1E-DCE2-4AC3-A6FF-994A1050067D";
shapes = (
{
closed = 1;
nodes = (
(124,-5,o),
(142,13,o),
(142,36,cs),
(142,664,ls),
(142,687,o),
(124,705,o),
(101,705,cs),
(78,705,o),
(60,687,o),
(60,664,cs),
(60,36,ls),
(60,13,o),
(78,-5,o),
(101,-5,cs)
);
},
{
closed = 1;
nodes = (
(588,-5,o),
(606,13,o),
(606,36,cs),
(606,664,ls),
(606,687,o),
(588,705,o),
(565,705,cs),
(542,705,o),
(524,687,o),
(524,664,cs),
(524,36,ls),
(524,13,o),
(542,-5,o),
(565,-5,cs)
);
},
{
closed = 1;
nodes = (
(565,332,l),
(565,408,l),
(101,408,l),
(101,332,l)
);
}
);
width = 666;
},
{
anchors = (
{
name = bottom;
pos = (392,0);
},
{
name = center;
pos = (392,350);
},
{
name = top;
pos = (392,700);
},
{
name = topleft;
pos = (20,700);
}
);
background = {
shapes = (
{
attr = {
strokeWidth = 2;
};
closed = 0;
nodes = (
(159,700,l),
(159,0,l)
);
},
{
attr = {
strokeWidth = 2;
};
closed = 0;
nodes = (
(625,700,l),
(625,0,l)
);
},
{
attr = {
strokeWidth = 2;
};
closed = 0;
nodes = (
(159,368,l),
(625,368,l)
);
}
);
};
layerId = "6242D68C-0A25-4F05-8F2A-2075F7C4A210";
shapes = (
{
closed = 1;
nodes = (
(204,-8,o),
(240,28,o),
(240,72,cs),
(240,628,ls),
(240,672,o),
(204,708,o),
(160,708,cs),
(116,708,o),
(80,672,o),
(80,628,cs),
(80,72,ls),
(80,28,o),
(116,-8,o),
(160,-8,cs)
);
},
{
closed = 1;
nodes = (
(668,-8,o),
(704,28,o),
(704,72,cs),
(704,628,ls),
(704,672,o),
(668,708,o),
(624,708,cs),
(580,708,o),
(544,672,o),
(544,628,cs),
(544,72,ls),
(544,28,o),
(580,-8,o),
(624,-8,cs)
);
},
{
closed = 1;
nodes = (
(635,281,l),
(635,431,l),
(188,431,l),
(188,281,l)
);
}
);
width = 784;
},
{
anchors = (
{
name = bottom;
pos = (331,0);
},
{
name = center;
pos = (331,350);
},
{
name = top;
pos = (331,700);
},
{
name = topleft;
pos = (20,700);
}
);
background = {
shapes = (
{
attr = {
strokeWidth = 2;
};
closed = 0;
nodes = (
(99,700,l),
(99,0,l)
);
},
{
attr = {
strokeWidth = 2;
};
closed = 0;
nodes = (
(565,700,l),
(565,0,l)
);
},
{
attr = {
strokeWidth = 2;
};
closed = 0;
nodes = (
(99,368,l),
(565,368,l)
);
}
);
};
layerId = "3D52442A-254C-4C79-B742-A98FD72DF947";
shapes = (
{
closed = 1;
nodes = (
(111,-10,o),
(121,0,o),
(121,13,cs),
(121,687,ls),
(121,700,o),
(111,710,o),
(98,710,cs),
(85,710,o),
(75,700,o),
(75,687,cs),
(75,13,ls),
(75,0,o),
(85,-10,o),
(98,-10,cs)
);
},
{
closed = 1;
nodes = (
(576,-10,o),
(586,0,o),
(586,13,cs),
(586,687,ls),
(586,700,o),
(576,710,o),
(563,710,cs),
(550,710,o),
(540,700,o),
(540,687,cs),
(540,13,ls),
(540,0,o),
(550,-10,o),
(563,-10,cs)
);
},
{
closed = 1;
nodes = (
(548,344,l),
(548,389,l),
(111,389,l),
(111,344,l)
);
}
);
width = 661;
}
);
},
{
glyphname = Hbar;
lastChange = "2021-07-27 15:57:53 +0000";
layers = (
{
layerId = "65988B1E-DCE2-4AC3-A6FF-994A1050067D";
shapes = (
{
pos = (60,0);
ref = H;
},
{
attr = {
lineCapEnd = "2";
lineCapStart = "2";
strokeHeight = 76;
strokeWidth = 76;
};
closed = 0;
nodes = (
(64,510,l),
(722,510,l)
);
}
);
width = 786;
},
{
layerId = "6242D68C-0A25-4F05-8F2A-2075F7C4A210";
width = 600;
},
{
layerId = "3D52442A-254C-4C79-B742-A98FD72DF947";
width = 600;
}
);
metricLeft = "=H-20";
metricRight = "=H-20";
unicode = 294;
},
{
glyphname = I.001;
lastChange = "2021-07-27 19:28:42 +0000";
layers = (
{
anchors = (
{
name = bottom;
pos = (121,0);
},
{
name = ogonek;
pos = (81,0);
},
{
name = top;
pos = (121,700);
},
{
name = topleft;
pos = (20,700);
}
);
layerId = "65988B1E-DCE2-4AC3-A6FF-994A1050067D";
shapes = (
{
closed = 1;
nodes = (
(144,-10,o),
(162,8,o),
(162,31,cs),
(162,664,ls),
(162,687,o),
(144,705,o),
(121,705,cs),
(98,705,o),
(80,687,o),
(80,664,cs),
(80,31,ls),
(80,8,o),
(98,-10,o),
(121,-10,cs)
);
}
);
width = 242;
},
{
anchors = (
{
name = bottom;
pos = (162,0);
},
{
name = ogonek;
pos = (97,0);
},
{
name = top;
pos = (159,700);
},
{
name = topleft;
pos = (20,700);
}
);
layerId = "6242D68C-0A25-4F05-8F2A-2075F7C4A210";
shapes = (
{
closed = 1;
nodes = (
(204,-8,o),
(240,28,o),
(240,72,cs),
(240,628,ls),
(240,672,o),
(204,708,o),
(160,708,cs),
(116,708,o),
(80,672,o),
(80,628,cs),
(80,72,ls),
(80,28,o),
(116,-8,o),
(160,-8,cs)
);
}
);
width = 320;
},
{
anchors = (
{
name = bottom;
pos = (121,0);
},
{
name = ogonek;
pos = (168,56);
},
{
name = top;
pos = (121,700);
},
{
name = topleft;
pos = (20,700);
}
);
associatedMasterId = "65988B1E-DCE2-4AC3-A6FF-994A1050067D";
layerId = "FE7FF8FD-0C8B-4278-A729-EB876815C24C";
name = "Original Skeleton";
shapes = (
{
attr = {
strokeWidth = 2;
};
closed = 0;
nodes = (
(101,700,l),
(101,0,l)
);
}
);
width = 242;
},
{
anchors = (
{
name = bottom;
pos = (98,0);
},
{
name = ogonek;
pos = (57,0);
},
{
name = top;
pos = (98,700);
},
{
name = topleft;
pos = (20,700);
}
);
layerId = "3D52442A-254C-4C79-B742-A98FD72DF947";
shapes = (
{
closed = 1;
nodes = (
(111,-10,o),
(121,0,o),
(121,13,cs),
(121,687,ls),
(121,700,o),
(111,710,o),
(98,710,cs),
(85,710,o),
(75,700,o),
(75,687,cs),
(75,13,ls),
(75,0,o),
(85,-10,o),
(98,-10,cs)
);
}
);
width = 196;
}
);
},
{
glyphname = IJ;
lastChange = "2021-07-27 15:57:53 +0000";
layers = (
{
layerId = "65988B1E-DCE2-4AC3-A6FF-994A1050067D";
shapes = (
{
closed = 1;
nodes = (
(162,664,ls),
(162,687,o),
(144,705,o),
(121,705,cs),
(98,705,o),
(80,687,o),
(80,664,cs),
(80,36,ls),
(80,13,o),
(98,-5,o),
(121,-5,cs),
(144,-5,o),
(162,13,o),
(162,36,cs)
);
},
{
closed = 1;
nodes = (
(227,170,ls),
(227,54,o),
(301,-30,o),
(404,-30,cs),
(523,-30,o),
(592,46,o),
(592,176,cs),
(592,664,ls),
(592,687,o),
(574,705,o),
(551,705,cs),
(528,705,o),
(510,687,o),
(510,664,cs),
(510,176,ls),
(510,96,o),
(471,49,o),
(404,49,cs),
(344,49,o),
(309,93,o),
(309,170,cs),
(309,187,ls),
(309,210,o),
(291,228,o),
(268,228,cs),
(245,228,o),
(227,210,o),
(227,187,cs)
);
}
);
width = 672;
},
{
layerId = "6242D68C-0A25-4F05-8F2A-2075F7C4A210";
width = 600;
},
{
layerId = "3D52442A-254C-4C79-B742-A98FD72DF947";
width = 600;
}
);
unicode = 306;
},
{
glyphname = IJ.001;
lastChange = "2021-07-27 15:57:53 +0000";
layers = (
{
background = {
shapes = (
{
closed = 0;
nodes = (
(70,80,l),
(97,13,o),
(156,-30,o),
(230,-30,cs),
(349,-30,o),
(418,46,o),
(418,176,cs),
(418,664,ls),
(418,687,o),
(400,705,o),
(377,705,cs),
(354,705,o),
(336,687,o),
(336,664,cs),
(336,176,ls),
(336,96,o),
(297,49,o),
(230,49,cs),
(200,49,o),
(176,60,o),
(160,80,c)
);
}
);
};
layerId = "65988B1E-DCE2-4AC3-A6FF-994A1050067D";
shapes = (
{
closed = 1;
nodes = (
(153,664,ls),
(153,687,o),
(135,705,o),
(112,705,cs),
(89,705,o),
(71,687,o),
(71,664,cs),
(71,272,ls),
(71,249,o),
(89,231,o),
(112,231,cs),
(135,231,o),
(153,249,o),
(153,272,cs)
);
},
{
closed = 1;
nodes = (
(156,107,cs),
(156,129,o),
(138,140,o),
(115,140,cs),
(88,140,o),
(70,122,o),
(70,102,cs),
(70,21,o),
(156,-30,o),
(240,-30,cs),
(359,-30,o),
(428,46,o),
(428,176,cs),
(428,664,ls),
(428,687,o),
(410,705,o),
(387,705,cs),
(364,705,o),
(346,687,o),
(346,664,cs),
(346,176,ls),
(346,96,o),
(307,49,o),
(240,49,cs),
(186,49,o),
(156,72,o)
);
}
);
width = 498;
},
{
layerId = "6242D68C-0A25-4F05-8F2A-2075F7C4A210";
width = 600;
},
{
layerId = "3D52442A-254C-4C79-B742-A98FD72DF947";
width = 600;
}
);
},
{
glyphname = J;
lastChange = "2021-07-27 15:57:53 +0000";
layers = (
{
anchors = (
{
name = bottom;
pos = (250,0);
},
{
name = top;
pos = (380,700);
}
);
layerId = "65988B1E-DCE2-4AC3-A6FF-994A1050067D";
shapes = (
{
closed = 1;
nodes = (
(35,186,ls),
(35,115,o),
(79,-14,o),
(232,-14,cs),
(373,-14,o),
(420,94,o),
(420,192,cs),
(420,664,ls),
(420,687,o),
(402,705,o),
(379,705,cs),
(356,705,o),
(338,687,o),
(338,664,cs),
(338,192,ls),
(338,120,o),
(315,65,o),
(232,65,cs),
(140,65,o),
(117,133,o),
(117,186,cs),
(117,203,ls),
(117,226,o),
(99,244,o),
(76,244,cs),
(53,244,o),
(35,226,o),
(35,203,cs)
);
}
);
width = 500;
},
{
layerId = "6242D68C-0A25-4F05-8F2A-2075F7C4A210";
width = 600;
},
{
anchors = (
{
name = bottom;
pos = (250,0);
},
{
name = top;
pos = (380,700);
}
);
associatedMasterId = "65988B1E-DCE2-4AC3-A6FF-994A1050067D";
layerId = "FA29D0E2-6F2F-4B5A-A0FA-73513B7940E8";
name = "Original Skeleton";
shapes = (
{
attr = {
strokeWidth = 2;
};
closed = 0;
nodes = (
(394,700,l),
(394,178,l),
(394,178,o),
(403,-4,o),
(232,-4,cs),
(100,-4,o),
(61,105,o),
(61,171,cs),
(61,230,l)
);
}
);
width = 500;
},
{
layerId = "3D52442A-254C-4C79-B742-A98FD72DF947";
width = 600;
}
);
unicode = 74;
},
{
glyphname = K;
lastChange = "2021-07-27 15:57:53 +0000";
layers = (
{
anchors = (
{
name = bottom;
pos = (307,0);
},
{
name = top;
pos = (307,700);
}
);
layerId = "65988B1E-DCE2-4AC3-A6FF-994A1050067D";
shapes = (
{
closed = 1;
nodes = (
(162,664,ls),
(162,687,o),
(144,705,o),
(121,705,cs),
(98,705,o),
(80,687,o),
(80,664,cs),
(80,36,ls),
(80,13,o),
(98,-5,o),
(121,-5,cs),
(144,-5,o),
(162,13,o),
(162,36,cs)
);
},
{
closed = 1;
nodes = (
(541,630,ls),
(549,638,o),
(553,648,o),
(553,659,cs),
(553,681,o),
(535,700,o),
(512,700,cs),
(501,700,o),
(491,695,o),
(484,688,cs),
(135,332,l),
(135,216,l)
);
},
{
closed = 1;
nodes = (
(497,11,ls),
(504,0,o),
(516,-7,o),
(530,-7,cs),
(553,-7,o),
(571,12,o),
(571,34,cs),
(571,43,o),
(568,51,o),
(563,58,cs),
(312,421,l),
(255,361,l)
);
}
);
width = 614;
},
{
layerId = "6242D68C-0A25-4F05-8F2A-2075F7C4A210";
width = 600;
},
{
anchors = (
{
name = bottom;
pos = (307,0);
},
{
name = top;
pos = (307,700);
}
);
associatedMasterId = "65988B1E-DCE2-4AC3-A6FF-994A1050067D";
layerId = "326C8418-8C6E-400D-A12B-A5D289B1ECBF";
name = "Original Skeleton";
shapes = (
{
attr = {
strokeWidth = 2;
};
closed = 0;
nodes = (
(101,700,l),
(101,0,l)
);
},
{
attr = {
strokeWidth = 2;
};
closed = 0;
nodes = (
(532,684,l),
(266,415,l),
(101,247,l)
);
},
{
attr = {
strokeWidth = 2;
};
closed = 0;
nodes = (
(550,4,l),
(266,415,l)
);
}
);
width = 614;
},
{
layerId = "3D52442A-254C-4C79-B742-A98FD72DF947";
width = 600;
}
);
unicode = 75;
},
{
glyphname = L.001;
lastChange = "2021-07-27 19:28:42 +0000";
layers = (
{
anchors = (
{
name = bottom;
pos = (277,0);
},
{
name = center;
pos = (267,350);
},
{
name = top;
pos = (124,700);
},
{
name = topright;
pos = (514,700);
}
);
background = {
shapes = (
{
attr = {
strokeWidth = 2;
};
closed = 0;
nodes = (
(122,700,l),
(122,37,l)
);
},
{
attr = {
strokeWidth = 2;
};
closed = 0;
nodes = (
(124,38,l),
(502,38,l)
);
}
);
};
layerId = "65988B1E-DCE2-4AC3-A6FF-994A1050067D";
shapes = (
{
closed = 1;
nodes = (
(162,0,l),
(162,664,ls),
(162,687,o),
(144,705,o),
(121,705,cs),
(98,705,o),
(80,687,o),
(80,664,cs),
(80,41,ls),
(80,18,o),
(98,0,o),
(121,0,cs)
);
},
{
closed = 1;
nodes = (
(466,0,ls),
(487,0,o),
(504,17,o),
(504,38,cs),
(504,59,o),
(487,76,o),
(466,76,cs),
(146,76,l),
(146,0,l)
);
}
);
width = 534;
},
{
anchors = (
{
name = bottom;
pos = (330,0);
},
{
name = center;
pos = (300,350);
},
{
name = top;
pos = (313,700);
},
{
name = topright;
pos = (580,700);
}
);
layerId = "6242D68C-0A25-4F05-8F2A-2075F7C4A210";
shapes = (
{
closed = 1;
nodes = (
(240,0,l),
(240,628,ls),
(240,672,o),
(204,708,o),
(160,708,cs),
(116,708,o),
(80,672,o),
(80,628,cs),
(80,80,ls),
(80,36,o),
(116,0,o),
(160,0,cs)
);
},
{
closed = 1;
nodes = (
(502,0,ls),
(543,0,o),
(577,34,o),
(577,75,cs),
(577,116,o),
(543,150,o),
(502,150,cs),
(199,150,l),
(199,0,l)
);
}
);
width = 607;
},
{
anchors = (
{
name = bottom;
pos = (277,0);
},
{
name = center;
pos = (267,350);
},
{
name = top;
pos = (124,700);
},
{
name = topright;
pos = (514,700);
}
);
associatedMasterId = "65988B1E-DCE2-4AC3-A6FF-994A1050067D";
layerId = "74C9DC4D-6C8C-45A5-8086-473651A20056";
name = "Original Skeleton";
shapes = (
{
attr = {
strokeWidth = 2;
};
closed = 0;
nodes = (
(101,698,l),
(101,0,l)
);
},
{
attr = {
strokeWidth = 2;
};
closed = 0;
nodes = (
(101,4,l),
(568,4,l)
);
}
);
width = 534;
},
{
anchors = (
{
name = bottom;
pos = (300,0);
},
{
name = center;
pos = (283,350);
},
{
name = top;
pos = (278,700);
},
{
name = topright;
pos = (580,700);
}
);
layerId = "3D52442A-254C-4C79-B742-A98FD72DF947";
shapes = (
{
closed = 1;
nodes = (
(121,0,l),
(121,687,ls),
(121,700,o),
(111,710,o),
(98,710,cs),
(85,710,o),
(75,700,o),
(75,687,cs),
(75,23,ls),
(75,10,o),
(85,0,o),
(98,0,cs)
);
},
{
closed = 1;
nodes = (
(433,0,ls),
(446,0,o),
(456,10,o),
(456,23,cs),
(456,36,o),
(446,46,o),
(433,46,cs),
(106,46,l),
(106,0,l)
);
}
);
width = 486;
}
);
},
{
glyphname = Lslash;
lastChange = "2021-07-27 15:57:53 +0000";
layers = (
{
layerId = "65988B1E-DCE2-4AC3-A6FF-994A1050067D";
shapes = (
{
closed = 1;
nodes = (
(207,76,l),
(207,0,l),
(551,0,ls),
(572,0,o),
(589,17,o),
(589,38,cs),
(589,59,o),
(572,76,o),
(551,76,cs)
);
},
{
closed = 1;
nodes = (
(247,664,ls),
(247,687,o),
(229,705,o),
(206,705,cs),
(183,705,o),
(165,687,o),
(165,664,cs),
(165,41,ls),
(165,18,o),
(183,0,o),
(206,0,cs),
(247,0,l)
);
},
{
attr = {
lineCapEnd = "2";
lineCapStart = "2";
strokeHeight = 78;
strokeWidth = 78;
};
closed = 0;
nodes = (
(48,287,l),
(421,478,l)
);
}
);
width = 619;
},
{
layerId = "6242D68C-0A25-4F05-8F2A-2075F7C4A210";
width = 600;
},
{
layerId = "3D52442A-254C-4C79-B742-A98FD72DF947";
width = 600;
}
);
unicode = 321;
},
{
glyphname = M;
lastChange = "2021-07-27 15:57:53 +0000";
layers = (
{
layerId = "65988B1E-DCE2-4AC3-A6FF-994A1050067D";
shapes = (
{
closed = 1;
nodes = (
(376,80,l),
(614,679,ls),
(620,694,o),
(637,705,o),
(654,705,cs),
(684,705,o),
(702,687,o),
(702,664,cs),
(702,37,ls),
(702,14,o),
(684,-4,o),
(661,-4,cs),
(638,-4,o),
(620,14,o),
(620,37,cs),
(627,608,l),
(657,574,l),
(440,36,ls),
(428,5,o),
(410,-10,o),
(391,-10,cs),
(372,-10,o),
(354,5,o),
(342,36,cs),
(125,574,l),
(155,608,l),
(162,37,ls),
(162,14,o),
(144,-4,o),
(121,-4,cs),
(98,-4,o),
(80,14,o),
(80,37,cs),
(80,664,ls),
(80,687,o),
(98,705,o),
(128,705,cs),
(145,705,o),
(162,694,o),
(168,679,cs),
(406,80,l)
);
}
);
width = 782;
},
{
layerId = "6242D68C-0A25-4F05-8F2A-2075F7C4A210";
width = 600;
},
{
associatedMasterId = "65988B1E-DCE2-4AC3-A6FF-994A1050067D";
layerId = "DD267F0F-BC8F-44EB-B536-100A5EF79BB7";
name = "Original Skeleton";
shapes = (
{
attr = {
strokeWidth = 2;
};
closed = 0;
nodes = (
(101,1,l),
(101,701,l),
(142,701,l),
(393,1,l),
(640,701,l),
(688,701,l),
(688,1,l)
);
}
);
width = 782;
},
{
layerId = "3D52442A-254C-4C79-B742-A98FD72DF947";
width = 600;
}
);
unicode = 77;
},
{
glyphname = M.ss02;
lastChange = "2021-07-27 15:57:53 +0000";
layers = (
{
layerId = "65988B1E-DCE2-4AC3-A6FF-994A1050067D";
shapes = (
{
closed = 1;
nodes = (
(396,80,l),
(664,679,ls),
(671,694,o),
(687,705,o),
(704,705,cs),
(734,705,o),
(752,687,o),
(752,664,cs),
(752,37,ls),
(752,14,o),
(734,-4,o),
(711,-4,cs),
(688,-4,o),
(670,14,o),
(670,37,cs),
(678,608,l),
(707,588,l),
(460,36,ls),
(446,5,o),
(430,-10,o),
(411,-10,cs),
(392,-10,o),
(375,5,o),
(362,36,cs),
(125,588,l),
(154,608,l),
(162,37,ls),
(162,14,o),
(144,-4,o),
(121,-4,cs),
(98,-4,o),
(80,14,o),
(80,37,cs),
(80,664,ls),
(80,687,o),
(98,705,o),
(128,705,cs),
(145,705,o),
(162,694,o),
(168,679,cs),
(426,80,l)
);
}
);
width = 832;
},
{
layerId = "6242D68C-0A25-4F05-8F2A-2075F7C4A210";
width = 600;
},
{
layerId = "3D52442A-254C-4C79-B742-A98FD72DF947";
width = 600;
}
);
},
{
glyphname = N.001;
lastChange = "2021-07-27 19:28:42 +0000";
layers = (
{
anchors = (
{
name = bottom;
pos = (329,0);
},
{
name = top;
pos = (329,700);
}
);
background = {
shapes = (
{
attr = {
strokeWidth = 2;
};
closed = 0;
nodes = (
(121,0,l),
(121,700,l)
);
},
{
attr = {
strokeWidth = 2;
};
closed = 0;
nodes = (
(130,678,l),
(551,0,l)
);
},
{
attr = {
strokeWidth = 2;
};
closed = 0;
nodes = (
(540,32,l),
(540,700,l)
);
}
);
};
layerId = "65988B1E-DCE2-4AC3-A6FF-994A1050067D";
shapes = (
{
closed = 1;
nodes = (
(144,-4,o),
(162,14,o),
(162,37,cs),
(158,608,l),
(105,636,l),
(480,31,ls),
(493,10,o),
(504,-5,o),
(536,-5,cs),
(559,-5,o),
(577,13,o),
(577,36,cs),
(577,664,ls),
(577,687,o),
(559,705,o),
(536,705,cs),
(513,705,o),
(495,687,o),
(495,664,cs),
(500,71,l),
(515,122,l),
(177,669,ls),
(164,690,o),
(153,705,o),
(121,705,cs),
(98,705,o),
(80,687,o),
(80,664,cs),
(80,37,ls),
(80,14,o),
(98,-4,o),
(121,-4,cs)
);
}
);
width = 657;
},
{
anchors = (
{
name = bottom;
pos = (383,0);
},
{
name = top;
pos = (383,700);
}
);
background = {
shapes = (
{
attr = {
strokeWidth = 2;
};
closed = 0;
nodes = (
(156,0,l),
(156,700,l),
(199,700,l),
(586,0,l),
(615,0,l),
(615,700,l)
);
},
{
closed = 1;
nodes = (
(212,-10,o),
(251,29,o),
(250,76,cs),
(239,641,l),
(128,625,l),
(463,40,ls),
(480,11,o),
(506,-20,o),
(571,-20,cs),
(645,-20,o),
(688,16,o),
(688,79,cs),
(688,625,ls),
(688,671,o),
(650,710,o),
(603,710,cs),
(556,710,o),
(517,671,o),
(518,625,cs),
(529,21,l),
(644,58,l),
(305,650,ls),
(288,680,o),
(262,710,o),
(189,710,cs),
(123,710,o),
(80,674,o),
(80,611,cs),
(80,76,ls),
(80,29,o),
(118,-10,o),
(165,-10,cs)
);
},
{
closed = 1;
nodes = (
(204,-8,o),
(240,28,o),
(240,72,cs),
(240,281,l),
(514,281,l),
(514,72,ls),
(514,28,o),
(550,-8,o),
(594,-8,cs),
(638,-8,o),
(674,28,o),
(674,72,cs),
(674,628,ls),
(674,672,o),
(638,708,o),
(594,708,cs),
(550,708,o),
(514,672,o),
(514,628,cs),
(514,431,l),
(240,431,l),
(240,628,ls),
(240,672,o),
(204,708,o),
(160,708,cs),
(116,708,o),
(80,672,o),
(80,628,cs),
(80,72,ls),
(80,28,o),
(116,-8,o),
(160,-8,cs)
);
}
);
};
layerId = "6242D68C-0A25-4F05-8F2A-2075F7C4A210";
shapes = (
{
closed = 1;
nodes = (
(204,-10,o),
(241,26,o),
(240,70,cs),
(234,492,l),
(191,459,l),
(538,21,ls),
(552,3,o),
(574,-11,o),
(602,-11,cs),
(649,-11,o),
(685,25,o),
(685,69,cs),
(685,628,ls),
(685,672,o),
(649,708,o),
(605,708,cs),
(561,708,o),
(524,672,o),
(525,628,cs),
(530,211,l),
(567,226,l),
(225,677,ls),
(209,698,o),
(187,709,o),
(162,709,cs),
(116,709,o),
(80,673,o),
(80,629,cs),
(80,70,ls),
(80,26,o),
(116,-10,o),
(160,-10,cs)
);
}
);
width = 765;
},
{
associatedMasterId = "65988B1E-DCE2-4AC3-A6FF-994A1050067D";
background = {
shapes = (
{
attr = {
strokeWidth = 2;
};
closed = 0;
nodes = (
(121,0,l),
(121,700,l),
(164,700,l),
(551,0,l),
(580,0,l),
(580,700,l)
);
},
{
closed = 1;
nodes = (
(142,-10,o),
(160,8,o),
(160,31,cs),
(160,332,l),
(512,332,l),
(512,31,ls),
(512,8,o),
(530,-10,o),
(553,-10,cs),
(576,-10,o),
(594,8,o),
(594,31,cs),
(594,669,ls),
(594,692,o),
(576,710,o),
(553,710,cs),
(530,710,o),
(512,692,o),
(512,669,cs),
(512,408,l),
(160,408,l),
(160,669,ls),
(160,692,o),
(142,710,o),
(119,710,cs),
(96,710,o),
(78,692,o),
(78,669,cs),
(78,31,ls),
(78,8,o),
(96,-10,o),
(119,-10,cs)
);
}
);
};
layerId = "4F32692D-A073-4367-80EE-3CF7FA349304";
name = "Original Skeleton";
shapes = (
{
attr = {
strokeWidth = 2;
};
closed = 0;
nodes = (
(101,0,l),
(101,700,l),
(144,700,l),
(531,0,l),
(560,0,l),
(560,700,l)
);
}
);
width = 657;
},
{
anchors = (
{
name = bottom;
pos = (314,0);
},
{
name = top;
pos = (314,700);
}
);
background = {
shapes = (
{
closed = 1;
nodes = (
(122,-10,o),
(135,3,o),
(135,20,cs),
(134,609,l),
(121,607,l),
(499,6,ls),
(503,-1,o),
(514,-10,o),
(531,-10,cs),
(548,-10,o),
(561,3,o),
(561,20,cs),
(561,680,ls),
(561,697,o),
(548,710,o),
(531,710,cs),
(514,710,o),
(501,697,o),
(501,680,cs),
(502,91,l),
(515,90,l),
(133,694,ls),
(128,702,o),
(120,710,o),
(106,710,cs),
(89,710,o),
(75,697,o),
(75,680,cs),
(75,20,ls),
(75,3,o),
(88,-10,o),
(105,-10,cs)
);
}
);
};
layerId = "3D52442A-254C-4C79-B742-A98FD72DF947";
shapes = (
{
closed = 1;
nodes = (
(111,-10,o),
(121,0,o),
(121,13,cs),
(120,635,l),
(110,630,l),
(510,0,ls),
(514,-6,o),
(521,-10,o),
(529,-10,cs),
(543,-10,o),
(553,0,o),
(553,13,cs),
(553,687,ls),
(553,700,o),
(543,710,o),
(530,710,cs),
(517,710,o),
(507,700,o),
(507,687,cs),
(508,67,l),
(518,70,l),
(118,700,ls),
(114,706,o),
(107,710,o),
(97,710,cs),
(83,710,o),
(75,700,o),
(75,687,cs),
(75,13,ls),
(75,0,o),
(85,-10,o),
(98,-10,cs)
);
}
);
width = 628;
}
);
},
{
glyphname = N.ss02;
lastChange = "2021-07-27 15:57:53 +0000";
layers = (
{
layerId = "65988B1E-DCE2-4AC3-A6FF-994A1050067D";
shapes = (
{
closed = 1;
nodes = (
(606,-4,o),
(624,13,o),
(624,36,cs),
(624,664,ls),
(624,687,o),
(606,705,o),
(583,705,cs),
(560,705,o),
(542,687,o),
(542,664,cs),
(542,71,l),
(556,113,l),
(183,669,ls),
(169,690,o),
(149,705,o),
(125,705,cs),
(98,705,o),
(80,687,o),
(80,664,cs),
(80,36,ls),
(80,13,o),
(98,-5,o),
(121,-5,cs),
(144,-5,o),
(162,13,o),
(162,36,cs),
(158,608,l),
(111,636,l),
(507,40,ls),
(520,20,o),
(543,-6,o),
(578,-5,cs)
);
}
);
width = 704;
},
{
layerId = "6242D68C-0A25-4F05-8F2A-2075F7C4A210";
width = 600;
},
{
layerId = "3D52442A-254C-4C79-B742-A98FD72DF947";
width = 600;
}
);
},
{
color = 1;
glyphname = Eng;
lastChange = "2021-07-27 15:57:53 +0000";
layers = (
{
layerId = "65988B1E-DCE2-4AC3-A6FF-994A1050067D";
shapes = (
{
ref = N;
},
{
closed = 1;
nodes = (
(497,113,l),
(497,-59,ls),
(497,-88,o),
(494,-105,o),
(471,-105,cs),
(464,-105,o),
(455,-104,o),
(445,-95,cs),
(439,-90,o),
(429,-85,o),
(417,-85,cs),
(395,-85,o),
(379,-103,o),
(379,-122,cs),
(379,-136,o),
(383,-145,o),
(392,-155,cs),
(411,-175,o),
(442,-185,o),
(468,-185,cs),
(530,-185,o),
(577,-146,o),
(577,-59,cs),
(577,113,l)
);
}
);
width = 636;
},
{
layerId = "6242D68C-0A25-4F05-8F2A-2075F7C4A210";
width = 600;
},
{
layerId = "3D52442A-254C-4C79-B742-A98FD72DF947";
width = 600;
}
);
metricLeft = "=N";
metricRight = "=j";
unicode = 330;
},
{
color = 3;
glyphname = O.001;
lastChange = "2021-07-27 19:28:42 +0000";
layers = (
{
anchors = (
{
name = bottom;
pos = (344,0);
},
{
name = center;
pos = (344,350);
},
{
name = ogonek;
pos = (432,0);
},
{
name = top;
pos = (344,700);
},
{
name = topleft;
pos = (20,700);
},
{
name = topright;
pos = (668,700);
}
);
background = {
shapes = (
{
attr = {
strokeWidth = 2;
};
closed = 1;
nodes = (
(587,162,o),
(485,23,o),
(344,23,cs),
(203,23,o),
(101,161,o),
(101,351,c),
(101,543,o),
(203,682,o),
(344,682,cs),
(485,682,o),
(587,543,o),
(587,351,c)
);
}
);
};
layerId = "65988B1E-DCE2-4AC3-A6FF-994A1050067D";
shapes = (
{
closed = 1;
nodes = (
(520,-14,o),
(628,130,o),
(628,350,cs),
(628,571,o),
(510,715,o),
(344,715,cs),
(178,715,o),
(60,571,o),
(60,350,cs),
(60,130,o),
(168,-14,o),
(344,-14,cs)
);
},
{
closed = 1;
nodes = (
(218,61,o),
(142,179,o),
(142,350,cs),
(142,521,o),
(218,640,o),
(344,640,cs),
(470,640,o),
(546,521,o),
(546,350,cs),
(546,179,o),
(470,61,o),
(344,61,cs)
);
}
);
width = 688;
},
{
anchors = (
{
name = bottom;
pos = (391,0);
},
{
name = center;
pos = (391,350);
},
{
name = ogonek;
pos = (460,0);
},
{
name = top;
pos = (391,700);
},
{
name = topleft;
pos = (20,700);
},
{
name = topright;
pos = (762,700);
}
);
background = {
shapes = (
{
closed = 1;
nodes = (
(215,-14,o),
(107,130,o),
(107,350,cs),
(107,571,o),
(225,715,o),
(391,715,cs),
(557,715,o),
(675,571,o),
(675,350,cs),
(675,130,o),
(567,-14,o),
(391,-14,c)
);
},
{
closed = 1;
nodes = (
(265,640,o),
(189,521,o),
(189,350,cs),
(189,179,o),
(265,61,o),
(391,61,cs),
(517,61,o),
(593,179,o),
(593,350,cs),
(593,521,o),
(517,640,o),
(391,640,cs)
);
},
{
attr = {
strokeWidth = 2;
};
closed = 1;
nodes = (
(634,158,o),
(532,19,o),
(391,19,cs),
(250,19,o),
(148,158,o),
(148,351,c),
(148,543,o),
(250,682,o),
(391,682,cs),
(532,682,o),
(634,543,o),
(634,351,c)
);
},
{
closed = 1;
nodes = (
(219,-8,o),
(255,28,o),
(255,72,cs),
(255,281,l),
(529,281,l),
(529,72,ls),
(529,28,o),
(565,-8,o),
(609,-8,cs),
(653,-8,o),
(689,28,o),
(689,72,cs),
(689,628,ls),
(689,672,o),
(653,708,o),
(609,708,cs),
(565,708,o),
(529,672,o),
(529,628,cs),
(529,431,l),
(255,431,l),
(255,628,ls),
(255,672,o),
(219,708,o),
(175,708,cs),
(131,708,o),
(95,672,o),
(95,628,cs),
(95,72,ls),
(95,28,o),
(131,-8,o),
(175,-8,cs)
);
}
);
};
layerId = "6242D68C-0A25-4F05-8F2A-2075F7C4A210";
shapes = (
{
closed = 1;
nodes = (
(583,-14,o),
(722,136,o),
(722,351,cs),
(722,566,o),
(588,715,o),
(396,715,cs),
(204,715,o),
(60,566,o),
(60,351,cs),
(60,136,o),
(199,-14,o),
(391,-14,cs)
);
},
{
closed = 1;
nodes = (
(285,126,o),
(223,220,o),
(223,351,cs),
(223,482,o),
(285,575,o),
(391,575,cs),
(497,575,o),
(559,482,o),
(559,351,cs),
(559,220,o),
(497,126,o),
(391,126,cs)
);
}
);
width = 782;
},
{
associatedMasterId = "65988B1E-DCE2-4AC3-A6FF-994A1050067D";
background = {
shapes = (
{
attr = {
strokeWidth = 2;
};
closed = 1;
nodes = (
(587,158,o),
(485,19,o),
(344,19,cs),
(203,19,o),
(101,158,o),
(101,351,c),
(101,543,o),
(203,682,o),
(344,682,cs),
(485,682,o),
(587,543,o),
(587,351,c)
);
},
{
closed = 1;
nodes = (
(465,84,o),
(540,185,o),
(540,350,cs),
(540,515,o),
(465,616,o),
(343,616,cs),
(221,616,o),
(146,515,o),
(146,350,cs),
(146,185,o),
(221,84,o),
(343,84,cs)
);
},
{
closed = 1;
nodes = (
(157,-20,o),
(40,123,o),
(40,350,cs),
(40,577,o),
(157,720,o),
(343,720,cs),
(529,720,o),
(646,577,o),
(646,350,cs),
(646,123,o),
(529,-20,o),
(343,-20,cs)
);
}
);
};
layerId = "8B5E1BA3-4DA6-4A44-AC2C-89FF2CF17CA5";
name = "Original Skeleton";
shapes = (
{
attr = {
strokeWidth = 2;
};
closed = 1;
nodes = (
(579,152,o),
(463,-7,o),
(320,-7,cs),
(177,-7,o),
(61,152,o),
(61,347,c),
(61,542,o),
(177,700,o),
(320,700,cs),
(463,700,o),
(579,542,o),
(579,347,c)
);
}
);
width = 688;
},
{
anchors = (
{
name = bottom;
pos = (299,0);
},
{
name = center;
pos = (299,350);
},
{
name = ogonek;
pos = (359,0);
},
{
name = top;
pos = (299,700);
},
{
name = topleft;
pos = (19,700);
},
{
name = topright;
pos = (579,700);
}
);
background = {
shapes = (
{
attr = {
strokeWidth = 2;
};
closed = 1;
nodes = (
(552,152,o),
(448,9,o),
(303,9,cs),
(157,9,o),
(53,152,o),
(53,350,c),
(53,548,o),
(157,691,o),
(303,691,cs),
(448,691,o),
(552,548,o),
(552,350,c)
);
},
{
closed = 1;
nodes = (
(108,-10,o),
(118,0,o),
(118,13,cs),
(118,687,ls),
(118,700,o),
(108,710,o),
(95,710,cs),
(82,710,o),
(72,700,o),
(72,687,cs),
(72,13,ls),
(72,0,o),
(82,-10,o),
(95,-10,cs)
);
},
{
closed = 1;
nodes = (
(533,-10,o),
(543,0,o),
(543,13,cs),
(543,687,ls),
(543,700,o),
(533,710,o),
(520,710,cs),
(507,710,o),
(497,700,o),
(497,687,cs),
(497,13,ls),
(497,0,o),
(507,-10,o),
(520,-10,cs)
);
},
{
closed = 1;
nodes = (
(505,344,l),
(505,389,l),
(108,389,l),
(108,344,l)
);
}
);
};
layerId = "3D52442A-254C-4C79-B742-A98FD72DF947";
shapes = (
{
closed = 1;
nodes = (
(463,-14,o),
(575,141,o),
(575,350,cs),
(575,559,o),
(463,714,o),
(303,714,cs),
(142,714,o),
(30,559,o),
(30,350,cs),
(30,141,o),
(142,-14,o),
(303,-14,cs)
);
},
{
closed = 1;
nodes = (
(169,32,o),
(76,159,o),
(76,350,cs),
(76,541,o),
(169,668,o),
(303,668,cs),
(436,668,o),
(529,541,o),
(529,350,cs),
(529,159,o),
(436,32,o),
(303,32,cs)
);
}
);
width = 605;
}
);
},
{
color = 3;
glyphname = O.ss02;
lastChange = "2021-07-27 15:57:53 +0000";
layers = (
{
anchors = (
{
name = bottom;
pos = (347,0);
},
{
name = center;
pos = (347,350);
},
{
name = ogonek;
pos = (625,10);
},
{
name = top;
pos = (347,700);
},
{
name = topleft;
pos = (20,700);
},
{
name = topright;
pos = (674,700);
}
);
background = {
shapes = (
{
closed = 1;
nodes = (
(557,179,o),
(481,58,o),
(349,58,cs),
(218,58,o),
(142,179,o),
(142,350,cs),
(142,521,o),
(218,643,o),
(349,643,cs),
(481,643,o),
(557,521,o),
(557,350,cs)
);
},
{
closed = 1;
nodes = (
(634,571,o),
(531,715,o),
(349,715,cs),
(178,715,o),
(60,571,o),
(60,350,cs),
(60,130,o),
(168,-14,o),
(349,-14,cs),
(531,-14,o),
(634,130,o),
(634,350,cs)
);
},
{
closed = 1;
nodes = (
(532,179,o),
(463,61,o),
(341,61,cs),
(220,61,o),
(146,179,o),
(146,350,cs),
(146,521,o),
(220,640,o),
(341,640,cs),
(463,640,o),
(532,521,o),
(532,350,cs)
);
},
{
closed = 1;
nodes = (
(618,571,o),
(513,715,o),
(341,715,cs),
(170,715,o),
(60,571,o),
(60,350,cs),
(60,130,o),
(168,-14,o),
(339,-14,cs),
(511,-14,o),
(618,130,o),
(618,350,cs)
);
}
);
};
layerId = "65988B1E-DCE2-4AC3-A6FF-994A1050067D";
shapes = (
{
closed = 1;
nodes = (
(532,179,o),
(463,61,o),
(341,61,cs),
(220,61,o),
(146,179,o),
(146,350,cs),
(146,521,o),
(220,640,o),
(341,640,cs),
(463,640,o),
(532,521,o),
(532,350,cs)
);
},
{
closed = 1;
nodes = (
(618,571,o),
(513,715,o),
(341,715,cs),
(170,715,o),
(60,571,o),
(60,350,cs),
(60,130,o),
(168,-14,o),
(339,-14,cs),
(511,-14,o),
(618,130,o),
(618,350,cs)
);
}
);
width = 694;
},
{
layerId = "6242D68C-0A25-4F05-8F2A-2075F7C4A210";
width = 600;
},
{
layerId = "3D52442A-254C-4C79-B742-A98FD72DF947";
width = 600;
}
);
},
{
color = 3;
glyphname = Ohorn;
lastChange = "2021-07-27 15:57:53 +0000";
layers = (
{
anchors = (
{
name = bottom;
pos = (344,0);
},
{
name = top;
pos = (344,700);
}
);
layerId = "65988B1E-DCE2-4AC3-A6FF-994A1050067D";
shapes = (
{
closed = 1;
nodes = (
(168,-14,o),
(60,130,o),
(60,350,cs),
(60,571,o),
(178,715,o),
(344,715,cs),
(510,715,o),
(628,571,o),
(628,350,cs),
(628,130,o),
(520,-14,o),
(344,-14,c)
);
},
{
closed = 1;
nodes = (
(218,640,o),
(142,521,o),
(142,350,cs),
(142,179,o),
(218,61,o),
(344,61,cs),
(470,61,o),
(546,179,o),
(546,350,cs),
(546,521,o),
(470,640,o),
(344,640,cs)
);
},
{
closed = 1;
nodes = (
(495,837,o),
(509,851,o),
(533,851,cs),
(553,851,o),
(567,835,o),
(567,813,cs),
(567,743,o),
(500,665,o),
(435,665,cs),
(347,665,l),
(348,715,l),
(387,715,ls),
(447,715,o),
(495,760,o),
(495,813,c)
);
}
);
width = 688;
},
{
anchors = (
{
name = bottom;
pos = (300,0);
},
{
name = top;
pos = (300,700);
}
);
layerId = "6242D68C-0A25-4F05-8F2A-2075F7C4A210";
width = 600;
},
{
anchors = (
{
name = bottom;
pos = (300,0);
},
{
name = top;
pos = (300,700);
}
);
layerId = "3D52442A-254C-4C79-B742-A98FD72DF947";
width = 600;
}
);
unicode = 416;
},
{
color = 3;
glyphname = Ohornacute;
lastChange = "2021-07-27 15:57:53 +0000";
layers = (
{
layerId = "65988B1E-DCE2-4AC3-A6FF-994A1050067D";
shapes = (
{
ref = Ohorn;
},
{
pos = (131,170);
ref = acutecomb.loclVIT;
},
{
closed = 1;
nodes = (
(168,-14,o),
(60,130,o),
(60,350,cs),
(60,571,o),
(178,715,o),
(344,715,cs),
(510,715,o),
(628,571,o),
(628,350,cs),
(628,130,o),
(520,-14,o),
(344,-14,c)
);
},
{
closed = 1;
nodes = (
(218,640,o),
(142,521,o),
(142,350,cs),
(142,179,o),
(218,61,o),
(344,61,cs),
(470,61,o),
(546,179,o),
(546,350,cs),
(546,521,o),
(470,640,o),
(344,640,cs)
);
}
);
width = 600;
},
{
layerId = "6242D68C-0A25-4F05-8F2A-2075F7C4A210";
width = 600;
},
{
layerId = "3D52442A-254C-4C79-B742-A98FD72DF947";
width = 600;
}
);
unicode = 7898;
},
{
color = 3;
glyphname = Oslash;
lastChange = "2021-07-27 15:57:53 +0000";
layers = (
{
layerId = "65988B1E-DCE2-4AC3-A6FF-994A1050067D";
shapes = (
{
closed = 1;
nodes = (
(526,-14,o),
(634,130,o),
(634,350,cs),
(634,571,o),
(516,715,o),
(350,715,cs),
(184,715,o),
(66,571,o),
(66,350,cs),
(66,130,o),
(174,-14,o),
(350,-14,c)
);
},
{
closed = 1;
nodes = (
(224,61,o),
(148,179,o),
(148,350,cs),
(148,521,o),
(224,640,o),
(350,640,cs),
(476,640,o),
(552,521,o),
(552,350,cs),
(552,179,o),
(476,61,o),
(350,61,cs)
);
},
{
attr = {
lineCapEnd = "2";
lineCapStart = "2";
strokeHeight = 68;
strokeWidth = 68;
};
closed = 0;
nodes = (
(624,730,l),
(75,-16,l)
);
}
);
width = 709;
},
{
layerId = "6242D68C-0A25-4F05-8F2A-2075F7C4A210";
width = 600;
},
{
layerId = "3D52442A-254C-4C79-B742-A98FD72DF947";
width = 600;
}
);
unicode = 216;
},
{
glyphname = OE;
lastChange = "2021-07-27 15:57:53 +0000";
layers = (
{
anchors = (
{
name = bottom;
pos = (472,0);
},
{
name = top;
pos = (472,700);
}
);
annotations = (
{
pos = (1101.167,737.687);
text = "place holder";
type = Text;
}
);
layerId = "65988B1E-DCE2-4AC3-A6FF-994A1050067D";
shapes = (
{
closed = 1;
nodes = (
(507,657,l),
(462,695,o),
(406,715,o),
(344,715,cs),
(178,715,o),
(60,571,o),
(60,350,cs),
(60,130,o),
(168,-14,o),
(344,-14,c),
(408,-14,o),
(463,5,o),
(507,40,c),
(507,166,l),
(473,100,o),
(417,61,o),
(344,61,cs),
(218,61,o),
(142,179,o),
(142,350,cs),
(142,521,o),
(218,640,o),
(344,640,cs),
(417,640,o),
(473,600,o),
(507,534,c)
);
},
{
closed = 1;
nodes = (
(876,0,ls),
(897,0,o),
(914,17,o),
(914,38,cs),
(914,59,o),
(897,76,o),
(876,76,cs),
(532,76,l),
(532,0,l)
);
},
{
closed = 1;
nodes = (
(572,0,l),
(572,700,l),
(531,700,l),
(508,700,o),
(490,682,o),
(490,659,cs),
(490,41,ls),
(490,18,o),
(508,0,o),
(531,0,c)
);
},
{
closed = 1;
nodes = (
(828,326,ls),
(849,326,o),
(866,343,o),
(866,364,cs),
(866,385,o),
(849,402,o),
(828,402,cs),
(532,402,l),
(532,326,l)
);
},
{
closed = 1;
nodes = (
(849,624,ls),
(870,624,o),
(887,641,o),
(887,662,cs),
(887,683,o),
(870,700,o),
(849,700,cs),
(532,700,l),
(532,624,l)
);
}
);
width = 944;
},
{
layerId = "6242D68C-0A25-4F05-8F2A-2075F7C4A210";
width = 600;
},
{
layerId = "3D52442A-254C-4C79-B742-A98FD72DF947";
width = 600;
}
);
unicode = 338;
},
{
glyphname = P.001;
lastChange = "2021-07-27 19:28:42 +0000";
layers = (
{
anchors = (
{
name = bottom;
pos = (289,0);
},
{
name = top;
pos = (289,700);
}
);
background = {
shapes = (
{
attr = {
strokeWidth = 2;
};
closed = 0;
nodes = (
(122,661,l),
(122,0,l)
);
},
{
attr = {
strokeWidth = 2;
};
closed = 0;
nodes = (
(119,661,l),
(365,661,ls),
(457,661,o),
(528,586,o),
(528,494,cs),
(528,402,o),
(457,327,o),
(365,327,cs),
(119,327,l)
);
}
);
};
layerId = "65988B1E-DCE2-4AC3-A6FF-994A1050067D";
shapes = (
{
closed = 1;
nodes = (
(144,-10,o),
(162,8,o),
(162,31,cs),
(162,700,l),
(121,700,l),
(98,700,o),
(80,682,o),
(80,659,cs),
(80,31,ls),
(80,8,o),
(98,-10,o),
(121,-10,cs)
);
},
{
closed = 1;
nodes = (
(370,288,ls),
(475,288,o),
(559,375,o),
(559,494,cs),
(559,613,o),
(472,700,o),
(353,700,cs),
(117,700,l),
(117,622,l),
(353,622,ls),
(429,622,o),
(478,570,o),
(478,494,cs),
(478,418,o),
(429,366,o),
(353,366,cs),
(117,366,l),
(117,288,l)
);
}
);
width = 594;
},
{
anchors = (
{
name = bottom;
pos = (313,0);
},
{
name = top;
pos = (313,700);
}
);
background = {
shapes = (
{
attr = {
strokeWidth = 2;
};
closed = 0;
nodes = (
(208,618,l),
(389,618,ls),
(463,618,o),
(522,559,o),
(522,485,c),
(522,413,o),
(463,353,o),
(389,353,cs),
(208,353,l)
);
}
);
};
layerId = "6242D68C-0A25-4F05-8F2A-2075F7C4A210";
shapes = (
{
closed = 1;
nodes = (
(204,-10,o),
(240,26,o),
(240,70,cs),
(240,700,l),
(160,700,ls),
(116,700,o),
(80,664,o),
(80,620,cs),
(80,70,ls),
(80,26,o),
(116,-10,o),
(160,-10,cs)
);
},
{
closed = 1;
nodes = (
(378,255,ls),
(498,255,o),
(598,343,o),
(598,477,cs),
(598,610,o),
(499,700,o),
(366,700,cs),
(208,700,l),
(208,550,l),
(362,550,ls),
(402,550,o),
(438,522,o),
(438,474,cs),
(438,438,o),
(417,405,o),
(370,405,cs),
(208,405,l),
(208,255,l)
);
}
);
width = 638;
},
{
associatedMasterId = "65988B1E-DCE2-4AC3-A6FF-994A1050067D";
layerId = "FF928B60-4C43-4C0D-9A84-DE6DF17FABA0";
name = "Original Skeleton";
shapes = (
{
attr = {
strokeWidth = 2;
};
closed = 0;
nodes = (
(103,695,l),
(103,0,l)
);
},
{
attr = {
strokeWidth = 2;
};
closed = 0;
nodes = (
(100,695,l),
(370,695,ls),
(471,695,o),
(553,613,o),
(553,512,c),
(553,411,o),
(471,328,o),
(370,328,cs),
(100,328,l)
);
}
);
width = 608;
},
{
anchors = (
{
name = bottom;
pos = (259,0);
},
{
name = top;
pos = (256,700);
}
);
background = {
shapes = (
{
attr = {
strokeWidth = 2;
};
closed = 0;
nodes = (
(101,677,l),
(336,677,ls),
(432,677,o),
(509,599,o),
(509,503,c),
(509,408,o),
(432,329,o),
(336,329,cs),
(101,329,l)
);
}
);
};
layerId = "3D52442A-254C-4C79-B742-A98FD72DF947";
shapes = (
{
closed = 1;
nodes = (
(111,-10,o),
(121,0,o),
(121,13,cs),
(121,700,l),
(98,700,ls),
(85,700,o),
(75,690,o),
(75,677,cs),
(75,13,ls),
(75,0,o),
(85,-10,o),
(98,-10,cs)
);
},
{
closed = 1;
nodes = (
(320,306,ls),
(436,306,o),
(523,396,o),
(523,503,cs),
(523,611,o),
(436,700,o),
(327,700,cs),
(113,700,l),
(113,654,l),
(327,654,ls),
(413,654,o),
(477,590,o),
(477,503,cs),
(477,417,o),
(413,352,o),
(320,352,cs),
(113,352,l),
(113,306,l)
);
}
);
width = 563;
}
);
},
{
glyphname = P.ss02;
lastChange = "2021-07-27 15:57:53 +0000";
layers = (
{
layerId = "65988B1E-DCE2-4AC3-A6FF-994A1050067D";
shapes = (
{
closed = 1;
nodes = (
(162,700,l),
(121,700,l),
(98,700,o),
(80,682,o),
(80,659,cs),
(80,36,ls),
(80,13,o),
(98,-5,o),
(121,-5,cs),
(144,-5,o),
(162,13,o),
(162,36,cs)
);
},
{
closed = 1;
nodes = (
(384,288,ls),
(489,288,o),
(573,375,o),
(573,494,cs),
(573,613,o),
(486,700,o),
(367,700,cs),
(121,700,ls),
(99,700,o),
(82,683,o),
(82,661,cs),
(82,639,o),
(99,622,o),
(121,622,cs),
(367,622,ls),
(443,622,o),
(492,570,o),
(492,494,cs),
(492,418,o),
(443,366,o),
(367,366,cs),
(121,366,ls),
(99,366,o),
(82,349,o),
(82,327,cs),
(82,305,o),
(99,288,o),
(121,288,cs)
);
}
);
width = 618;
},
{
layerId = "6242D68C-0A25-4F05-8F2A-2075F7C4A210";
width = 600;
},
{
layerId = "3D52442A-254C-4C79-B742-A98FD72DF947";
width = 600;
}
);
},
{
color = 1;
glyphname = Thorn;
lastChange = "2021-07-27 15:57:53 +0000";
layers = (
{
layerId = "65988B1E-DCE2-4AC3-A6FF-994A1050067D";
shapes = (
{
closed = 1;
nodes = (
(374,183,ls),
(479,183,o),
(563,270,o),
(563,389,cs),
(563,508,o),
(476,595,o),
(357,595,cs),
(121,595,l),
(121,517,l),
(357,517,ls),
(433,517,o),
(482,465,o),
(482,389,cs),
(482,313,o),
(433,261,o),
(357,261,cs),
(121,261,l),
(121,183,l)
);
},
{
closed = 1;
nodes = (
(162,696,o),
(144,714,o),
(121,714,cs),
(98,714,o),
(80,696,o),
(80,673,cs),
(80,36,ls),
(80,13,o),
(98,-5,o),
(121,-5,cs),
(144,-5,o),
(162,13,o),
(162,36,cs),
(162,673,ls)
);
}
);
width = 600;
},
{
layerId = "6242D68C-0A25-4F05-8F2A-2075F7C4A210";
width = 600;
},
{
layerId = "3D52442A-254C-4C79-B742-A98FD72DF947";
width = 600;
}
);
unicode = 222;
},
{
glyphname = Q;
lastChange = "2021-07-27 15:57:53 +0000";
layers = (
{
layerId = "65988B1E-DCE2-4AC3-A6FF-994A1050067D";
shapes = (
{
closed = 1;
nodes = (
(557,179,o),
(481,58,o),
(349,58,cs),
(218,58,o),
(142,179,o),
(142,350,cs),
(142,521,o),
(218,643,o),
(349,643,cs),
(481,643,o),
(557,521,o),
(557,350,cs)
);
},
{
closed = 1;
nodes = (
(634,571,o),
(531,715,o),
(349,715,cs),
(178,715,o),
(60,571,o),
(60,350,cs),
(60,130,o),
(168,-14,o),
(349,-14,cs),
(531,-14,o),
(634,130,o),
(634,350,cs)
);
},
{
closed = 1;
nodes = (
(594,63,o),
(598,56,o),
(584,56,cs),
(553,56,o),
(531,93,o),
(504,140,cs),
(477,187,o),
(454,228,o),
(409,228,cs),
(385,228,o),
(363,215,o),
(363,189,cs),
(363,166,o),
(382,150,o),
(406,150,cs),
(422,150,o),
(422,138,o),
(442,101,cs),
(478,39,o),
(513,-20,o),
(584,-20,cs),
(607,-20,o),
(649,-11,o),
(649,24,cs),
(649,45,o),
(632,63,o),
(610,63,cs)
);
}
);
width = 686;
},
{
layerId = "6242D68C-0A25-4F05-8F2A-2075F7C4A210";
width = 600;
},
{
associatedMasterId = "65988B1E-DCE2-4AC3-A6FF-994A1050067D";
layerId = "27F38D1B-16BD-4F5D-B92C-4976454E9181";
name = "Original Skeleton";
shapes = (
{
attr = {
strokeWidth = 2;
};
closed = 1;
nodes = (
(579,155,o),
(463,-3,o),
(320,-3,cs),
(177,-3,o),
(61,155,o),
(61,350,cs),
(61,545,o),
(177,703,o),
(320,703,cs),
(463,703,o),
(579,545,o),
(579,350,c)
);
},
{
attr = {
strokeWidth = 2;
};
closed = 0;
nodes = (
(314,126,l),
(314,126,o),
(336,139,o),
(358,139,cs),
(419,139,o),
(445,-47,o),
(550,-47,cs),
(579,-47,o),
(612,-24,o),
(612,-24,c)
);
}
);
width = 686;
},
{
layerId = "3D52442A-254C-4C79-B742-A98FD72DF947";
width = 600;
}
);
unicode = 81;
},
{
color = 3;
glyphname = R.001;
lastChange = "2021-07-27 19:28:42 +0000";
layers = (
{
anchors = (
{
name = bottom;
pos = (316,0);
},
{
name = top;
pos = (320,700);
}
);
background = {
shapes = (
{
attr = {
strokeWidth = 2;
};
closed = 0;
nodes = (
(122,669,l),
(122,0,l)
);
},
{
attr = {
strokeWidth = 2;
};
closed = 0;
nodes = (
(127,370,l),
(368,370,ls),
(471,370,o),
(531,424,o),
(531,517,cs),
(531,602,o),
(463,664,o),
(368,664,cs),
(127,664,l)
);
},
{
attr = {
strokeWidth = 2;
};
closed = 0;
nodes = (
(376,370,l),
(554,4,l)
);
}
);
};
layerId = "65988B1E-DCE2-4AC3-A6FF-994A1050067D";
shapes = (
{
closed = 1;
nodes = (
(144,-10,o),
(162,8,o),
(162,31,cs),
(162,700,l),
(121,700,ls),
(98,700,o),
(80,682,o),
(80,659,cs),
(80,31,ls),
(80,8,o),
(98,-10,o),
(121,-10,cs)
);
},
{
closed = 1;
nodes = (
(374,328,ls),
(484,328,o),
(570,404,o),
(570,513,cs),
(570,623,o),
(483,700,o),
(367,700,cs),
(121,700,l),
(121,622,l),
(373,622,ls),
(442,622,o),
(489,578,o),
(489,513,cs),
(489,450,o),
(446,406,o),
(382,406,cs),
(125,406,l),
(125,328,l)
);
},
{
closed = 1;
nodes = (
(561,-10,o),
(579,9,o),
(579,31,cs),
(579,38,o),
(578,44,o),
(575,49,cs),
(427,354,l),
(341,354,l),
(502,13,ls),
(509,-1,o),
(523,-10,o),
(538,-10,cs)
);
}
);
width = 624;
},
{
anchors = (
{
name = bottom;
pos = (354,0);
},
{
name = top;
pos = (333,700);
}
);
background = {
shapes = (
{
attr = {
strokeWidth = 2;
};
closed = 0;
nodes = (
(176,669,l),
(176,0,l)
);
},
{
attr = {
strokeWidth = 2;
};
closed = 0;
nodes = (
(118,340,l),
(359,340,ls),
(462,340,o),
(522,394,o),
(522,487,cs),
(522,572,o),
(454,634,o),
(359,634,cs),
(118,634,l)
);
},
{
attr = {
strokeWidth = 2;
};
closed = 0;
nodes = (
(383,370,l),
(561,4,l)
);
}
);
};
layerId = "6242D68C-0A25-4F05-8F2A-2075F7C4A210";
shapes = (
{
closed = 1;
nodes = (
(204,-10,o),
(240,26,o),
(240,70,cs),
(240,700,l),
(160,700,ls),
(116,700,o),
(80,664,o),
(80,620,cs),
(80,70,ls),
(80,26,o),
(116,-10,o),
(160,-10,cs)
);
},
{
closed = 1;
nodes = (
(378,255,ls),
(498,255,o),
(598,343,o),
(598,477,cs),
(598,610,o),
(499,700,o),
(366,700,cs),
(208,700,l),
(208,550,l),
(362,550,ls),
(402,550,o),
(438,522,o),
(438,474,cs),
(438,438,o),
(417,405,o),
(370,405,cs),
(208,405,l),
(208,255,l)
);
},
{
closed = 1;
nodes = (
(583,-10,o),
(616,23,o),
(616,65,cs),
(616,77,o),
(614,89,o),
(608,99,c),
(489,343,l),
(356,275,l),
(475,31,ls),
(487,6,o),
(512,-10,o),
(541,-10,cs)
);
}
);
width = 661;
},
{
anchors = (
{
name = bottom;
pos = (306,0);
},
{
name = top;
pos = (286,700);
}
);
associatedMasterId = "65988B1E-DCE2-4AC3-A6FF-994A1050067D";
layerId = "33E71FD4-A49D-4C41-A08E-663ADCB07C2F";
name = "Original Skeleton";
shapes = (
{
attr = {
strokeWidth = 2;
};
closed = 0;
nodes = (
(101,700,l),
(101,0,l)
);
},
{
attr = {
strokeWidth = 2;
};
closed = 0;
nodes = (
(105,372,l),
(405,372,ls),
(494,372,o),
(567,444,o),
(567,533,c),
(567,623,o),
(494,695,o),
(405,695,cs),
(105,695,l)
);
},
{
attr = {
strokeWidth = 2;
};
closed = 0;
nodes = (
(389,372,l),
(571,0,l)
);
}
);
width = 631;
},
{
anchors = (
{
name = bottom;
pos = (293,0);
},
{
name = top;
pos = (259,700);
}
);
background = {
shapes = (
{
attr = {
strokeWidth = 2;
};
closed = 0;
nodes = (
(98,682,l),
(98,0,l)
);
},
{
attr = {
strokeWidth = 2;
};
closed = 0;
nodes = (
(112,352,l),
(326,352,ls),
(440,352,o),
(508,411,o),
(508,509,cs),
(508,610,o),
(432,678,o),
(326,678,cs),
(112,678,l)
);
},
{
attr = {
strokeWidth = 2;
};
closed = 0;
nodes = (
(351,376,l),
(533,1,l)
);
}
);
};
layerId = "3D52442A-254C-4C79-B742-A98FD72DF947";
shapes = (
{
closed = 1;
nodes = (
(111,-10,o),
(121,0,o),
(121,13,cs),
(121,700,l),
(98,700,ls),
(85,700,o),
(75,690,o),
(75,677,cs),
(75,13,ls),
(75,0,o),
(85,-10,o),
(98,-10,cs)
);
},
{
closed = 1;
nodes = (
(326,328,ls),
(452,328,o),
(531,396,o),
(531,508,cs),
(531,622,o),
(444,700,o),
(326,700,cs),
(112,700,l),
(112,654,l),
(326,654,ls),
(423,654,o),
(485,599,o),
(485,508,cs),
(485,420,o),
(431,374,o),
(326,374,cs),
(112,374,l),
(112,328,l)
);
},
{
closed = 1;
nodes = (
(538,-10,o),
(547,0,o),
(547,12,cs),
(547,15,o),
(546,19,o),
(545,22,cs),
(384,358,l),
(337,355,l),
(506,2,ls),
(509,-5,o),
(517,-10,o),
(525,-10,cs)
);
}
);
width = 592;
}
);
},
{
glyphname = S;
lastChange = "2021-07-27 15:57:53 +0000";
layers = (
{
anchors = (
{
name = bottom;
pos = (298,0);
},
{
name = top;
pos = (298,700);
}
);
layerId = "65988B1E-DCE2-4AC3-A6FF-994A1050067D";
shapes = (
{
closed = 1;
nodes = (
(45,193,ls),
(45,131,o),
(92,-15,o),
(312,-15,cs),
(457,-15,o),
(551,65,o),
(551,188,cs),
(551,309,o),
(477,363,o),
(310,403,cs),
(219,425,o),
(156,435,o),
(156,517,cs),
(156,569,o),
(190,633,o),
(296,633,cs),
(401,633,o),
(438,582,o),
(448,526,cs),
(451,507,o),
(468,492,o),
(488,492,cs),
(513,492,o),
(533,515,o),
(528,540,cs),
(514,621,o),
(446,710,o),
(296,710,cs),
(138,710,o),
(74,598,o),
(74,517,cs),
(74,365,o),
(214,341,o),
(295,322,cs),
(427,291,o),
(469,265,o),
(469,186,cs),
(469,112,o),
(407,62,o),
(312,62,cs),
(151,62,o),
(127,152,o),
(127,193,cs),
(127,199,ls),
(127,222,o),
(109,240,o),
(86,240,cs),
(63,240,o),
(45,222,o),
(45,199,cs)
);
}
);
width = 596;
},
{
layerId = "6242D68C-0A25-4F05-8F2A-2075F7C4A210";
width = 600;
},
{
anchors = (
{
name = bottom;
pos = (298,0);
},
{
name = top;
pos = (298,700);
}
);
associatedMasterId = "65988B1E-DCE2-4AC3-A6FF-994A1050067D";
layerId = "3F6CB26F-4A18-4307-8FF9-9909AF03C760";
name = "Original Skeleton";
shapes = (
{
attr = {
strokeWidth = 2;
};
closed = 0;
nodes = (
(509,551,l),
(509,551,o),
(493,702,o),
(296,702,cs),
(129,702,o),
(71,604,o),
(71,533,cs),
(71,270,o),
(545,454,o),
(545,174,cs),
(545,100,o),
(497,-8,o),
(314,-8,cs),
(99,-8,o),
(60,128,o),
(61,179,c),
(61,186,l)
);
}
);
width = 596;
},
{
layerId = "3D52442A-254C-4C79-B742-A98FD72DF947";
width = 600;
}
);
unicode = 83;
},
{
glyphname = S.ss02;
lastChange = "2021-07-27 15:57:53 +0000";
layers = (
{
anchors = (
{
name = bottom;
pos = (292,0);
},
{
name = top;
pos = (292,700);
}
);
background = {
shapes = (
{
closed = 1;
nodes = (
(45,117,o),
(100,-15,o),
(297,-15,cs),
(453,-15,o),
(539,59,o),
(539,191,cs),
(539,298,o),
(490,348,o),
(303,395,cs),
(183,425,o),
(140,450,o),
(140,519,cs),
(140,601,o),
(198,638,o),
(276,638,cs),
(399,638,o),
(440,570,o),
(447,519,cs),
(449,502,o),
(468,483,o),
(490,483,cs),
(513,483,o),
(530,509,o),
(526,531,cs),
(511,617,o),
(448,715,o),
(299,715,cs),
(159,715,o),
(57,652,o),
(57,526,cs),
(57,403,o),
(116,358,o),
(282,318,cs),
(420,285,o),
(456,251,o),
(456,183,cs),
(456,103,o),
(406,62,o),
(297,62,cs),
(170,62,o),
(125,130,o),
(125,203,cs),
(125,223,o),
(108,246,o),
(84,246,cs),
(64,246,o),
(45,223,o),
(45,203,cs)
);
}
);
};
layerId = "65988B1E-DCE2-4AC3-A6FF-994A1050067D";
shapes = (
{
closed = 1;
nodes = (
(45,77,o),
(151,-15,o),
(297,-15,cs),
(437,-15,o),
(539,72,o),
(539,191,cs),
(539,330,o),
(440,360,o),
(303,395,cs),
(183,425,o),
(140,458,o),
(140,519,cs),
(140,588,o),
(197,638,o),
(276,638,cs),
(374,638,o),
(437,594,o),
(447,519,cs),
(450,498,o),
(468,483,o),
(490,483,cs),
(516,483,o),
(532,503,o),
(526,531,cs),
(508,638,o),
(412,715,o),
(299,715,cs),
(159,715,o),
(57,636,o),
(57,526,cs),
(57,412,o),
(116,358,o),
(282,318,cs),
(383,293,o),
(456,282,o),
(456,183,cs),
(456,113,o),
(389,62,o),
(297,62,cs),
(197,62,o),
(125,121,o),
(125,203,cs),
(125,228,o),
(108,246,o),
(84,246,cs),
(61,246,o),
(45,228,o),
(45,203,cs)
);
}
);
width = 584;
},
{
layerId = "6242D68C-0A25-4F05-8F2A-2075F7C4A210";
width = 600;
},
{
layerId = "3D52442A-254C-4C79-B742-A98FD72DF947";
width = 600;
}
);
},
{
color = 1;
glyphname = Germandbls;
lastChange = "2021-07-27 15:57:53 +0000";
layers = (
{
background = {
shapes = (
{
pos = (17,0);
ref = germandbls.ss03;
}
);
};
layerId = "65988B1E-DCE2-4AC3-A6FF-994A1050067D";
shapes = (
{
closed = 1;
nodes = (
(167,59,ls),
(167,19,o),
(142,-5,o),
(110,-5,cs),
(97,-5,ls),
(64,-5,o),
(45,12,o),
(45,35,cs),
(45,56,o),
(61,75,o),
(80,75,cs),
(87,75,o),
(87,85,o),
(87,104,cs),
(87,534,ls),
(87,657,o),
(154,721,o),
(282,721,cs),
(397,721,o),
(455,635,o),
(455,570,cs),
(455,491,o),
(407,450,o),
(376,422,cs),
(352,401,o),
(336,389,o),
(336,365,cs),
(336,336,o),
(372,311,o),
(422,286,cs),
(474,260,o),
(544,224,o),
(544,133,cs),
(544,51,o),
(490,-17,o),
(376,-17,cs),
(297,-17,o),
(257,-1,o),
(232,19,cs),
(224,27,o),
(218,38,o),
(218,50,cs),
(218,72,o),
(236,89,o),
(255,89,cs),
(268,89,o),
(275,86,o),
(284,81,cs),
(289,78,o),
(314,63,o),
(376,63,cs),
(444,63,o),
(464,94,o),
(464,133,cs),
(464,175,o),
(434,191,o),
(382,216,cs),
(313,249,o),
(256,291,o),
(256,365,cs),
(256,423,o),
(291,454,o),
(322,482,cs),
(353,509,o),
(375,528,o),
(375,570,cs),
(375,599,o),
(341,641,o),
(275,641,cs),
(204,641,o),
(167,604,o),
(167,534,cs),
(167,114,l)
);
}
);
width = 600;
},
{
layerId = "6242D68C-0A25-4F05-8F2A-2075F7C4A210";
width = 600;
},
{
layerId = "3D52442A-254C-4C79-B742-A98FD72DF947";
width = 600;
}
);
unicode = 7838;
},
{
color = 1;
glyphname = Germandbls.ss02;
lastChange = "2021-07-27 15:57:53 +0000";
layers = (
{
background = {
shapes = (
{
ref = S;
}
);
};
layerId = "65988B1E-DCE2-4AC3-A6FF-994A1050067D";
shapes = (
{
closed = 1;
nodes = (
(343,410,l),
(503.921,629.787,ls),
(526,660,o),
(502.337,700,o),
(466,700,cs),
(110,700,ls),
(85,700,o),
(65,680,o),
(65,655,cs),
(65,35,ls),
(65,13,o),
(84,-5,o),
(106,-5,cs),
(129,-5,o),
(147,13,o),
(147,35,cs),
(147,655,l),
(110,624,l),
(466,624,l),
(420,651,l),
(276,453,ls),
(248,414,o),
(258,384,o),
(305,368,cs),
(397,337,o),
(472,287,o),
(472,188,cs),
(472,107,o),
(422,63,o),
(352,63,cs),
(306,63,o),
(264,82,o),
(249,90,cs),
(244,92,o),
(237,94,o),
(231,94,cs),
(209,94,o),
(192,76,o),
(192,54,cs),
(192,38,o),
(200,25,o),
(213,18,cs),
(231,9,o),
(293,-17,o),
(358,-17,cs),
(484,-17,o),
(554,80,o),
(554,196,cs),
(554,313,o),
(467,394,o),
(334,444,c)
);
}
);
width = 600;
},
{
layerId = "6242D68C-0A25-4F05-8F2A-2075F7C4A210";
width = 600;
},
{
layerId = "3D52442A-254C-4C79-B742-A98FD72DF947";
width = 600;
}
);
},
{
color = 1;
glyphname = Germandbls.ss03;
lastChange = "2021-07-27 15:57:53 +0000";
layers = (
{
background = {
shapes = (
{
ref = S;
}
);
};
layerId = "65988B1E-DCE2-4AC3-A6FF-994A1050067D";
shapes = (
{
closed = 1;
nodes = (
(486,624,l),
(440,651,l),
(276,463,ls),
(245,427,o),
(258,394,o),
(305,378,cs),
(397,347,o),
(472,317,o),
(472,188,cs),
(472,107,o),
(422,63,o),
(352,63,cs),
(306,63,o),
(264,82,o),
(249,90,cs),
(244,92,o),
(237,94,o),
(231,94,cs),
(209,94,o),
(192,76,o),
(192,54,cs),
(192,38,o),
(200,25,o),
(213,18,cs),
(231,9,o),
(293,-17,o),
(358,-17,cs),
(484,-17,o),
(554,80,o),
(554,196,cs),
(554,343,o),
(467,404,o),
(334,454,c),
(343,420,l),
(524,630,ls),
(549,659,o),
(522,700,o),
(486,700,cs),
(310,700,ls),
(167,700,o),
(65,586,o),
(65,395,cs),
(65,35,ls),
(65,13,o),
(84,-5,o),
(106,-5,cs),
(129,-5,o),
(147,13,o),
(147,35,cs),
(147,344,ls),
(147,517,o),
(194,624,o),
(317,624,cs)
);
}
);
width = 600;
},
{
layerId = "6242D68C-0A25-4F05-8F2A-2075F7C4A210";
width = 600;
},
{
layerId = "3D52442A-254C-4C79-B742-A98FD72DF947";
width = 600;
}
);
},
{
color = 1;
glyphname = Germandbls.ss04;
lastChange = "2021-07-27 15:57:53 +0000";
layers = (
{
background = {
shapes = (
{
pos = (17,0);
ref = germandbls.ss03;
}
);
};
layerId = "65988B1E-DCE2-4AC3-A6FF-994A1050067D";
shapes = (
{
closed = 1;
nodes = (
(167,534,ls),
(167,604,o),
(204,641,o),
(275,641,cs),
(341,641,o),
(375,599,o),
(375,570,cs),
(375,528,o),
(353,509,o),
(322,482,cs),
(291,454,o),
(256,423,o),
(256,365,cs),
(256,291,o),
(313,249,o),
(382,216,cs),
(434,191,o),
(464,175,o),
(464,133,cs),
(464,94,o),
(444,63,o),
(376,63,cs),
(314,63,o),
(289,78,o),
(284,81,cs),
(275,86,o),
(268,89,o),
(255,89,cs),
(236,89,o),
(218,72,o),
(218,50,cs),
(218,38,o),
(224,27,o),
(232,19,cs),
(257,-1,o),
(297,-17,o),
(376,-17,cs),
(490,-17,o),
(544,51,o),
(544,133,cs),
(544,224,o),
(474,260,o),
(422,286,cs),
(372,311,o),
(336,336,o),
(336,365,cs),
(336,389,o),
(352,401,o),
(376,422,cs),
(407,450,o),
(455,491,o),
(455,570,cs),
(455,635,o),
(397,721,o),
(282,721,cs),
(154,721,o),
(85,657,o),
(85,534,cs),
(85,36,ls),
(85,13,o),
(103,-5,o),
(126,-5,cs),
(149,-5,o),
(167,13,o),
(167,36,cs)
);
}
);
width = 600;
},
{
layerId = "6242D68C-0A25-4F05-8F2A-2075F7C4A210";
width = 600;
},
{
layerId = "3D52442A-254C-4C79-B742-A98FD72DF947";
width = 600;
}
);
},
{
glyphname = Schwa;
lastChange = "2021-07-27 15:57:53 +0000";
layers = (
{
background = {
shapes = (
{
alignment = -1;
angle = 180;
pos = (704,-104);
ref = e;
scale = (1.3402,1.3402);
},
{
pos = (-4,0);
ref = O;
}
);
};
layerId = "65988B1E-DCE2-4AC3-A6FF-994A1050067D";
shapes = (
{
attr = {
lineCapEnd = "1";
lineCapStart = "1";
strokeHeight = 80;
strokeWidth = 80;
};
closed = 0;
nodes = (
(578,344,l),
(121,344,ls),
(109,344,o),
(100,336,o),
(100,324,cs),
(98,198,o),
(154,25,o),
(350,25,cs),
(502,25,o),
(581,164,o),
(581,361,cs),
(581,400,o),
(565,675,o),
(339,675,cs),
(230,675,o),
(159,603,o),
(130,530,c)
);
}
);
width = 681;
},
{
layerId = "6242D68C-0A25-4F05-8F2A-2075F7C4A210";
width = 600;
},
{
layerId = "3D52442A-254C-4C79-B742-A98FD72DF947";
width = 600;
}
);
metricLeft = "=O";
metricRight = "=O";
unicode = 399;
},
{
glyphname = T;
lastChange = "2021-07-27 15:57:53 +0000";
layers = (
{
anchors = (
{
name = bottom;
pos = (287,5);
},
{
name = center;
pos = (281,350);
},
{
name = top;
pos = (281,700);
}
);
layerId = "65988B1E-DCE2-4AC3-A6FF-994A1050067D";
shapes = (
{
closed = 1;
nodes = (
(516,624,o),
(533,641,o),
(533,662,cs),
(533,683,o),
(516,700,o),
(495,700,cs),
(66,700,ls),
(45,700,o),
(28,683,o),
(28,662,cs),
(28,641,o),
(45,624,o),
(66,624,cs),
(242,624,l),
(242,36,ls),
(242,13,o),
(260,-5,o),
(283,-5,cs),
(306,-5,o),
(324,13,o),
(324,36,cs),
(324,624,l),
(495,624,ls)
);
}
);
width = 561;
},
{
layerId = "6242D68C-0A25-4F05-8F2A-2075F7C4A210";
width = 600;
},
{
anchors = (
{
name = bottom;
pos = (287,5);
},
{
name = center;
pos = (281,350);
},
{
name = top;
pos = (281,700);
}
);
associatedMasterId = "65988B1E-DCE2-4AC3-A6FF-994A1050067D";
layerId = "6E86210C-A69E-4F36-A5A0-9655F057588C";
name = "Original Skeleton";
shapes = (
{
attr = {
strokeWidth = 2;
};
closed = 0;
nodes = (
(317,700,l),
(317,0,l)
);
},
{
attr = {
strokeWidth = 2;
};
closed = 0;
nodes = (
(60,696,l),
(566,696,l)
);
}
);
width = 561;
},
{
layerId = "3D52442A-254C-4C79-B742-A98FD72DF947";
width = 600;
}
);
unicode = 84;
},
{
glyphname = Tbar;
lastChange = "2021-07-27 15:57:53 +0000";
layers = (
{
layerId = "65988B1E-DCE2-4AC3-A6FF-994A1050067D";
shapes = (
{
ref = T;
},
{
attr = {
lineCapEnd = "2";
lineCapStart = "2";
strokeHeight = 78;
strokeWidth = 78;
};
closed = 0;
nodes = (
(113,370,l),
(448,370,l)
);
}
);
width = 561;
},
{
layerId = "6242D68C-0A25-4F05-8F2A-2075F7C4A210";
width = 600;
},
{
layerId = "3D52442A-254C-4C79-B742-A98FD72DF947";
width = 600;
}
);
unicode = 358;
},
{
color = 3;
glyphname = U;
lastChange = "2021-07-27 15:57:53 +0000";
layers = (
{
anchors = (
{
name = bottom;
pos = (325,0);
},
{
name = ogonek;
pos = (421,48);
},
{
name = top;
pos = (325,700);
},
{
name = topright;
pos = (630,700);
}
);
background = {
shapes = (
{
closed = 1;
nodes = (
(227,63,o),
(157,136,o),
(157,236,cs),
(157,664,ls),
(157,687,o),
(139,705,o),
(116,705,cs),
(93,705,o),
(75,687,o),
(75,664,cs),
(75,236,ls),
(75,93,o),
(182,-14,o),
(325,-14,cs),
(468,-14,o),
(575,93,o),
(575,236,cs),
(575,664,ls),
(575,687,o),
(557,705,o),
(534,705,cs),
(511,705,o),
(493,687,o),
(493,664,cs),
(493,236,ls),
(493,136,o),
(423,63,o),
(325,63,cs)
);
}
);
};
layerId = "65988B1E-DCE2-4AC3-A6FF-994A1050067D";
shapes = (
{
closed = 1;
nodes = (
(227,63,o),
(157,137,o),
(157,236,cs),
(157,664,ls),
(157,687,o),
(139,705,o),
(116,705,cs),
(93,705,o),
(75,687,o),
(75,664,cs),
(75,236,ls),
(75,93,o),
(179,-14,o),
(325,-14,cs),
(471,-14,o),
(575,93,o),
(575,236,cs),
(575,664,ls),
(575,687,o),
(557,705,o),
(534,705,cs),
(511,705,o),
(493,687,o),
(493,664,cs),
(493,236,ls),
(493,137,o),
(423,63,o),
(325,63,cs)
);
}
);
width = 650;
},
{
layerId = "6242D68C-0A25-4F05-8F2A-2075F7C4A210";
width = 600;
},
{
anchors = (
{
name = bottom;
pos = (325,0);
},
{
name = ogonek;
pos = (421,48);
},
{
name = top;
pos = (325,700);
},
{
name = topright;
pos = (630,700);
}
);
associatedMasterId = "65988B1E-DCE2-4AC3-A6FF-994A1050067D";
background = {
shapes = (
{
closed = 1;
nodes = (
(227,63,o),
(157,136,o),
(157,236,cs),
(157,664,ls),
(157,687,o),
(139,705,o),
(116,705,cs),
(93,705,o),
(75,687,o),
(75,664,cs),
(75,236,ls),
(75,93,o),
(182,-14,o),
(325,-14,cs),
(468,-14,o),
(575,93,o),
(575,236,cs),
(575,664,ls),
(575,687,o),
(557,705,o),
(534,705,cs),
(511,705,o),
(493,687,o),
(493,664,cs),
(493,236,ls),
(493,136,o),
(423,63,o),
(325,63,cs)
);
}
);
};
layerId = "8A38E9A9-A31C-446A-AE0A-0F3779135D39";
name = "Original Skeleton";
shapes = (
{
attr = {
strokeWidth = 2;
};
closed = 0;
nodes = (
(101,700,l),
(101,225,ls),
(101,96,o),
(205,-8,o),
(333,-8,cs),
(461,-8,o),
(565,96,o),
(565,225,cs),
(565,700,l)
);
}
);
width = 650;
},
{
layerId = "3D52442A-254C-4C79-B742-A98FD72DF947";
width = 600;
}
);
unicode = 85;
},
{
color = 3;
glyphname = Uhorn;
lastChange = "2021-07-27 15:57:53 +0000";
layers = (
{
anchors = (
{
name = bottom;
pos = (330,0);
},
{
name = top;
pos = (330,700);
}
);
background = {
shapes = (
{
closed = 1;
nodes = (
(586,653,l),
(651,653,o),
(718,731,o),
(718,801,cs),
(718,823,o),
(704,839,o),
(684,839,cs),
(660,839,o),
(646,825,o),
(646,801,c),
(646,748,o),
(598,703,o),
(538,703,cs),
(499,703,l),
(498,653,l)
);
}
);
};
layerId = "65988B1E-DCE2-4AC3-A6FF-994A1050067D";
shapes = (
{
closed = 1;
nodes = (
(471,-14,o),
(575,93,o),
(575,236,cs),
(575,662,ls),
(575,685,o),
(557,703,o),
(534,703,cs),
(511,703,o),
(493,685,o),
(493,662,cs),
(493,236,ls),
(493,137,o),
(423,63,o),
(325,63,cs),
(227,63,o),
(157,137,o),
(157,236,cs),
(157,664,ls),
(157,687,o),
(139,705,o),
(116,705,cs),
(93,705,o),
(75,687,o),
(75,664,cs),
(75,236,ls),
(75,93,o),
(179,-14,o),
(325,-14,cs)
);
},
{
closed = 1;
nodes = (
(575,653,ls),
(651,653,o),
(718,731,o),
(718,801,cs),
(718,823,o),
(704,839,o),
(684,839,cs),
(660,839,o),
(646,825,o),
(646,801,c),
(646,748,o),
(598,703,o),
(538,703,cs),
(536,703,l),
(536,653,l)
);
}
);
width = 600;
},
{
layerId = "6242D68C-0A25-4F05-8F2A-2075F7C4A210";
width = 600;
},
{
layerId = "3D52442A-254C-4C79-B742-A98FD72DF947";
width = 600;
}
);
unicode = 431;
},
{
glyphname = V;
lastChange = "2021-07-27 15:57:53 +0000";
layers = (
{
layerId = "65988B1E-DCE2-4AC3-A6FF-994A1050067D";
shapes = (
{
closed = 1;
nodes = (
(312,85,l),
(108,689,ls),
(103,704,o),
(88,715,o),
(71,715,cs),
(49,715,o),
(30,698,o),
(30,676,cs),
(30,671,o),
(31,667,o),
(32,663,cs),
(248,31,ls),
(259,0,o),
(278,-15,o),
(297,-15,cs),
(316,-15,o),
(335,0,o),
(346,31,cs),
(562,663,ls),
(563,667,o),
(564,671,o),
(564,676,cs),
(564,698,o),
(545,715,o),
(523,715,cs),
(506,715,o),
(491,704,o),
(486,689,cs),
(282,85,l)
);
}
);
width = 594;
},
{
layerId = "6242D68C-0A25-4F05-8F2A-2075F7C4A210";
width = 600;
},
{
associatedMasterId = "65988B1E-DCE2-4AC3-A6FF-994A1050067D";
layerId = "0A9E1E22-35A9-43A2-A132-2A1C7405E87E";
name = "Original Skeleton";
shapes = (
{
attr = {
strokeWidth = 2;
};
closed = 0;
nodes = (
(41,700,l),
(292,0,l),
(559,700,l)
);
}
);
width = 594;
},
{
layerId = "3D52442A-254C-4C79-B742-A98FD72DF947";
width = 600;
}
);
unicode = 86;
},
{
color = 3;
glyphname = W;
lastChange = "2021-07-27 15:57:53 +0000";
layers = (
{
anchors = (
{
name = bottom;
pos = (426,0);
},
{
name = top;
pos = (426,700);
}
);
layerId = "65988B1E-DCE2-4AC3-A6FF-994A1050067D";
shapes = (
{
closed = 1;
nodes = (
(35,671,o),
(36,667,o),
(37,663,cs),
(183,31,ls),
(190,0,o),
(213,-15,o),
(232,-15,cs),
(251,-15,o),
(272,0,o),
(281,31,cs),
(435,573,l),
(415,573,l),
(570,31,ls),
(579,0,o),
(600,-15,o),
(619,-15,cs),
(638,-15,o),
(661,0,o),
(668,31,cs),
(814,663,ls),
(815,667,o),
(816,671,o),
(816,676,cs),
(816,698,o),
(797,715,o),
(775,715,cs),
(758,715,o),
(741,704,o),
(738,689,cs),
(608,99,l),
(630,100,l),
(467,679,ls),
(461,700,o),
(444,715,o),
(425,715,cs),
(407,715,o),
(390,700,o),
(384,679,cs),
(221,100,l),
(243,99,l),
(113,689,ls),
(110,704,o),
(93,715,o),
(76,715,cs),
(54,715,o),
(35,698,o),
(35,676,cs)
);
}
);
width = 851;
},
{
layerId = "6242D68C-0A25-4F05-8F2A-2075F7C4A210";
width = 600;
},
{
anchors = (
{
name = bottom;
pos = (426,0);
},
{
name = top;
pos = (426,700);
}
);
associatedMasterId = "65988B1E-DCE2-4AC3-A6FF-994A1050067D";
layerId = "4846143E-31A2-49AC-9448-F95E03AC30F8";
name = "Original Skeleton";
shapes = (
{
attr = {
strokeWidth = 2;
};
closed = 0;
nodes = (
(31,702,l),
(240,0,l),
(420,701,l)
);
},
{
attr = {
strokeWidth = 2;
};
closed = 0;
nodes = (
(420,700,l),
(621,0,l),
(802,700,l)
);
}
);
width = 851;
},
{
layerId = "3D52442A-254C-4C79-B742-A98FD72DF947";
width = 600;
}
);
unicode = 87;
},
{
glyphname = W.ss02;
lastChange = "2021-07-27 15:57:53 +0000";
layers = (
{
layerId = "65988B1E-DCE2-4AC3-A6FF-994A1050067D";
shapes = (
{
closed = 1;
nodes = (
(432,578,l),
(603,15,ls),
(609,-5,o),
(626,-15,o),
(642,-15,cs),
(658,-15,o),
(673,-5,o),
(678,15,cs),
(852,659,ls),
(853,662,o),
(853,665,o),
(853,668,cs),
(853,690,o),
(836,708,o),
(814,708,cs),
(794,708,o),
(778,696,o),
(774,679,cs),
(628,128,l),
(649,129,l),
(485,674,ls),
(478,697,o),
(467,709,o),
(446,709,cs),
(425,709,o),
(414,697,o),
(407,674,cs),
(243,129,l),
(264,128,l),
(109,679,ls),
(104,696,o),
(89,708,o),
(69,708,cs),
(47,708,o),
(30,690,o),
(30,668,cs),
(30,665,o),
(30,662,o),
(31,659,cs),
(214,15,ls),
(220,-5,o),
(234,-15,o),
(250,-15,cs),
(266,-15,o),
(283,-5,o),
(289,15,cs),
(460,578,l)
);
}
);
width = 883;
},
{
layerId = "6242D68C-0A25-4F05-8F2A-2075F7C4A210";
width = 600;
},
{
layerId = "3D52442A-254C-4C79-B742-A98FD72DF947";
width = 600;
}
);
},
{
glyphname = X;
lastChange = "2021-07-27 15:57:53 +0000";
layers = (
{
layerId = "65988B1E-DCE2-4AC3-A6FF-994A1050067D";
shapes = (
{
closed = 1;
nodes = (
(108,688,ls),
(101,698,o),
(89,705,o),
(76,705,cs),
(54,705,o),
(37,688,o),
(37,666,cs),
(37,658,o),
(40,650,o),
(44,644,cs),
(492,12,ls),
(499,2,o),
(511,-5,o),
(524,-5,cs),
(546,-5,o),
(563,12,o),
(563,34,cs),
(563,42,o),
(560,50,o),
(556,56,cs)
);
},
{
closed = 1;
nodes = (
(545,645,ls),
(549,651,o),
(552,659,o),
(552,667,cs),
(552,689,o),
(535,706,o),
(513,706,cs),
(500,706,o),
(488,699,o),
(481,689,cs),
(37,56,ls),
(33,50,o),
(30,42,o),
(30,34,cs),
(30,12,o),
(47,-5,o),
(69,-5,cs),
(82,-5,o),
(94,2,o),
(101,12,cs)
);
}
);
width = 593;
},
{
layerId = "6242D68C-0A25-4F05-8F2A-2075F7C4A210";
width = 600;
},
{
associatedMasterId = "65988B1E-DCE2-4AC3-A6FF-994A1050067D";
layerId = "A3D96D5B-CEC4-41D1-AFD9-7B73061EC540";
name = "Original Skeleton";
shapes = (
{
attr = {
strokeWidth = 2;
};
closed = 0;
nodes = (
(49,700,l),
(542,0,l)
);
},
{
attr = {
strokeWidth = 2;
};
closed = 0;
nodes = (
(529,702,l),
(41,0,l)
);
}
);
width = 593;
},
{
layerId = "3D52442A-254C-4C79-B742-A98FD72DF947";
width = 600;
}
);
unicode = 88;
},
{
color = 3;
glyphname = Y;
lastChange = "2021-07-27 15:57:53 +0000";
layers = (
{
anchors = (
{
name = bottom;
pos = (298,0);
},
{
name = top;
pos = (298,700);
},
{
name = topleft;
pos = (20,700);
}
);
layerId = "65988B1E-DCE2-4AC3-A6FF-994A1050067D";
shapes = (
{
closed = 1;
nodes = (
(250,341,l),
(250,36,ls),
(250,13,o),
(268,-5,o),
(291,-5,cs),
(314,-5,o),
(332,13,o),
(332,36,cs),
(332,341,l),
(558,646,ls),
(563,652,o),
(566,660,o),
(566,669,cs),
(566,691,o),
(549,708,o),
(527,708,cs),
(514,708,o),
(503,702,o),
(496,692,cs),
(265,382,l),
(318,381,l),
(101,691,ls),
(94,701,o),
(82,708,o),
(69,708,cs),
(47,708,o),
(30,691,o),
(30,669,cs),
(30,661,o),
(33,653,o),
(37,647,cs)
);
}
);
width = 596;
},
{
layerId = "6242D68C-0A25-4F05-8F2A-2075F7C4A210";
width = 600;
},
{
anchors = (
{
name = bottom;
pos = (298,0);
},
{
name = top;
pos = (298,700);
},
{
name = topleft;
pos = (20,700);
}
);
associatedMasterId = "65988B1E-DCE2-4AC3-A6FF-994A1050067D";
layerId = "94BDF86D-5DC2-40F3-8F2B-F18C239E19A8";
name = "Original Skeleton";
shapes = (
{
attr = {
strokeWidth = 2;
};
closed = 0;
nodes = (
(565,700,l),
(305,351,l),
(61,700,l)
);
},
{
attr = {
strokeWidth = 2;
};
closed = 0;
nodes = (
(305,361,l),
(305,0,l)
);
}
);
width = 596;
},
{
layerId = "3D52442A-254C-4C79-B742-A98FD72DF947";
width = 600;
}
);
unicode = 89;
},
{
glyphname = Z;
lastChange = "2021-07-27 15:57:53 +0000";
layers = (
{
anchors = (
{
name = bottom;
pos = (293,0);
},
{
name = center;
pos = (293,350);
},
{
name = top;
pos = (293,700);
}
);
layerId = "65988B1E-DCE2-4AC3-A6FF-994A1050067D";
shapes = (
{
closed = 1;
nodes = (
(442,659,l),
(465,622,l),
(95,622,ls),
(73,622,o),
(56,639,o),
(56,661,cs),
(56,683,o),
(73,700,o),
(95,700,cs),
(463,700,ls),
(510,700,o),
(525,686,o),
(525,662,cs),
(525,649,o),
(518,633,o),
(506,614,cs),
(126,40,l),
(106,78,l),
(502,78,ls),
(524,78,o),
(541,61,o),
(541,39,cs),
(541,17,o),
(524,0,o),
(502,0,cs),
(107,0,ls),
(60,0,o),
(45,14,o),
(45,38,cs),
(45,51,o),
(52,67,o),
(64,86,c)
);
}
);
width = 586;
},
{
layerId = "6242D68C-0A25-4F05-8F2A-2075F7C4A210";
width = 600;
},
{
anchors = (
{
name = bottom;
pos = (293,0);
},
{
name = center;
pos = (293,350);
},
{
name = top;
pos = (293,700);
}
);
associatedMasterId = "65988B1E-DCE2-4AC3-A6FF-994A1050067D";
layerId = "B420247E-EAC0-4CAA-8F6C-05C6685B64C4";
name = "Original Skeleton";
shapes = (
{
attr = {
strokeWidth = 2;
};
closed = 0;
nodes = (
(79,700,l),
(515,700,l),
(62,0,l),
(515,0,l)
);
}
);
width = 586;
},
{
layerId = "3D52442A-254C-4C79-B742-A98FD72DF947";
width = 600;
}
);
unicode = 90;
},
{
color = 5;
glyphname = a;
lastChange = "2021-07-27 15:57:53 +0000";
layers = (
{
anchors = (
{
name = bottom;
pos = (273,0);
},
{
name = ogonek;
pos = (491,10);
},
{
name = top;
pos = (278,515);
}
);
background = {
shapes = (
{
closed = 1;
nodes = (
(500,59,o),
(487,78,o),
(470,78,cs),
(464,78,o),
(463,79,o),
(463,84,cs),
(464,349,ls),
(464,452,o),
(422,530,o),
(267,530,cs),
(164,530,o),
(94,477,o),
(94,421,cs),
(94,400,o),
(110,383,o),
(131,383,cs),
(146,383,o),
(161,389,o),
(168,405,cs),
(178,427,o),
(192,453,o),
(267,453,cs),
(365,453,o),
(384,409,o),
(384,369,cs),
(385,160,ls),
(385,131,o),
(329,62,o),
(238,62,cs),
(183,62,o),
(136,84,o),
(136,144,cs),
(136,188,o),
(178,218,o),
(249,224,cs),
(306,229,o),
(355,244,o),
(389,266,c),
(388,369,l),
(384,369,l),
(384,329,o),
(345,306,o),
(249,302,cs),
(131,297,o),
(56,230,o),
(56,143,cs),
(56,50,o),
(120,-15,o),
(241,-15,cs),
(300,-15,o),
(339,2,o),
(388,51,cs),
(389,52,o),
(390,53,o),
(391,53,cs),
(393,53,o),
(394,52,o),
(394,50,cs),
(394,20,o),
(421,-4,o),
(453,-5,cs),
(481,-5,o),
(500,14,o),
(500,39,cs)
);
}
);
};
layerId = "65988B1E-DCE2-4AC3-A6FF-994A1050067D";
shapes = (
{
closed = 1;
nodes = (
(283,-16,o),
(350,0,o),
(388,63,c),
(391,63,l),
(391,49,ls),
(391,19,o),
(415,-8,o),
(447,-8,cs),
(454,-8,ls),
(487,-8,o),
(506,9,o),
(506,32,cs),
(506,53,o),
(490,72,o),
(471,72,cs),
(464,72,o),
(464,83,o),
(464,102,cs),
(464,335,ls),
(464,435,o),
(427,530,o),
(276,530,cs),
(166,530,o),
(110,462,o),
(93,424,cs),
(82,400,o),
(92,368,o),
(127,368,cs),
(146,368,o),
(156,377,o),
(166,395,cs),
(179,418,o),
(211,453,o),
(277,453,cs),
(357,453,o),
(382,411,o),
(382,369,cs),
(382,322,o),
(341,305,o),
(246,304,cs),
(113,303,o),
(50,220,o),
(50,138,cs),
(50,58,o),
(110,-13,o),
(222,-15,cs)
);
},
{
closed = 1;
nodes = (
(130,184,o),
(165,229,o),
(247,229,cs),
(310,229,o),
(360,248,o),
(381,265,c),
(384,270,o),
(384,266,o),
(384,265,cs),
(384,254,l),
(384,197,ls),
(384,127,o),
(315,63,o),
(235,62,cs),
(154,61,o),
(130,109,o),
(130,143,cs)
);
}
);
width = 546;
},
{
anchors = (
{
name = bottom;
pos = (298,0);
},
{
name = ogonek;
pos = (544,10);
},
{
name = top;
pos = (298,515);
}
);
background = {
shapes = (
{
closed = 1;
nodes = (
(308,-16,o),
(375,0,o),
(413,68,c),
(415,72,o),
(416,71,o),
(416,68,c),
(416,49,ls),
(416,19,o),
(440,-8,o),
(472,-8,cs),
(479,-8,ls),
(512,-8,o),
(531,9,o),
(531,32,cs),
(531,53,o),
(515,72,o),
(496,72,cs),
(489,72,o),
(489,83,o),
(489,102,cs),
(489,335,ls),
(489,435,o),
(452,530,o),
(301,530,cs),
(191,530,o),
(135,462,o),
(118,424,cs),
(107,400,o),
(117,368,o),
(152,368,cs),
(171,368,o),
(181,377,o),
(191,395,cs),
(204,418,o),
(236,453,o),
(302,453,cs),
(382,453,o),
(407,411,o),
(407,369,cs),
(407,322,o),
(366,305,o),
(271,304,cs),
(138,303,o),
(75,220,o),
(75,138,cs),
(75,58,o),
(135,-13,o),
(247,-15,cs)
);
},
{
closed = 1;
nodes = (
(155,184,o),
(190,229,o),
(272,229,cs),
(335,229,o),
(387,256,o),
(406,276,c),
(409,281,o),
(409,277,o),
(409,276,cs),
(409,254,l),
(409,170,ls),
(409,98,o),
(340,63,o),
(260,62,cs),
(179,61,o),
(155,109,o),
(155,143,cs)
);
},
{
closed = 1;
nodes = (
(-286,-16,o),
(-203,3,o),
(-156,87,c),
(-146,102,o),
(-219,118,o),
(-219,103,cs),
(-219,84,ls),
(-219,35,o),
(-179,-8,o),
(-128,-8,cs),
(-121,-8,ls),
(-62,-8,o),
(-34,31,o),
(-34,67,cs),
(-34,106,o),
(-65,142,o),
(-104,142,cs),
(-139,142,o),
(-76,60,o),
(-76,137,cs),
(-76,300,ls),
(-76,411,o),
(-122,530,o),
(-299,530,cs),
(-428,530,o),
(-494,448,o),
(-514,403,cs),
(-535,356,o),
(-509,298,o),
(-448,298,cs),
(-419,298,o),
(-396,311,o),
(-378,343,cs),
(-367,362,o),
(-349,383,o),
(-298,383,cs),
(-238,383,o),
(-228,366,o),
(-228,334,cs),
(-228,310,o),
(-241,305,o),
(-329,304,cs),
(-484,303,o),
(-560,271,o),
(-560,173,cs),
(-560,76,o),
(-486,-13,o),
(-354,-15,cs)
);
},
{
closed = 1;
nodes = (
(-410,207,o),
(-393,229,o),
(-328,229,cs),
(-253,229,o),
(-189,263,o),
(-166,290,c),
(-147,305,o),
(-226,323,o),
(-226,311,cs),
(-226,289,l),
(-226,205,ls),
(-226,154,o),
(-269,133,o),
(-340,132,cs),
(-400,131,o),
(-410,152,o),
(-410,178,cs)
);
}
);
};
layerId = "6242D68C-0A25-4F05-8F2A-2075F7C4A210";
shapes = (
{
closed = 1;
nodes = (
(300,-17,o),
(348,14,o),
(378,59,c),
(381,59,l),
(388,45,ls),
(405,11,o),
(451,-8,o),
(499,-8,cs),
(512,-8,ls),
(563,-8,o),
(592,25,o),
(592,66,cs),
(592,107,o),
(564,132,o),
(540,132,cs),
(527,132,o),
(524,140,o),
(524,157,cs),
(524,300,ls),
(524,411,o),
(478,530,o),
(301,530,cs),
(198,530,o),
(94,480,o),
(94,404,cs),
(94,362,o),
(126,341,o),
(162,341,cs),
(195,341,o),
(209,359,o),
(221,365,cs),
(241,375,o),
(278,383,o),
(307,383,cs),
(345,383,o),
(368,369,o),
(368,345,cs),
(368,327,o),
(355,305,o),
(271,304,cs),
(126,302,o),
(50,233,o),
(50,135,cs),
(50,38,o),
(127,-12,o),
(228,-15,cs)
);
},
{
closed = 1;
nodes = (
(196,190,o),
(227,208,o),
(272,208,cs),
(302,208,o),
(337,218,o),
(370,235,c),
(374,237,o),
(374,236,o),
(374,231,cs),
(374,225,l),
(374,215,ls),
(374,154,o),
(338,118,o),
(266,117,cs),
(221,116,o),
(196,132,o),
(196,159,cs)
);
}
);
width = 632;
},
{
anchors = (
{
name = bottom;
pos = (273,0);
},
{
name = ogonek;
pos = (491,10);
},
{
name = top;
pos = (273,515);
}
);
associatedMasterId = "65988B1E-DCE2-4AC3-A6FF-994A1050067D";
background = {
shapes = (
{
closed = 1;
nodes = (
(500,59,o),
(487,78,o),
(470,78,cs),
(464,78,o),
(463,79,o),
(463,84,cs),
(464,349,ls),
(464,452,o),
(422,530,o),
(267,530,cs),
(164,530,o),
(94,477,o),
(94,421,cs),
(94,400,o),
(110,383,o),
(131,383,cs),
(146,383,o),
(161,389,o),
(168,405,cs),
(178,427,o),
(192,453,o),
(267,453,cs),
(365,453,o),
(384,409,o),
(384,369,cs),
(385,160,ls),
(385,131,o),
(329,62,o),
(238,62,cs),
(183,62,o),
(136,84,o),
(136,144,cs),
(136,188,o),
(178,218,o),
(249,224,cs),
(306,229,o),
(355,244,o),
(389,266,c),
(388,369,l),
(384,369,l),
(384,329,o),
(345,306,o),
(249,302,cs),
(131,297,o),
(56,230,o),
(56,143,cs),
(56,50,o),
(120,-15,o),
(241,-15,cs),
(300,-15,o),
(339,2,o),
(388,51,cs),
(389,52,o),
(390,53,o),
(391,53,cs),
(393,53,o),
(394,52,o),
(394,50,cs),
(394,20,o),
(421,-4,o),
(453,-5,cs),
(481,-5,o),
(500,14,o),
(500,39,cs)
);
}
);
};
layerId = "53B606E2-0238-4D12-B9C4-993F35BD6F5D";
name = "Original Skeleton";
shapes = (
{
attr = {
strokeWidth = 2;
};
closed = 0;
nodes = (
(91,399,l),
(91,417,o),
(113,513,o),
(262,513,cs),
(399,513,o),
(434,435,o),
(434,358,c),
(434,357,o),
(436,148,o),
(436,67,cs),
(436,7,o),
(490,7,o),
(490,7,c)
);
},
{
attr = {
strokeWidth = 2;
};
closed = 0;
nodes = (
(433,113,l),
(433,112,o),
(351,0,o),
(218,0,cs),
(107,0,o),
(61,59,o),
(61,119,cs),
(61,173,o),
(109,265,o),
(242,265,cs),
(422,265,o),
(434,365,o),
(434,365,c)
);
}
);
width = 546;
},
{
anchors = (
{
name = bottom;
pos = (261,0);
},
{
name = ogonek;
pos = (469,10);
},
{
name = top;
pos = (261,515);
}
);
background = {
shapes = (
{
closed = 1;
nodes = (
(270,-16,o),
(337,0,o),
(375,68,c),
(377,72,o),
(378,71,o),
(378,68,c),
(378,49,ls),
(378,19,o),
(402,-8,o),
(434,-8,cs),
(441,-8,ls),
(474,-8,o),
(493,9,o),
(493,32,cs),
(493,53,o),
(477,72,o),
(458,72,cs),
(451,72,o),
(451,83,o),
(451,102,cs),
(451,335,ls),
(451,435,o),
(414,530,o),
(263,530,cs),
(153,530,o),
(97,462,o),
(80,424,cs),
(69,400,o),
(79,368,o),
(114,368,cs),
(133,368,o),
(143,377,o),
(153,395,cs),
(166,418,o),
(198,453,o),
(264,453,cs),
(344,453,o),
(369,411,o),
(369,369,cs),
(369,322,o),
(328,305,o),
(233,304,cs),
(100,303,o),
(37,220,o),
(37,138,cs),
(37,58,o),
(97,-13,o),
(209,-15,cs)
);
},
{
closed = 1;
nodes = (
(117,184,o),
(152,229,o),
(234,229,cs),
(297,229,o),
(349,256,o),
(368,276,c),
(371,281,o),
(371,277,o),
(371,276,cs),
(371,254,l),
(371,170,ls),
(371,98,o),
(302,63,o),
(222,62,cs),
(141,61,o),
(117,109,o),
(117,143,cs)
);
}
);
};
layerId = "3D52442A-254C-4C79-B742-A98FD72DF947";
shapes = (
{
closed = 1;
nodes = (
(269,-15,o),
(347,7,o),
(382,62,c),
(385,62,l),
(385,47,ls),
(385,19,o),
(407,-7,o),
(433,-7,cs),
(441,-7,ls),
(469,-7,o),
(481,3,o),
(481,20,cs),
(481,36,o),
(471,48,o),
(458,48,cs),
(441,48,o),
(439,52,o),
(439,90,cs),
(439,335,ls),
(439,445,o),
(405,530,o),
(263,530,cs),
(159,530,o),
(108,467,o),
(91,431,cs),
(82,411,o),
(88,393,o),
(114,393,cs),
(128,393,o),
(133,397,o),
(142,413,cs),
(156,438,o),
(192,478,o),
(264,478,cs),
(353,478,o),
(382,428,o),
(382,369,cs),
(382,302,o),
(333,293,o),
(233,292,cs),
(106,291,o),
(50,216,o),
(50,138,cs),
(50,51,o),
(103,-13,o),
(209,-15,cs)
);
},
{
closed = 1;
nodes = (
(105,190,o),
(146,246,o),
(238,244,cs),
(293,243,o),
(342,252,o),
(380,279,cs),
(383,281,o),
(384,279,o),
(384,275,cs),
(384,254,l),
(384,190,ls),
(384,75,o),
(307,39,o),
(222,38,cs),
(131,36,o),
(105,91,o),
(105,136,cs)
);
}
);
width = 521;
}
);
unicode = 97;
},
{
glyphname = a.ss01;
lastChange = "2021-07-27 15:57:53 +0000";
layers = (
{
anchors = (
{
name = bottom;
pos = (268,-16);
},
{
name = ogonek;
pos = (478,10);
},
{
name = top;
pos = (283,515);
}
);
background = {
shapes = (
{
closed = 1;
nodes = (
(535,59,o),
(522,78,o),
(505,78,cs),
(499,78,o),
(498,79,o),
(498,84,cs),
(499,349,ls),
(499,452,o),
(457,530,o),
(302,530,cs),
(199,530,o),
(129,477,o),
(129,421,cs),
(129,400,o),
(145,383,o),
(166,383,cs),
(181,383,o),
(196,389,o),
(203,405,cs),
(213,427,o),
(227,453,o),
(302,453,cs),
(400,453,o),
(419,409,o),
(419,369,cs),
(420,160,ls),
(420,131,o),
(364,62,o),
(273,62,cs),
(218,62,o),
(171,84,o),
(171,144,cs),
(171,188,o),
(213,218,o),
(284,224,cs),
(341,229,o),
(390,244,o),
(424,266,c),
(423,369,l),
(419,369,l),
(419,329,o),
(380,306,o),
(284,302,cs),
(166,297,o),
(91,230,o),
(91,143,cs),
(91,50,o),
(155,-15,o),
(276,-15,cs),
(335,-15,o),
(374,2,o),
(423,51,cs),
(424,52,o),
(425,53,o),
(426,53,cs),
(428,53,o),
(429,52,o),
(429,50,cs),
(429,20,o),
(456,-4,o),
(488,-5,cs),
(516,-5,o),
(535,14,o),
(535,39,cs)
);
},
{
closed = 1;
nodes = (
(1001,92,l),
(1001,33,ls),
(1001,10,o),
(1019,-8,o),
(1041,-8,cs),
(1063,-8,o),
(1081,10,o),
(1081,33,cs),
(1081,480,ls),
(1081,502,o),
(1063,520,o),
(1041,520,cs),
(1019,520,o),
(1001,502,o),
(1001,480,cs),
(1001,427,l),
(1010,427,l),
(1009,92,l)
);
},
{
closed = 1;
nodes = (
(701,382,o),
(755,454,o),
(856,453,c),
(943,452,o),
(1001,381,o),
(1001,251,cs),
(1001,91,o),
(917,62,o),
(854,62,cs),
(758,62,o),
(701,134,o),
(701,257,cs)
);
},
{
closed = 1;
nodes = (
(974,495,o),
(923,530,o),
(848,530,cs),
(705,530,o),
(621,406,o),
(621,257,cs),
(621,113,o),
(700,-15,o),
(839,-15,cs),
(913,-15,o),
(976,11,o),
(1018,66,c),
(1017,441,l)
);
}
);
};
layerId = "65988B1E-DCE2-4AC3-A6FF-994A1050067D";
shapes = (
{
closed = 1;
nodes = (
(500,480,ls),
(500,502,o),
(482,520,o),
(460,520,cs),
(438,520,o),
(420,502,o),
(420,480,cs),
(420,417,l),
(433,435,l),
(398,487,o),
(345,530,o),
(267,530,cs),
(122,530,o),
(40,397,o),
(40,247,cs),
(40,101,o),
(114,-15,o),
(258,-15,cs),
(334,-15,o),
(399,13,o),
(442,91,c),
(427,103,l),
(427,49,ls),
(427,19,o),
(451,-8,o),
(483,-8,cs),
(490,-8,ls),
(523,-8,o),
(542,9,o),
(542,32,cs),
(542,53,o),
(526,72,o),
(507,72,cs),
(500,72,o),
(500,83,o),
(500,102,cs)
);
},
{
closed = 1;
nodes = (
(120,372,o),
(174,454,o),
(272,453,cs),
(361,452,o),
(420,377,o),
(420,251,cs),
(420,91,o),
(336,62,o),
(273,62,cs),
(177,62,o),
(120,124,o),
(120,247,cs)
);
}
);
width = 582;
},
{
anchors = (
{
name = bottom;
pos = (268,-16);
},
{
name = ogonek;
pos = (478,10);
},
{
name = top;
pos = (283,515);
}
);
layerId = "6242D68C-0A25-4F05-8F2A-2075F7C4A210";
width = 600;
},
{
anchors = (
{
name = bottom;
pos = (268,-16);
},
{
name = ogonek;
pos = (478,10);
},
{
name = top;
pos = (283,515);
}
);
layerId = "3D52442A-254C-4C79-B742-A98FD72DF947";
width = 600;
}
);
metricLeft = "=o";
metricRight = "=a";
},
{
glyphname = a.ss02;
lastChange = "2021-07-27 15:57:53 +0000";
layers = (
{
anchors = (
{
name = bottom;
pos = (295,0);
},
{
name = ogonek;
pos = (530,10);
},
{
name = top;
pos = (295,515);
}
);
layerId = "65988B1E-DCE2-4AC3-A6FF-994A1050067D";
shapes = (
{
closed = 1;
nodes = (
(307,-16,o),
(370,12,o),
(419,52,c),
(419,132,l),
(379,98,o),
(316,63,o),
(238,62,cs),
(149,61,o),
(125,108,o),
(125,143,cs),
(125,184,o),
(160,229,o),
(256,229,cs),
(322,229,o),
(372,242,o),
(409,260,c),
(409,81,ls),
(409,24,o),
(446,-5,o),
(496,-8,cs),
(525,-9,o),
(544,9,o),
(544,32,cs),
(544,53,o),
(528,71,o),
(507,72,cs),
(495,73,o),
(489,83,o),
(489,102,cs),
(489,335,ls),
(489,425,o),
(443,530,o),
(286,530,cs),
(126,530,o),
(78,409,o),
(75,382,cs),
(72,353,o),
(91,337,o),
(113,337,cs),
(135,337,o),
(150,353,o),
(155,376,cs),
(158,389,o),
(183,453,o),
(287,453,cs),
(376,453,o),
(408,409,o),
(408,369,cs),
(408,322,o),
(362,305,o),
(256,304,cs),
(108,303,o),
(45,220,o),
(45,138,cs),
(45,58,o),
(105,-14,o),
(232,-15,cs)
);
}
);
width = 589;
},
{
layerId = "6242D68C-0A25-4F05-8F2A-2075F7C4A210";
width = 600;
},
{
layerId = "3D52442A-254C-4C79-B742-A98FD72DF947";
width = 600;
}
);
},
{
glyphname = a.ss03;
lastChange = "2021-07-27 15:57:53 +0000";
layers = (
{
anchors = (
{
name = bottom;
pos = (300,0);
},
{
name = ogonek;
pos = (535,10);
},
{
name = top;
pos = (300,515);
}
);
background = {
shapes = (
{
closed = 1;
nodes = (
(279,-2,o),
(362,8,o),
(405,83,c),
(408,83,l),
(405,53,o),
(406,-3,o),
(482,-8,cs),
(511,-10,o),
(531,6,o),
(533,28,cs),
(534,49,o),
(520,68,o),
(499,71,cs),
(487,73,o),
(482,83,o),
(483,102,cs),
(499,335,ls),
(506,430,o),
(462,533,o),
(310,543,cs),
(151,554,o),
(94,437,o),
(89,410,cs),
(84,382,o),
(102,364,o),
(124,363,cs),
(146,361,o),
(162,376,o),
(169,399,cs),
(173,412,o),
(202,474,o),
(306,466,cs),
(391,460,o),
(423,416,o),
(420,374,cs),
(416,327,o),
(370,313,o),
(265,320,cs),
(117,329,o),
(48,251,o),
(42,169,cs),
(37,89,o),
(92,14,o),
(218,3,cs)
);
},
{
closed = 1;
nodes = (
(125,209,o),
(164,252,o),
(260,245,cs),
(316,241,o),
(378,253,o),
(413,295,c),
(416,295,l),
(414,259,l),
(407,166,ls),
(403,104,o),
(317,75,o),
(237,79,cs),
(141,85,o),
(120,134,o),
(123,168,cs)
);
},
{
pos = (5,0);
ref = a.ss04;
}
);
};
layerId = "65988B1E-DCE2-4AC3-A6FF-994A1050067D";
shapes = (
{
closed = 1;
nodes = (
(298,-16,o),
(380,0,o),
(418,78,c),
(420,82,o),
(421,81,o),
(421,78,c),
(420,48,o),
(425,-8,o),
(501,-8,cs),
(530,-8,o),
(549,9,o),
(549,32,cs),
(549,53,o),
(533,71,o),
(512,72,cs),
(500,73,o),
(494,83,o),
(494,102,cs),
(494,335,ls),
(494,431,o),
(443,530,o),
(291,530,cs),
(166,530,o),
(110,457,o),
(93,419,cs),
(82,395,o),
(92,363,o),
(127,363,cs),
(146,363,o),
(156,372,o),
(166,390,cs),
(179,413,o),
(211,453,o),
(292,453,cs),
(377,453,o),
(412,411,o),
(412,369,cs),
(412,322,o),
(367,305,o),
(261,304,cs),
(113,303,o),
(50,220,o),
(50,138,cs),
(50,58,o),
(110,-13,o),
(237,-15,cs)
);
},
{
closed = 1;
nodes = (
(130,184,o),
(165,229,o),
(262,229,cs),
(318,229,o),
(379,245,o),
(411,290,c),
(414,295,o),
(414,291,o),
(414,290,cs),
(414,254,l),
(414,160,ls),
(414,98,o),
(330,63,o),
(250,62,cs),
(154,61,o),
(130,109,o),
(130,143,cs)
);
}
);
width = 589;
},
{
layerId = "6242D68C-0A25-4F05-8F2A-2075F7C4A210";
width = 600;
},
{
layerId = "3D52442A-254C-4C79-B742-A98FD72DF947";
width = 600;
}
);
metricLeft = "=a";
metricRight = "=a";
},
{
glyphname = a.ss04;
lastChange = "2021-07-27 15:57:53 +0000";
layers = (
{
anchors = (
{
name = bottom;
pos = (300,0);
},
{
name = ogonek;
pos = (535,10);
},
{
name = top;
pos = (300,515);
}
);
background = {
shapes = (
{
closed = 0;
nodes = (
(414,153,ls),
(414,108,o),
(328,63,o),
(243,62,cs),
(154,61,o),
(130,108,o),
(130,143,cs),
(130,184,o),
(165,229,o),
(261,229,cs),
(327,229,o),
(385,239,o),
(417,278,c),
(420,278,l),
(418,270,o),
(414,262,o),
(414,239,cs)
);
},
{
closed = 1;
nodes = (
(308,-16,o),
(383,10,o),
(426,69,c),
(429,69,l),
(426,65,o),
(424,53,o),
(424,44,cs),
(424,12,o),
(451,-8,o),
(491,-8,cs),
(530,-8,o),
(549,9,o),
(549,32,cs),
(549,53,o),
(533,71,o),
(512,72,cs),
(500,73,o),
(494,83,o),
(494,102,cs),
(494,335,ls),
(494,425,o),
(448,530,o),
(291,530,cs),
(131,530,o),
(83,409,o),
(80,382,cs),
(77,353,o),
(96,337,o),
(118,337,cs),
(140,337,o),
(155,353,o),
(160,376,cs),
(163,389,o),
(188,453,o),
(292,453,cs),
(381,453,o),
(413,409,o),
(413,369,cs),
(413,322,o),
(367,305,o),
(261,304,cs),
(113,303,o),
(50,220,o),
(50,138,cs),
(50,58,o),
(110,-14,o),
(237,-15,cs)
);
}
);
};
layerId = "65988B1E-DCE2-4AC3-A6FF-994A1050067D";
shapes = (
{
closed = 1;
nodes = (
(308,-16,o),
(383,10,o),
(426,69,c),
(429,69,l),
(427,62,o),
(425,55,o),
(425,47,cs),
(425,14,o),
(459,-8,o),
(498,-8,cs),
(530,-8,o),
(549,9,o),
(549,32,cs),
(549,53,o),
(533,71,o),
(512,72,cs),
(500,73,o),
(494,83,o),
(494,102,cs),
(494,335,ls),
(494,425,o),
(448,530,o),
(291,530,cs),
(131,530,o),
(83,409,o),
(80,382,cs),
(77,353,o),
(96,337,o),
(118,337,cs),
(140,337,o),
(155,353,o),
(160,376,cs),
(163,389,o),
(188,453,o),
(292,453,cs),
(381,453,o),
(413,409,o),
(413,369,cs),
(413,322,o),
(367,305,o),
(261,304,cs),
(113,303,o),
(50,220,o),
(50,138,cs),
(50,58,o),
(110,-14,o),
(237,-15,cs)
);
},
{
closed = 1;
nodes = (
(130,184,o),
(165,229,o),
(261,229,cs),
(327,229,o),
(385,239,o),
(417,278,c),
(420,278,l),
(418,270,o),
(414,262,o),
(414,239,cs),
(414,153,ls),
(414,108,o),
(328,63,o),
(243,62,cs),
(154,61,o),
(130,108,o),
(130,143,cs)
);
}
);
width = 589;
},
{
layerId = "6242D68C-0A25-4F05-8F2A-2075F7C4A210";
width = 600;
},
{
layerId = "3D52442A-254C-4C79-B742-A98FD72DF947";
width = 600;
}
);
metricLeft = "=a";
metricRight = "=a";
},
{
glyphname = aogonek;
lastChange = "2021-07-27 15:57:53 +0000";
layers = (
{
layerId = "65988B1E-DCE2-4AC3-A6FF-994A1050067D";
shapes = (
{
closed = 1;
nodes = (
(125,184,o),
(160,229,o),
(242,229,cs),
(305,229,o),
(357,256,o),
(376,276,c),
(379,281,o),
(379,277,o),
(379,276,cs),
(379,254,l),
(379,170,ls),
(379,98,o),
(310,63,o),
(230,62,cs),
(149,61,o),
(125,109,o),
(125,143,cs)
);
},
{
pos = (224,8);
ref = ogonekcomb;
},
{
closed = 1;
nodes = (
(386,28,ls),
(386,6,o),
(400,-10,o),
(422,-10,cs),
(444,-10,o),
(459,6,o),
(459,28,cs),
(459,335,ls),
(459,435,o),
(422,530,o),
(271,530,cs),
(161,530,o),
(105,462,o),
(88,424,cs),
(77,400,o),
(87,368,o),
(122,368,cs),
(141,368,o),
(151,377,o),
(161,395,cs),
(174,418,o),
(206,453,o),
(272,453,cs),
(352,453,o),
(377,411,o),
(377,369,cs),
(377,322,o),
(336,305,o),
(241,304,cs),
(108,303,o),
(45,220,o),
(45,138,cs),
(45,58,o),
(105,-13,o),
(217,-15,cs),
(278,-16,o),
(345,0,o),
(383,68,c),
(385,72,o),
(386,71,o),
(386,68,c),
(386,52,l)
);
},
{
closed = 0;
nodes = (
(390,64,l)
);
}
);
width = 546;
},
{
layerId = "6242D68C-0A25-4F05-8F2A-2075F7C4A210";
width = 600;
},
{
layerId = "3D52442A-254C-4C79-B742-A98FD72DF947";
width = 600;
}
);
unicode = 261;
},
{
glyphname = aogonek.ss01;
lastChange = "2021-07-27 15:57:53 +0000";
layers = (
{
anchors = (
{
name = bottom;
pos = (237,-16);
},
{
name = ogonek;
pos = (447,10);
},
{
name = top;
pos = (252,515);
}
);
layerId = "65988B1E-DCE2-4AC3-A6FF-994A1050067D";
shapes = (
{
pos = (265,9);
ref = ogonekcomb;
},
{
closed = 1;
nodes = (
(420,91,l),
(420,32,ls),
(420,9,o),
(438,-9,o),
(460,-9,cs),
(482,-9,o),
(500,9,o),
(500,32,cs),
(500,479,ls),
(500,501,o),
(482,519,o),
(460,519,cs),
(438,519,o),
(420,501,o),
(420,479,cs),
(420,426,l),
(429,426,l),
(428,91,l)
);
},
{
closed = 1;
nodes = (
(120,381,o),
(174,453,o),
(275,452,c),
(362,451,o),
(420,380,o),
(420,250,cs),
(420,90,o),
(336,61,o),
(273,61,cs),
(177,61,o),
(120,133,o),
(120,256,cs)
);
},
{
closed = 1;
nodes = (
(393,494,o),
(342,529,o),
(267,529,cs),
(124,529,o),
(40,405,o),
(40,256,cs),
(40,112,o),
(119,-16,o),
(258,-16,cs),
(332,-16,o),
(395,10,o),
(437,65,c),
(436,440,l)
);
}
);
width = 587;
},
{
layerId = "6242D68C-0A25-4F05-8F2A-2075F7C4A210";
width = 600;
},
{
layerId = "3D52442A-254C-4C79-B742-A98FD72DF947";
width = 600;
}
);
metricLeft = "=a.ss01";
metricRight = "=aogonek";
},
{
color = 3;
glyphname = ae;
lastChange = "2021-07-27 15:57:53 +0000";
layers = (
{
anchors = (
{
name = bottom;
pos = (415,0);
},
{
name = top;
pos = (435,515);
}
);
layerId = "65988B1E-DCE2-4AC3-A6FF-994A1050067D";
shapes = (
{
closed = 1;
nodes = (
(286,-15,o),
(355,17,o),
(399,81,c),
(414,81,l),
(458,17,o),
(529,-15,o),
(600,-15,cs),
(685,-15,o),
(750,32,o),
(782,80,cs),
(811,123,o),
(787,155,o),
(761,155,cs),
(737,155,o),
(726,134,o),
(719,123,cs),
(701,94,o),
(659,62,o),
(598,62,cs),
(520,62,o),
(449,115,o),
(449,261,cs),
(449,280,l),
(455,390,o),
(508,453,o),
(596,453,cs),
(688,453,o),
(715,394,o),
(720,313,c),
(435,313,l),
(434,242,l),
(738,237,ls),
(776,236,o),
(796,258,o),
(795,296,cs),
(793,449,o),
(721,530,o),
(599,530,cs),
(523,530,o),
(463,502,o),
(424,451,c),
(398,498,o),
(349,530,o),
(261,530,cs),
(151,530,o),
(95,462,o),
(78,424,cs),
(67,400,o),
(77,368,o),
(112,368,cs),
(131,368,o),
(141,377,o),
(151,395,cs),
(164,418,o),
(196,453,o),
(262,453,cs),
(342,453,o),
(367,411,o),
(367,369,cs),
(367,322,o),
(326,305,o),
(231,304,cs),
(98,303,o),
(35,220,o),
(35,138,cs),
(35,58,o),
(95,-15,o),
(215,-15,cs)
);
},
{
closed = 1;
nodes = (
(139,61,o),
(115,109,o),
(115,143,cs),
(115,184,o),
(150,229,o),
(232,229,cs),
(295,229,o),
(347,256,o),
(366,276,c),
(369,281,o),
(369,277,o),
(369,276,cs),
(369,170,ls),
(369,98,o),
(300,63,o),
(220,62,cs)
);
}
);
width = 830;
},
{
anchors = (
{
name = bottom;
pos = (300,0);
},
{
name = top;
pos = (300,515);
}
);
layerId = "6242D68C-0A25-4F05-8F2A-2075F7C4A210";
width = 600;
},
{
anchors = (
{
name = bottom;
pos = (300,0);
},
{
name = top;
pos = (300,515);
}
);
layerId = "3D52442A-254C-4C79-B742-A98FD72DF947";
width = 600;
}
);
unicode = 230;
},
{
color = 1;
glyphname = ae.ss01;
lastChange = "2021-07-27 15:57:53 +0000";
layers = (
{
anchors = (
{
name = bottom;
pos = (456,0);
},
{
name = top;
pos = (456,515);
}
);
annotations = (
{
pos = (304,611);
text = "Still a mess--need to refine/totally redraw";
type = Text;
width = 190;
}
);
layerId = "65988B1E-DCE2-4AC3-A6FF-994A1050067D";
shapes = (
{
closed = 1;
nodes = (
(414,92,l),
(414,33,ls),
(414,10,o),
(432,-8,o),
(454,-8,cs),
(476,-8,o),
(494,10,o),
(494,33,cs),
(494,480,ls),
(494,502,o),
(476,520,o),
(454,520,cs),
(432,520,o),
(414,502,o),
(414,480,cs),
(414,427,l),
(420,411,l),
(422,92,l)
);
},
{
closed = 1;
nodes = (
(124,382,o),
(173,454,o),
(269,453,c),
(356,452,o),
(404,381,o),
(404,251,cs),
(404,91,o),
(330,62,o),
(267,62,cs),
(176,62,o),
(124,134,o),
(124,257,cs)
);
},
{
closed = 1;
nodes = (
(400,485,o),
(332,530,o),
(257,530,cs),
(119,530,o),
(40,406,o),
(40,257,cs),
(40,113,o),
(114,-15,o),
(248,-15,cs),
(322,-15,o),
(385,11,o),
(427,96,c),
(426,418,l)
);
},
{
closed = 1;
nodes = (
(744,-15,o),
(804,32,o),
(836,80,cs),
(865,123,o),
(841,155,o),
(815,155,cs),
(791,155,o),
(780,134,o),
(773,123,cs),
(755,94,o),
(718,62,o),
(662,62,cs),
(590,62,o),
(523,115,o),
(523,260,cs),
(523,386,o),
(578,453,o),
(660,453,cs),
(750,453,o),
(796,373,o),
(797,282,c),
(826,307,l),
(507,307,l),
(507,234,l),
(814,234,ls),
(852,234,o),
(871,255,o),
(871,293,cs),
(871,422,o),
(788,530,o),
(663,530,cs),
(537,530,o),
(443,420,o),
(443,255,cs),
(443,76,o),
(549,-15,o),
(664,-15,cs)
);
}
);
width = 911;
},
{
layerId = "6242D68C-0A25-4F05-8F2A-2075F7C4A210";
width = 600;
},
{
layerId = "3D52442A-254C-4C79-B742-A98FD72DF947";
width = 600;
}
);
metricLeft = "=o";
metricRight = "=o";
},
{
glyphname = b;
lastChange = "2021-07-27 15:57:53 +0000";
layers = (
{
layerId = "65988B1E-DCE2-4AC3-A6FF-994A1050067D";
shapes = (
{
closed = 1;
nodes = (
(451,-14,o),
(530,114,o),
(530,258,cs),
(530,406,o),
(454,530,o),
(312,530,cs),
(241,530,o),
(178,496,o),
(133,443,c),
(150,427,l),
(150,690,ls),
(150,712,o),
(132,730,o),
(110,730,cs),
(88,730,o),
(70,712,o),
(70,690,cs),
(70,31,ls),
(70,8,o),
(88,-10,o),
(110,-10,cs),
(132,-10,o),
(150,8,o),
(150,31,cs),
(150,92,l),
(134,74,l),
(177,20,o),
(241,-15,o),
(313,-15,cs)
);
},
{
closed = 1;
nodes = (
(201,63,o),
(150,130,o),
(150,258,cs),
(150,386,o),
(201,453,o),
(297,453,cs),
(394,453,o),
(450,378,o),
(450,258,cs),
(450,133,o),
(396,61,o),
(295,62,cs)
);
}
);
width = 565;
},
{
background = {
shapes = (
{
closed = 1;
nodes = (
(485,133,o),
(431,61,o),
(330,62,cs),
(236,63,o),
(185,130,o),
(185,258,cs),
(185,386,o),
(236,453,o),
(332,453,cs),
(428,453,o),
(485,381,o),
(485,258,cs)
);
},
{
closed = 1;
nodes = (
(565,402,o),
(486,530,o),
(347,530,cs),
(276,530,o),
(213,496,o),
(168,443,c),
(185,427,l),
(185,690,ls),
(185,712,o),
(167,730,o),
(145,730,cs),
(123,730,o),
(105,712,o),
(105,690,cs),
(105,31,ls),
(105,8,o),
(123,-10,o),
(145,-10,cs),
(167,-10,o),
(185,8,o),
(185,31,cs),
(185,92,l),
(169,74,l),
(212,20,o),
(276,-15,o),
(348,-15,cs),
(486,-14,o),
(565,114,o),
(565,258,cs)
);
},
{
ref = h;
},
{
pos = (31,0);
ref = o;
}
);
};
layerId = "6242D68C-0A25-4F05-8F2A-2075F7C4A210";
shapes = (
{
closed = 1;
nodes = (
(520,-14,o),
(590,135,o),
(590,258,cs),
(590,381,o),
(520,530,o),
(356,530,cs),
(297,530,o),
(245,509,o),
(202,446,c),
(220,434,l),
(220,655,ls),
(220,696,o),
(186,730,o),
(145,730,cs),
(104,730,o),
(70,696,o),
(70,655,cs),
(70,66,ls),
(70,24,o),
(104,-10,o),
(145,-10,cs),
(186,-10,o),
(220,24,o),
(220,66,cs),
(220,94,l),
(203,86,l),
(223,31,o),
(277,-16,o),
(362,-15,cs)
);
},
{
closed = 1;
nodes = (
(263,123,o),
(220,172,o),
(220,258,cs),
(220,344,o),
(263,393,o),
(332,393,cs),
(399,393,o),
(433,339,o),
(433,258,cs),
(433,175,o),
(402,121,o),
(330,122,cs)
);
}
);
width = 625;
},
{
associatedMasterId = "65988B1E-DCE2-4AC3-A6FF-994A1050067D";
layerId = "F80A7ED1-B4C8-40E5-8CD0-AB4849CBDA98";
name = "Original Skeleton";
shapes = (
{
attr = {
strokeWidth = 2;
};
closed = 1;
nodes = (
(501,115,o),
(435,0,o),
(302,0,cs),
(187,0,o),
(101,81,o),
(101,257,c),
(101,442,o),
(187,515,o),
(302,515,cs),
(432,515,o),
(501,400,o),
(501,257,c)
);
},
{
attr = {
strokeWidth = 2;
};
closed = 0;
nodes = (
(101,700,l),
(101,0,l)
);
}
);
width = 565;
},
{
background = {
shapes = (
{
closed = 1;
nodes = (
(437,133,o),
(383,61,o),
(282,62,cs),
(188,63,o),
(137,130,o),
(137,258,cs),
(137,386,o),
(188,453,o),
(284,453,cs),
(380,453,o),
(437,381,o),
(437,258,cs)
);
},
{
closed = 1;
nodes = (
(517,402,o),
(438,530,o),
(299,530,cs),
(228,530,o),
(165,496,o),
(120,443,c),
(137,427,l),
(137,690,ls),
(137,712,o),
(119,730,o),
(97,730,cs),
(75,730,o),
(57,712,o),
(57,690,cs),
(57,31,ls),
(57,8,o),
(75,-10,o),
(97,-10,cs),
(119,-10,o),
(137,8,o),
(137,31,cs),
(137,92,l),
(121,74,l),
(164,20,o),
(228,-15,o),
(300,-15,cs),
(438,-14,o),
(517,114,o),
(517,258,cs)
);
}
);
};
layerId = "3D52442A-254C-4C79-B742-A98FD72DF947";
shapes = (
{
closed = 1;
nodes = (
(431,-15,o),
(505,106,o),
(505,258,cs),
(505,414,o),
(434,530,o),
(299,530,cs),
(198,530,o),
(142,471,o),
(117,430,c),
(125,422,l),
(125,702,ls),
(125,719,o),
(114,730,o),
(97,730,cs),
(80,730,o),
(70,719,o),
(70,702,cs),
(70,18,ls),
(70,0,o),
(80,-10,o),
(97,-10,cs),
(114,-10,o),
(125,0,o),
(125,18,cs),
(125,98,l),
(107,103,l),
(142,37,o),
(206,-15,o),
(291,-15,cs)
);
},
{
closed = 1;
nodes = (
(187,39,o),
(125,116,o),
(125,258,cs),
(125,409,o),
(194,478,o),
(284,478,cs),
(388,478,o),
(450,399,o),
(450,258,cs),
(450,115,o),
(391,36,o),
(282,38,cs)
);
}
);
width = 540;
}
);
metricLeft = "=n";
metricRight = "=o-5";
unicode = 98;
},
{
glyphname = b.ss03;
lastChange = "2021-07-27 15:57:53 +0000";
layers = (
{
layerId = "65988B1E-DCE2-4AC3-A6FF-994A1050067D";
shapes = (
{
closed = 1;
nodes = (
(450,133,o),
(396,61,o),
(295,62,cs),
(201,63,o),
(150,130,o),
(150,258,cs),
(150,386,o),
(201,453,o),
(297,453,cs),
(393,453,o),
(450,381,o),
(450,258,cs)
);
},
{
closed = 1;
nodes = (
(530,402,o),
(451,530,o),
(312,530,cs),
(236,530,o),
(167,484,o),
(153,434,c),
(152,430,o),
(150,431,o),
(150,434,c),
(150,469,l),
(150,685,ls),
(150,707,o),
(132,725,o),
(110,725,cs),
(88,725,o),
(70,707,o),
(70,685,cs),
(70,31,ls),
(70,8,o),
(88,-10,o),
(110,-10,cs),
(132,-10,o),
(150,8,o),
(150,31,cs),
(150,49,l),
(150,85,l),
(150,91,o),
(152,89,o),
(153,85,c),
(171,21,o),
(240,-15,o),
(313,-15,cs),
(451,-15,o),
(530,114,o),
(530,258,cs)
);
}
);
width = 565;
},
{
layerId = "6242D68C-0A25-4F05-8F2A-2075F7C4A210";
width = 600;
},
{
layerId = "3D52442A-254C-4C79-B742-A98FD72DF947";
width = 600;
}
);
metricLeft = "=b";
metricRight = "=b";
},
{
glyphname = b.ss04;
lastChange = "2021-07-27 15:57:53 +0000";
layers = (
{
layerId = "65988B1E-DCE2-4AC3-A6FF-994A1050067D";
shapes = (
{
closed = 1;
nodes = (
(450,133,o),
(396,61,o),
(295,62,cs),
(201,63,o),
(150,130,o),
(150,258,cs),
(150,386,o),
(201,453,o),
(297,453,cs),
(393,453,o),
(450,381,o),
(450,258,cs)
);
},
{
closed = 1;
nodes = (
(530,402,o),
(451,530,o),
(312,530,cs),
(253,530,o),
(190,507,o),
(147,434,c),
(144,434,l),
(146,444,o),
(150,453,o),
(150,488,cs),
(150,685,ls),
(150,707,o),
(132,725,o),
(110,725,cs),
(88,725,o),
(70,707,o),
(70,685,cs),
(70,31,ls),
(70,8,o),
(88,-10,o),
(110,-10,cs),
(132,-10,o),
(150,8,o),
(150,31,cs),
(150,39,ls),
(150,58,o),
(146,66,o),
(144,75,c),
(147,75,l),
(188,9,o),
(253,-15,o),
(313,-15,cs),
(451,-14,o),
(530,114,o),
(530,258,cs)
);
}
);
width = 565;
},
{
layerId = "6242D68C-0A25-4F05-8F2A-2075F7C4A210";
width = 600;
},
{
layerId = "3D52442A-254C-4C79-B742-A98FD72DF947";
width = 600;
}
);
metricLeft = "=b";
metricRight = "=b";
},
{
color = 3;
glyphname = c;
lastChange = "2021-07-27 18:56:14 +0000";
layers = (
{
anchors = (
{
name = bottom;
pos = (265,0);
},
{
name = top;
pos = (266,515);
}
);
layerId = "65988B1E-DCE2-4AC3-A6FF-994A1050067D";
shapes = (
{
closed = 1;
nodes = (
(372,-15,o),
(449,55,o),
(467,146,cs),
(474,180,o),
(456,201,o),
(432,201,cs),
(411,201,o),
(397,185,o),
(394,165,cs),
(384,107,o),
(337,62,o),
(270,62,cs),
(177,62,o),
(120,141,o),
(120,259,cs),
(120,369,o),
(170,453,o),
(270,453,cs),
(333,453,o),
(364,419,o),
(376,397,cs),
(388,375,o),
(397,355,o),
(419,355,cs),
(445,355,o),
(458,375,o),
(454,402,cs),
(444,470,o),
(370,530,o),
(270,530,cs),
(133,530,o),
(40,412,o),
(40,259,cs),
(40,103,o),
(126,-15,o),
(270,-15,cs)
);
}
);
width = 504;
},
{
anchors = (
{
name = bottom;
pos = (280,0);
},
{
name = top;
pos = (280,515);
}
);
background = {
shapes = (
{
pos = (-1,0);
ref = o;
}
);
};
layerId = "6242D68C-0A25-4F05-8F2A-2075F7C4A210";
shapes = (
{
closed = 1;
nodes = (
(404,-15,o),
(525,61,o),
(524,170,cs),
(523,212,o),
(489,240,o),
(451,240,cs),
(409,240,o),
(383,207,o),
(378,175,cs),
(372,139,o),
(334,122,o),
(295,122,cs),
(225,122,o),
(196,175,o),
(196,259,cs),
(196,349,o),
(231,392,o),
(298,392,cs),
(353,392,o),
(360,364,o),
(370,345,cs),
(389,310,o),
(417,296,o),
(449,296,cs),
(494,296,o),
(516,330,o),
(516,369,cs),
(515,449,o),
(409,530,o),
(305,530,cs),
(136,530,o),
(40,394,o),
(40,259,cs),
(40,120,o),
(129,-15,o),
(305,-15,cs)
);
}
);
width = 559;
},
{
anchors = (
{
name = bottom;
pos = (265,0);
},
{
name = top;
pos = (266,515);
}
);
associatedMasterId = "65988B1E-DCE2-4AC3-A6FF-994A1050067D";
layerId = "042D3493-21FF-4C21-B1B2-313DBC6D2E2E";
name = "Original Skeleton";
shapes = (
{
attr = {
strokeWidth = 2;
};
closed = 0;
nodes = (
(453,157,l),
(443,65,o),
(356,0,o),
(271,0,cs),
(155,0,o),
(61,118,o),
(61,263,cs),
(61,409,o),
(155,524,o),
(271,524,cs),
(350,524,o),
(433,468,o),
(433,416,c)
);
}
);
width = 504;
},
{
anchors = (
{
name = bottom;
pos = (252,0);
},
{
name = top;
pos = (253,515);
}
);
layerId = "3D52442A-254C-4C79-B742-A98FD72DF947";
shapes = (
{
closed = 1;
nodes = (
(354,-15,o),
(425,49,o),
(442,136,cs),
(448,165,o),
(437,177,o),
(419,177,cs),
(404,177,o),
(396,168,o),
(393,151,cs),
(382,87,o),
(330,38,o),
(257,38,cs),
(156,38,o),
(95,123,o),
(95,259,cs),
(95,386,o),
(148,478,o),
(257,478,cs),
(326,478,o),
(361,439,o),
(374,415,cs),
(386,393,o),
(392,380,o),
(406,380,cs),
(425,380,o),
(432,390,o),
(429,412,cs),
(419,475,o),
(353,530,o),
(257,530,cs),
(126,530,o),
(40,420,o),
(40,259,cs),
(40,95,o),
(119,-15,o),
(257,-15,cs)
);
}
);
width = 479;
}
);
metricLeft = "=o";
metricRight = "=o-5";
unicode = 99;
},
{
glyphname = ccedilla;
lastChange = "2021-07-27 15:57:53 +0000";
layers = (
{
background = {
shapes = (
{
attr = {
lineCapEnd = "2";
lineCapStart = "2";
strokeHeight = 55;
strokeWidth = 55;
};
closed = 0;
nodes = (
(241,23,l),
(212,-97,l),
(239,-81,o),
(259,-74,o),
(278,-74,cs),
(309,-74,o),
(331,-89,o),
(331,-110,cs),
(331,-145,o),
(294,-170,o),
(242,-170,cs),
(225,-170,o),
(187,-165,o),
(153,-146,c)
);
},
{
attr = {
lineCapEnd = "2";
lineCapStart = "2";
};
closed = 0;
nodes = (
(241,23,l),
(212,-97,l),
(231,-82,o),
(254,-74,o),
(279,-74,cs),
(313,-74,o),
(331,-88,o),
(331,-113,cs),
(331,-147,o),
(297,-170,o),
(247,-170,cs),
(219,-170,o),
(191,-163,o),
(153,-146,c)
);
}
);
};
layerId = "65988B1E-DCE2-4AC3-A6FF-994A1050067D";
shapes = (
{
ref = c;
},
{
pos = (127,0);
ref = cedillacomb;
}
);
width = 504;
},
{
layerId = "6242D68C-0A25-4F05-8F2A-2075F7C4A210";
width = 600;
},
{
layerId = "3D52442A-254C-4C79-B742-A98FD72DF947";
width = 600;
}
);
unicode = 231;
},
{
color = 3;
glyphname = d;
lastChange = "2021-07-27 15:57:53 +0000";
layers = (
{
anchors = (
{
name = bottom;
pos = (285,0);
},
{
name = center;
pos = (285,258);
},
{
name = top;
pos = (285,720);
},
{
name = topright;
pos = (500,720);
}
);
layerId = "65988B1E-DCE2-4AC3-A6FF-994A1050067D";
shapes = (
{
closed = 1;
nodes = (
(120,381,o),
(177,453,o),
(273,453,cs),
(362,453,o),
(420,376,o),
(420,258,cs),
(420,130,o),
(369,63,o),
(275,62,cs),
(176,61,o),
(120,138,o),
(120,258,cs)
);
},
{
closed = 1;
nodes = (
(40,114,o),
(115,-14,o),
(253,-15,cs),
(325,-15,o),
(393,20,o),
(436,84,c),
(420,102,l),
(420,31,ls),
(420,8,o),
(438,-10,o),
(460,-10,cs),
(482,-10,o),
(500,8,o),
(500,31,cs),
(500,690,ls),
(500,712,o),
(482,730,o),
(460,730,cs),
(438,730,o),
(420,712,o),
(420,690,cs),
(420,427,l),
(437,443,l),
(407,491,o),
(334,530,o),
(263,530,cs),
(124,530,o),
(40,402,o),
(40,258,cs)
);
}
);
width = 570;
},
{
layerId = "6242D68C-0A25-4F05-8F2A-2075F7C4A210";
width = 600;
},
{
anchors = (
{
name = bottom;
pos = (285,0);
},
{
name = center;
pos = (285,258);
},
{
name = top;
pos = (285,720);
},
{
name = topright;
pos = (530,720);
}
);
associatedMasterId = "65988B1E-DCE2-4AC3-A6FF-994A1050067D";
layerId = "8241BEDB-FFCE-404B-AED6-1B2CD6AD7BA0";
name = "Original Skeleton";
shapes = (
{
attr = {
strokeWidth = 2;
};
closed = 1;
nodes = (
(61,115,o),
(127,0,o),
(260,0,cs),
(375,0,o),
(461,81,o),
(461,257,cs),
(461,442,o),
(375,515,o),
(260,515,cs),
(130,515,o),
(61,400,o),
(61,257,c)
);
},
{
attr = {
strokeWidth = 2;
};
closed = 0;
nodes = (
(461,700,l),
(461,0,l)
);
}
);
width = 570;
},
{
layerId = "3D52442A-254C-4C79-B742-A98FD72DF947";
width = 600;
}
);
metricLeft = "=o";
metricRight = "=|h";
unicode = 100;
},
{
color = 1;
glyphname = eth;
lastChange = "2021-07-27 15:57:53 +0000";
layers = (
{
background = {
shapes = (
{
closed = 1;
nodes = (
(186,60,o),
(108,145,o),
(108,224,qs),
(108,303,o),
(186,389,o),
(257,389,qs),
(328,389,o),
(406,303,o),
(406,224,qs),
(406,147,o),
(327,60,o),
(257,60,qs)
);
},
{
closed = 0;
nodes = (
(479,643,l),
(146,515,l)
);
},
{
closed = 1;
nodes = (
(402,122,o),
(346,64,o),
(259,64,cs),
(172,64,o),
(116,122,o),
(116,221,cs),
(116,318,o),
(172,375,o),
(259,375,cs),
(346,375,o),
(402,318,o),
(402,221,c)
);
},
{
closed = 1;
nodes = (
(482,355,o),
(384,452,o),
(259,452,cs),
(134,452,o),
(36,355,o),
(36,221,cs),
(36,85,o),
(134,-13,o),
(259,-13,cs),
(384,-13,o),
(482,85,o),
(482,221,cs)
);
},
{
attr = {
lineCapEnd = "1";
lineCapStart = "1";
strokeHeight = 80;
strokeWidth = 80;
};
closed = 0;
nodes = (
(144,682,l),
(359,622,o),
(487,421,o),
(437,174,c)
);
}
);
};
layerId = "65988B1E-DCE2-4AC3-A6FF-994A1050067D";
shapes = (
{
closed = 1;
nodes = (
(402,122,o),
(346,64,o),
(259,64,cs),
(172,64,o),
(116,122,o),
(116,221,cs),
(116,318,o),
(172,375,o),
(259,375,cs),
(346,375,o),
(402,318,o),
(402,221,cs)
);
},
{
closed = 1;
nodes = (
(35,85,o),
(134,-13,o),
(259,-13,cs),
(383,-13,o),
(473,73,o),
(485,216,cs),
(504,461,o),
(373,657,o),
(154,719,cs),
(130,725,o),
(106,707,o),
(106,682,cs),
(106,665,o),
(118,651,o),
(134,647,cs),
(272,611,o),
(354,525,o),
(392,409,c),
(355,436,o),
(309,452,o),
(259,452,cs),
(134,452,o),
(35,355,o),
(35,221,cs)
);
},
{
attr = {
lineCapEnd = 1;
lineCapStart = 1;
strokeHeight = 65;
strokeWidth = 65;
};
closed = 0;
nodes = (
(479,650,l),
(146,524,l)
);
}
);
width = 547;
},
{
layerId = "6242D68C-0A25-4F05-8F2A-2075F7C4A210";
width = 600;
},
{
layerId = "3D52442A-254C-4C79-B742-A98FD72DF947";
width = 600;
}
);
unicode = 240;
},
{
glyphname = dcroat;
lastChange = "2021-07-27 15:57:53 +0000";
layers = (
{
layerId = "65988B1E-DCE2-4AC3-A6FF-994A1050067D";
shapes = (
{
closed = 1;
nodes = (
(115,381,o),
(172,453,o),
(268,453,cs),
(364,453,o),
(415,386,o),
(415,258,cs),
(415,130,o),
(364,63,o),
(270,62,cs),
(169,61,o),
(115,133,o),
(115,258,cs)
);
},
{
closed = 1;
nodes = (
(35,114,o),
(110,-14,o),
(248,-15,cs),
(320,-15,o),
(388,20,o),
(431,84,c),
(415,102,l),
(415,31,ls),
(415,8,o),
(433,-10,o),
(455,-10,cs),
(477,-10,o),
(495,8,o),
(495,31,cs),
(495,690,ls),
(495,712,o),
(477,730,o),
(455,730,cs),
(433,730,o),
(415,712,o),
(415,690,cs),
(415,427,l),
(432,443,l),
(402,491,o),
(329,530,o),
(258,530,cs),
(119,530,o),
(35,402,o),
(35,258,cs)
);
},
{
attr = {
lineCapEnd = "2";
lineCapStart = "2";
strokeHeight = 65;
strokeWidth = 65;
};
closed = 0;
nodes = (
(231,598,l),
(589,598,l)
);
}
);
width = 600;
},
{
layerId = "6242D68C-0A25-4F05-8F2A-2075F7C4A210";
width = 600;
},
{
layerId = "3D52442A-254C-4C79-B742-A98FD72DF947";
width = 600;
}
);
unicode = 273;
},
{
color = 3;
glyphname = e;
lastChange = "2021-07-27 18:55:53 +0000";
layers = (
{
anchors = (
{
name = bottom;
pos = (270,0);
},
{
name = ogonek;
pos = (361,50);
},
{
name = top;
pos = (270,515);
}
);
layerId = "65988B1E-DCE2-4AC3-A6FF-994A1050067D";
shapes = (
{
closed = 1;
nodes = (
(356,-15,o),
(421,32,o),
(453,80,cs),
(482,123,o),
(458,155,o),
(432,155,cs),
(408,155,o),
(397,134,o),
(390,123,cs),
(372,94,o),
(330,62,o),
(269,62,cs),
(192,62,o),
(120,115,o),
(120,260,cs),
(120,386,o),
(180,453,o),
(267,453,cs),
(362,453,o),
(413,373,o),
(414,282,c),
(443,307,l),
(104,307,l),
(104,234,l),
(431,234,ls),
(469,234,o),
(488,255,o),
(488,293,cs),
(488,422,o),
(400,530,o),
(270,530,cs),
(139,530,o),
(40,420,o),
(40,255,cs),
(40,76,o),
(151,-15,o),
(271,-15,cs)
);
}
);
width = 528;
},
{
anchors = (
{
name = bottom;
pos = (293,0);
},
{
name = ogonek;
pos = (531,10);
},
{
name = top;
pos = (293,515);
}
);
background = {
shapes = (
{
pos = (-5,0);
ref = o;
}
);
};
layerId = "6242D68C-0A25-4F05-8F2A-2075F7C4A210";
shapes = (
{
closed = 1;
nodes = (
(416,-15,o),
(518,53,o),
(519,126,cs),
(519,157,o),
(500,190,o),
(450,190,cs),
(416,190,o),
(395,176,o),
(382,156,cs),
(369,135,o),
(343,121,o),
(297,121,cs),
(242,121,o),
(195,142,o),
(195,260,cs),
(195,355,o),
(232,393,o),
(292,393,cs),
(357,393,o),
(391,355,o),
(393,275,c),
(443,310,l),
(94,310,l),
(94,214,l),
(456,214,ls),
(514,214,o),
(543,247,o),
(543,289,cs),
(543,404,o),
(446,530,o),
(295,530,cs),
(133,530,o),
(40,404,o),
(40,255,cs),
(40,90,o),
(161,-15,o),
(296,-15,cs)
);
}
);
width = 583;
},
{
anchors = (
{
name = bottom;
pos = (270,0);
},
{
name = ogonek;
pos = (361,50);
},
{
name = top;
pos = (270,515);
}
);
associatedMasterId = "65988B1E-DCE2-4AC3-A6FF-994A1050067D";
layerId = "B03668A1-ACF4-4090-96CD-4D63CC54FB07";
name = "Original Skeleton";
shapes = (
{
attr = {
strokeWidth = 2;
};
closed = 0;
nodes = (
(477,111,l),
(477,77,o),
(389,0,o),
(279,0,cs),
(157,0,o),
(61,94,o),
(61,260,cs),
(61,406,o),
(156,521,o),
(278,521,cs),
(400,521,o),
(496,418,o),
(496,280,c),
(62,280,l)
);
}
);
width = 528;
},
{
anchors = (
{
name = bottom;
pos = (252,0);
},
{
name = ogonek;
pos = (453,10);
},
{
name = top;
pos = (252,515);
}
);
background = {
shapes = (
{
ref = o;
}
);
};
layerId = "3D52442A-254C-4C79-B742-A98FD72DF947";
shapes = (
{
closed = 1;
nodes = (
(367,-15,o),
(439,49,o),
(456,136,cs),
(462,165,o),
(451,177,o),
(433,177,cs),
(418,177,o),
(410,168,o),
(407,151,cs),
(396,87,o),
(344,38,o),
(261,38,cs),
(178,38,o),
(95,95,o),
(95,260,cs),
(95,405,o),
(164,478,o),
(259,478,cs),
(358,478,o),
(422,405,o),
(422,278,c),
(436,286,l),
(84,286,l),
(83,238,l),
(428,238,ls),
(460,238,o),
(473,251,o),
(473,284,cs),
(473,421,o),
(391,530,o),
(262,530,cs),
(137,530,o),
(40,427,o),
(40,255,cs),
(40,70,o),
(147,-15,o),
(260,-15,cs)
);
}
);
width = 513;
}
);
metricLeft = "=o";
metricRight = "=o";
unicode = 101;
},
{
glyphname = f;
lastChange = "2021-07-27 15:57:53 +0000";
layers = (
{
background = {
shapes = (
{
closed = 1;
nodes = (
(90,543,l),
(68,543,o),
(50,525,o),
(50,503,c),
(50,481,o),
(68,463,o),
(90,463,c),
(180,463,l),
(202,463,o),
(220,481,o),
(220,503,c),
(220,525,o),
(202,543,o),
(180,543,c)
);
},
{
closed = 1;
nodes = (
(161,621,l),
(161,638,o),
(162,639,o),
(189,639,c),
(211,639,o),
(229,657,o),
(229,679,c),
(229,701,o),
(211,719,o),
(189,719,c),
(116,719,o),
(81,670,o),
(81,621,c),
(81,40,l),
(81,18,o),
(99,0,o),
(121,0,c),
(143,0,o),
(161,18,o),
(161,40,c)
);
},
{
closed = 1;
nodes = (
(103,8,o),
(121,-10,o),
(143,-10,cs),
(165,-10,o),
(183,8,o),
(183,30,cs),
(183,603,ls),
(183,623,o),
(193,640,o),
(209,640,cs),
(245,640,ls),
(267,640,o),
(285,658,o),
(285,680,cs),
(285,702,o),
(267,720,o),
(245,720,cs),
(196,720,ls),
(137,720,o),
(103,663,o),
(103,608,cs),
(103,30,ls)
);
}
);
};
layerId = "65988B1E-DCE2-4AC3-A6FF-994A1050067D";
shapes = (
{
closed = 1;
nodes = (
(38,515,o),
(20,499,o),
(20,478,cs),
(20,458,o),
(38,442,o),
(60,442,cs),
(251,442,ls),
(273,442,o),
(291,458,o),
(291,478,cs),
(291,498,o),
(273,515,o),
(251,515,cs),
(60,515,ls)
);
},
{
closed = 1;
nodes = (
(263,709,o),
(232,719,o),
(206,719,cs),
(148,719,o),
(87,678,o),
(87,563,cs),
(87,30,ls),
(87,8,o),
(105,-10,o),
(127,-10,cs),
(149,-10,o),
(167,8,o),
(167,30,cs),
(167,563,ls),
(167,619,o),
(182,639,o),
(203,639,cs),
(210,639,o),
(219,638,o),
(229,629,cs),
(235,624,o),
(245,619,o),
(257,619,cs),
(279,619,o),
(295,637,o),
(295,659,cs),
(295,670,o),
(291,679,o),
(282,689,cs)
);
}
);
width = 325;
},
{
layerId = "6242D68C-0A25-4F05-8F2A-2075F7C4A210";
width = 600;
},
{
associatedMasterId = "65988B1E-DCE2-4AC3-A6FF-994A1050067D";
background = {
shapes = (
{
closed = 1;
nodes = (
(90,543,l),
(68,543,o),
(50,525,o),
(50,503,c),
(50,481,o),
(68,463,o),
(90,463,c),
(180,463,l),
(202,463,o),
(220,481,o),
(220,503,c),
(220,525,o),
(202,543,o),
(180,543,c)
);
},
{
closed = 1;
nodes = (
(161,621,l),
(161,638,o),
(162,639,o),
(189,639,c),
(211,639,o),
(229,657,o),
(229,679,c),
(229,701,o),
(211,719,o),
(189,719,c),
(116,719,o),
(81,670,o),
(81,621,c),
(81,40,l),
(81,18,o),
(99,0,o),
(121,0,c),
(143,0,o),
(161,18,o),
(161,40,c)
);
},
{
closed = 1;
nodes = (
(103,8,o),
(121,-10,o),
(143,-10,cs),
(165,-10,o),
(183,8,o),
(183,30,cs),
(183,603,ls),
(183,623,o),
(193,640,o),
(209,640,cs),
(245,640,ls),
(267,640,o),
(285,658,o),
(285,680,cs),
(285,702,o),
(267,720,o),
(245,720,cs),
(196,720,ls),
(137,720,o),
(103,663,o),
(103,608,cs),
(103,30,ls)
);
}
);
};
layerId = "94C18D80-5646-461F-A606-406D0063423D";
name = "Original Skeleton";
shapes = (
{
attr = {
strokeWidth = 2;
};
closed = 0;
nodes = (
(100,512,l),
(201,512,l)
);
},
{
attr = {
strokeWidth = 2;
};
closed = 0;
nodes = (
(211,705,l),
(160,705,o),
(136,677,o),
(136,642,cs),
(136,0,l)
);
}
);
width = 325;
},
{
layerId = "3D52442A-254C-4C79-B742-A98FD72DF947";
width = 600;
}
);
metricLeft = "=f";
metricRight = "=f";
unicode = 102;
},
{
glyphname = f.ss02;
lastChange = "2021-07-27 15:57:53 +0000";
layers = (
{
background = {
shapes = (
{
closed = 1;
nodes = (
(80,543,l),
(58,543,o),
(40,525,o),
(40,503,c),
(40,481,o),
(58,463,o),
(80,463,c),
(170,463,l),
(192,463,o),
(210,481,o),
(210,503,c),
(210,525,o),
(192,543,o),
(170,543,c)
);
},
{
closed = 1;
nodes = (
(151,621,l),
(151,638,o),
(152,639,o),
(179,639,c),
(201,639,o),
(219,657,o),
(219,679,c),
(219,701,o),
(201,719,o),
(179,719,c),
(106,719,o),
(71,670,o),
(71,621,c),
(71,40,l),
(71,18,o),
(89,0,o),
(111,0,c),
(133,0,o),
(151,18,o),
(151,40,c)
);
}
);
};
layerId = "65988B1E-DCE2-4AC3-A6FF-994A1050067D";
shapes = (
{
closed = 1;
nodes = (
(93,8,o),
(111,-10,o),
(133,-10,cs),
(155,-10,o),
(173,8,o),
(173,30,cs),
(173,603,ls),
(173,623,o),
(183,640,o),
(199,640,cs),
(235,640,ls),
(257,640,o),
(275,658,o),
(275,680,cs),
(275,702,o),
(257,720,o),
(235,720,cs),
(186,720,ls),
(127,720,o),
(93,663,o),
(93,608,cs),
(93,30,ls)
);
},
{
closed = 1;
nodes = (
(38,515,o),
(20,499,o),
(20,478,cs),
(20,458,o),
(38,442,o),
(60,442,cs),
(231,442,ls),
(253,442,o),
(271,458,o),
(271,478,cs),
(271,498,o),
(253,515,o),
(231,515,cs),
(60,515,ls)
);
}
);
width = 305;
},
{
layerId = "6242D68C-0A25-4F05-8F2A-2075F7C4A210";
width = 600;
},
{
layerId = "3D52442A-254C-4C79-B742-A98FD72DF947";
width = 600;
}
);
},
{
color = 3;
glyphname = g;
lastChange = "2021-07-27 15:57:53 +0000";
layers = (
{
anchors = (
{
name = bottom;
pos = (281,-170);
},
{
name = top;
pos = (281,515);
}
);
background = {
shapes = (
{
closed = 1;
nodes = (
(1027,110,o),
(944,67,o),
(882,67,cs),
(797,67,o),
(735,150,o),
(735,255,cs),
(735,368,o),
(797,453,o),
(882,453,cs),
(952,453,o),
(1027,392,o),
(1027,269,cs)
);
},
{
closed = 1;
nodes = (
(655,112,o),
(747,-10,o),
(882,-10,cs),
(940,-10,o),
(983,17,o),
(1025,68,c),
(1027,68,l),
(1027,24,ls),
(1027,-33,o),
(978,-103,o),
(887,-103,cs),
(812,-103,o),
(778,-73,o),
(766,-61,cs),
(751,-45,o),
(749,-32,o),
(724,-32,cs),
(705,-32,o),
(687,-50,o),
(687,-72,cs),
(687,-115,o),
(766,-180,o),
(883,-180,cs),
(1021,-180,o),
(1107,-92,o),
(1107,52,cs),
(1107,485,ls),
(1107,507,o),
(1089,525,o),
(1067,525,cs),
(1044,525,o),
(1027,507,o),
(1027,485,cs),
(1027,464,l),
(987,506,o),
(936,530,o),
(882,530,cs),
(742,530,o),
(655,403,o),
(655,255,cs)
);
},
{
closed = 1;
nodes = (
(40,112,o),
(113,-16,o),
(267,-16,cs),
(329,-16,o),
(375,13,o),
(408,69,c),
(409,71,o),
(412,71,o),
(412,69,c),
(412,24,ls),
(412,-33,o),
(363,-103,o),
(272,-103,cs),
(197,-103,o),
(163,-73,o),
(151,-61,cs),
(136,-45,o),
(134,-32,o),
(109,-32,cs),
(90,-32,o),
(72,-50,o),
(72,-72,cs),
(72,-115,o),
(151,-180,o),
(268,-180,cs),
(406,-180,o),
(492,-92,o),
(492,52,cs),
(492,485,ls),
(492,507,o),
(474,525,o),
(452,525,cs),
(429,525,o),
(412,507,o),
(412,485,cs),
(412,464,l),
(372,506,o),
(321,530,o),
(267,530,cs),
(127,530,o),
(40,403,o),
(40,255,cs)
);
},
{
closed = 1;
nodes = (
(414,8,o),
(432,-10,o),
(454,-10,cs),
(476,-10,o),
(494,8,o),
(494,30,cs),
(494,485,ls),
(494,507,o),
(476,525,o),
(454,525,cs),
(432,525,o),
(414,507,o),
(414,485,cs),
(414,463,l),
(414,30,ls)
);
},
{
closed = 1;
nodes = (
(388,503,o),
(326,530,o),
(262,530,cs),
(151,530,o),
(74,455,o),
(74,335,cs),
(75,30,ls),
(75,8,o),
(93,-10,o),
(115,-10,cs),
(137,-10,o),
(155,8,o),
(155,30,cs),
(155,340,ls),
(155,413,o),
(202,454,o),
(274,454,cs),
(347,454,o),
(414,404,o),
(414,353,c),
(425,353,l),
(425,449,l)
);
}
);
};
layerId = "65988B1E-DCE2-4AC3-A6FF-994A1050067D";
shapes = (
{
closed = 1;
nodes = (
(412,120,o),
(329,71,o),
(267,71,cs),
(182,71,o),
(120,160,o),
(120,259,cs),
(120,368,o),
(182,453,o),
(270,453,cs),
(355,453,o),
(412,392,o),
(412,264,cs)
);
},
{
closed = 1;
nodes = (
(40,122,o),
(113,-6,o),
(259,-6,cs),
(329,-6,o),
(378,23,o),
(411,79,c),
(412,81,o),
(415,81,o),
(415,79,c),
(415,55,ls),
(415,-25,o),
(372,-106,o),
(268,-106,cs),
(197,-106,o),
(163,-73,o),
(151,-61,cs),
(136,-45,o),
(134,-32,o),
(109,-32,cs),
(90,-32,o),
(72,-50,o),
(72,-72,cs),
(72,-118,o),
(151,-180,o),
(268,-180,cs),
(410,-180,o),
(492,-95,o),
(492,52,cs),
(492,485,ls),
(492,507,o),
(474,525,o),
(452,525,cs),
(429,525,o),
(412,507,o),
(412,485,cs),
(412,450,l),
(389,496,o),
(339,530,o),
(263,530,cs),
(127,530,o),
(40,403,o),
(40,255,cs)
);
}
);
width = 562;
},
{
layerId = "6242D68C-0A25-4F05-8F2A-2075F7C4A210";
width = 600;
},
{
anchors = (
{
name = bottom;
pos = (281,-170);
},
{
name = top;
pos = (281,515);
}
);
associatedMasterId = "65988B1E-DCE2-4AC3-A6FF-994A1050067D";
background = {
shapes = (
{
closed = 1;
nodes = (
(1027,110,o),
(944,67,o),
(882,67,cs),
(797,67,o),
(735,150,o),
(735,255,cs),
(735,368,o),
(797,453,o),
(882,453,cs),
(952,453,o),
(1027,392,o),
(1027,269,cs)
);
},
{
closed = 1;
nodes = (
(655,112,o),
(747,-10,o),
(882,-10,cs),
(940,-10,o),
(983,17,o),
(1025,68,c),
(1027,68,l),
(1027,24,ls),
(1027,-33,o),
(978,-103,o),
(887,-103,cs),
(812,-103,o),
(778,-73,o),
(766,-61,cs),
(751,-45,o),
(749,-32,o),
(724,-32,cs),
(705,-32,o),
(687,-50,o),
(687,-72,cs),
(687,-115,o),
(766,-180,o),
(883,-180,cs),
(1021,-180,o),
(1107,-92,o),
(1107,52,cs),
(1107,485,ls),
(1107,507,o),
(1089,525,o),
(1067,525,cs),
(1044,525,o),
(1027,507,o),
(1027,485,cs),
(1027,464,l),
(987,506,o),
(936,530,o),
(882,530,cs),
(742,530,o),
(655,403,o),
(655,255,cs)
);
},
{
closed = 1;
nodes = (
(40,112,o),
(113,-16,o),
(267,-16,cs),
(329,-16,o),
(375,13,o),
(408,69,c),
(409,71,o),
(412,71,o),
(412,69,c),
(412,24,ls),
(412,-33,o),
(363,-103,o),
(272,-103,cs),
(197,-103,o),
(163,-73,o),
(151,-61,cs),
(136,-45,o),
(134,-32,o),
(109,-32,cs),
(90,-32,o),
(72,-50,o),
(72,-72,cs),
(72,-115,o),
(151,-180,o),
(268,-180,cs),
(406,-180,o),
(492,-92,o),
(492,52,cs),
(492,485,ls),
(492,507,o),
(474,525,o),
(452,525,cs),
(429,525,o),
(412,507,o),
(412,485,cs),
(412,464,l),
(372,506,o),
(321,530,o),
(267,530,cs),
(127,530,o),
(40,403,o),
(40,255,cs)
);
},
{
closed = 1;
nodes = (
(414,8,o),
(432,-10,o),
(454,-10,cs),
(476,-10,o),
(494,8,o),
(494,30,cs),
(494,485,ls),
(494,507,o),
(476,525,o),
(454,525,cs),
(432,525,o),
(414,507,o),
(414,485,cs),
(414,463,l),
(414,30,ls)
);
},
{
closed = 1;
nodes = (
(388,503,o),
(326,530,o),
(262,530,cs),
(151,530,o),
(74,455,o),
(74,335,cs),
(75,30,ls),
(75,8,o),
(93,-10,o),
(115,-10,cs),
(137,-10,o),
(155,8,o),
(155,30,cs),
(155,340,ls),
(155,413,o),
(202,454,o),
(274,454,cs),
(347,454,o),
(414,404,o),
(414,353,c),
(425,353,l),
(425,449,l)
);
}
);
};
layerId = "162E22A4-34C9-431B-99F9-2C0FEA36F42F";
name = "Original Skeleton";
shapes = (
{
attr = {
strokeWidth = 2;
};
closed = 1;
nodes = (
(454,80,o),
(367,-6,o),
(269,-6,cs),
(154,-6,o),
(61,112,o),
(61,258,cs),
(61,403,o),
(154,521,o),
(269,521,cs),
(366,521,o),
(452,446,o),
(477,328,c),
(477,195,l)
);
},
{
attr = {
strokeWidth = 2;
};
closed = 0;
nodes = (
(477,500,l),
(477,10,ls),
(477,-96,o),
(381,-198,o),
(247,-198,cs),
(158,-198,o),
(111,-149,o),
(111,-123,c)
);
}
);
width = 562;
},
{
layerId = "3D52442A-254C-4C79-B742-A98FD72DF947";
width = 600;
}
);
metricLeft = o;
metricRight = l;
unicode = 103;
},
{
glyphname = h;
lastChange = "2021-07-27 15:57:53 +0000";
layers = (
{
anchors = (
{
name = bottom;
pos = (273,0);
},
{
name = center;
pos = (273,360);
},
{
name = top;
pos = (273,720);
}
);
layerId = "65988B1E-DCE2-4AC3-A6FF-994A1050067D";
shapes = (
{
closed = 1;
nodes = (
(150,690,ls),
(150,712,o),
(132,730,o),
(110,730,cs),
(87,730,o),
(70,712,o),
(70,690,cs),
(70,30,ls),
(70,8,o),
(87,-10,o),
(110,-10,cs),
(132,-10,o),
(150,8,o),
(150,30,cs)
);
},
{
closed = 1;
nodes = (
(139,333,l),
(150,343,l),
(150,403,o),
(215,451,o),
(288,451,cs),
(352,451,o),
(405,412,o),
(405,344,cs),
(405,30,ls),
(405,8,o),
(423,-10,o),
(445,-10,cs),
(467,-10,o),
(485,8,o),
(485,30,cs),
(485,344,ls),
(485,468,o),
(385,530,o),
(295,530,cs),
(230,530,o),
(180,498,o),
(139,449,c)
);
}
);
width = 545;
},
{
anchors = (
{
name = bottom;
pos = (308,0);
},
{
name = center;
pos = (308,360);
},
{
name = top;
pos = (308,720);
}
);
background = {
shapes = (
{
closed = 1;
nodes = (
(185,690,ls),
(185,712,o),
(167,730,o),
(145,730,cs),
(122,730,o),
(105,712,o),
(105,690,cs),
(105,30,ls),
(105,8,o),
(122,-10,o),
(145,-10,cs),
(167,-10,o),
(185,8,o),
(185,30,cs)
);
},
{
closed = 1;
nodes = (
(174,333,l),
(185,343,l),
(185,403,o),
(250,451,o),
(323,451,cs),
(387,451,o),
(440,412,o),
(440,344,cs),
(440,30,ls),
(440,8,o),
(458,-10,o),
(480,-10,cs),
(502,-10,o),
(520,8,o),
(520,30,cs),
(520,344,ls),
(520,468,o),
(420,530,o),
(330,530,cs),
(265,530,o),
(215,498,o),
(185,463,c),
(174,449,l)
);
}
);
};
layerId = "6242D68C-0A25-4F05-8F2A-2075F7C4A210";
shapes = (
{
closed = 1;
nodes = (
(220,655,ls),
(220,696,o),
(186,730,o),
(145,730,cs),
(103,730,o),
(70,696,o),
(70,655,cs),
(70,65,ls),
(70,24,o),
(103,-10,o),
(145,-10,cs),
(186,-10,o),
(220,24,o),
(220,65,cs)
);
},
{
closed = 1;
nodes = (
(205,266,l),
(220,294,l),
(220,347,o),
(255,389,o),
(323,389,cs),
(376,389,o),
(405,359,o),
(405,309,cs),
(405,65,ls),
(405,24,o),
(439,-10,o),
(480,-10,cs),
(521,-10,o),
(555,24,o),
(555,65,cs),
(555,309,ls),
(555,456,o),
(455,530,o),
(358,530,cs),
(271,530,o),
(226,475,o),
(205,448,c)
);
}
);
width = 615;
},
{
anchors = (
{
name = bottom;
pos = (273,0);
},
{
name = center;
pos = (273,360);
},
{
name = top;
pos = (273,720);
}
);
associatedMasterId = "65988B1E-DCE2-4AC3-A6FF-994A1050067D";
layerId = "591747D3-B7C5-4FC0-BB72-0F0E3BCE5259";
name = "Original Skeleton";
shapes = (
{
attr = {
strokeWidth = 2;
};
closed = 0;
nodes = (
(101,262,l),
(101,447,o),
(189,515,o),
(301,515,cs),
(431,515,o),
(458,400,o),
(458,258,cs),
(458,0,l)
);
},
{
attr = {
strokeWidth = 2;
};
closed = 0;
nodes = (
(101,700,l),
(101,0,l)
);
}
);
width = 545;
},
{
anchors = (
{
name = bottom;
pos = (260,0);
},
{
name = center;
pos = (260,360);
},
{
name = top;
pos = (260,720);
}
);
background = {
shapes = (
{
closed = 1;
nodes = (
(137,690,ls),
(137,712,o),
(119,730,o),
(97,730,cs),
(74,730,o),
(57,712,o),
(57,690,cs),
(57,30,ls),
(57,8,o),
(74,-10,o),
(97,-10,cs),
(119,-10,o),
(137,8,o),
(137,30,cs)
);
},
{
closed = 1;
nodes = (
(126,333,l),
(137,343,l),
(137,403,o),
(202,451,o),
(275,451,cs),
(339,451,o),
(392,412,o),
(392,344,cs),
(392,30,ls),
(392,8,o),
(410,-10,o),
(432,-10,cs),
(454,-10,o),
(472,8,o),
(472,30,cs),
(472,344,ls),
(472,468,o),
(372,530,o),
(282,530,cs),
(217,530,o),
(167,498,o),
(137,463,c),
(126,449,l)
);
}
);
};
layerId = "3D52442A-254C-4C79-B742-A98FD72DF947";
shapes = (
{
closed = 1;
nodes = (
(125,702,ls),
(125,719,o),
(114,730,o),
(97,730,cs),
(79,730,o),
(70,719,o),
(70,702,cs),
(70,17,ls),
(70,0,o),
(79,-10,o),
(97,-10,cs),
(114,-10,o),
(125,0,o),
(125,17,cs)
);
},
{
closed = 1;
nodes = (
(121,340,l),
(125,349,l),
(129,414,o),
(198,464,o),
(275,464,cs),
(345,464,o),
(405,420,o),
(405,344,cs),
(405,17,ls),
(405,0,o),
(415,-10,o),
(432,-10,cs),
(449,-10,o),
(460,0,o),
(460,17,cs),
(460,344,ls),
(460,461,o),
(368,518,o),
(282,518,cs),
(221,518,o),
(157,495,o),
(120,436,c)
);
}
);
width = 520;
}
);
metricLeft = "=n";
metricRight = "=n";
unicode = 104;
},
{
glyphname = h.ss03;
lastChange = "2021-07-27 15:57:53 +0000";
layers = (
{
background = {
shapes = (
{
ref = n.ss03;
}
);
};
layerId = "65988B1E-DCE2-4AC3-A6FF-994A1050067D";
shapes = (
{
closed = 1;
nodes = (
(150,313,ls),
(150,403,o),
(215,451,o),
(288,451,cs),
(351,451,o),
(405,417,o),
(405,344,cs),
(405,30,ls),
(405,8,o),
(423,-10,o),
(445,-10,cs),
(467,-10,o),
(485,8,o),
(485,30,cs),
(485,344,ls),
(485,468,o),
(385,530,o),
(302,530,cs),
(230,530,o),
(168,484,o),
(153,434,c),
(151,427,o),
(150,430,o),
(150,434,c),
(150,472,l),
(150,690,ls),
(150,712,o),
(132,730,o),
(110,730,cs),
(87,730,o),
(70,712,o),
(70,690,cs),
(70,30,ls),
(70,8,o),
(87,-10,o),
(110,-10,cs),
(132,-10,o),
(150,8,o),
(150,30,cs)
);
}
);
width = 545;
},
{
layerId = "6242D68C-0A25-4F05-8F2A-2075F7C4A210";
width = 600;
},
{
layerId = "3D52442A-254C-4C79-B742-A98FD72DF947";
width = 600;
}
);
metricLeft = "=h";
metricRight = "=h";
},
{
glyphname = h.ss04;
lastChange = "2021-07-27 15:57:53 +0000";
layers = (
{
layerId = "65988B1E-DCE2-4AC3-A6FF-994A1050067D";
shapes = (
{
closed = 1;
nodes = (
(150,323,ls),
(150,403,o),
(215,451,o),
(288,451,cs),
(353,451,o),
(405,414,o),
(405,344,cs),
(405,30,ls),
(405,8,o),
(423,-10,o),
(445,-10,cs),
(467,-10,o),
(485,8,o),
(485,30,cs),
(485,344,ls),
(485,468,o),
(385,530,o),
(297,530,cs),
(230,530,o),
(168,494,o),
(147,444,c),
(144,444,l),
(146,453,o),
(150,463,o),
(150,494,cs),
(150,690,ls),
(150,712,o),
(132,730,o),
(110,730,cs),
(87,730,o),
(70,712,o),
(70,690,cs),
(70,30,ls),
(70,8,o),
(87,-10,o),
(110,-10,cs),
(132,-10,o),
(150,8,o),
(150,30,cs)
);
}
);
width = 545;
},
{
layerId = "6242D68C-0A25-4F05-8F2A-2075F7C4A210";
width = 600;
},
{
layerId = "3D52442A-254C-4C79-B742-A98FD72DF947";
width = 600;
}
);
metricLeft = "=h";
metricRight = "=h";
},
{
glyphname = hbar;
lastChange = "2021-07-27 15:57:53 +0000";
layers = (
{
layerId = "65988B1E-DCE2-4AC3-A6FF-994A1050067D";
shapes = (
{
ref = h;
},
{
attr = {
lineCapEnd = "2";
lineCapStart = "2";
strokeHeight = 65;
strokeWidth = 65;
};
closed = 0;
nodes = (
(-29,598,l),
(329,598,l)
);
}
);
width = 545;
},
{
layerId = "6242D68C-0A25-4F05-8F2A-2075F7C4A210";
width = 600;
},
{
layerId = "3D52442A-254C-4C79-B742-A98FD72DF947";
width = 600;
}
);
unicode = 295;
},
{
glyphname = i;
lastChange = "2021-07-27 18:54:33 +0000";
layers = (
{
anchors = (
{
name = bottom;
pos = (115,0);
}
);
background = {
shapes = (
{
closed = 0;
nodes = (
(153,-68,l),
(153,485,ls),
(153,507,o),
(135,525,o),
(113,525,cs),
(91,525,o),
(73,507,o),
(73,485,cs),
(73,-63,ls)
);
}
);
};
layerId = "65988B1E-DCE2-4AC3-A6FF-994A1050067D";
shapes = (
{
closed = 1;
nodes = (
(160,647,ls),
(160,669,o),
(142,687,o),
(115,687,cs),
(88,687,o),
(70,669,o),
(70,647,cs),
(70,628,ls),
(70,606,o),
(88,588,o),
(115,588,cs),
(142,588,o),
(160,606,o),
(160,628,cs)
);
},
{
closed = 1;
nodes = (
(155,485,ls),
(155,507,o),
(137,525,o),
(115,525,cs),
(92,525,o),
(75,507,o),
(75,485,cs),
(75,30,ls),
(75,8,o),
(92,-10,o),
(115,-10,cs),
(137,-10,o),
(155,8,o),
(155,30,cs)
);
}
);
width = 230;
},
{
anchors = (
{
name = bottom;
pos = (115,0);
}
);
layerId = "6242D68C-0A25-4F05-8F2A-2075F7C4A210";
shapes = (
{
closed = 1;
nodes = (
(220,658,ls),
(220,695,o),
(190,725,o),
(145,725,cs),
(100,725,o),
(70,695,o),
(70,658,cs),
(70,639,ls),
(70,602,o),
(100,572,o),
(145,572,cs),
(190,572,o),
(220,602,o),
(220,639,cs)
);
},
{
closed = 1;
nodes = (
(220,450,ls),
(220,491,o),
(186,525,o),
(145,525,cs),
(104,525,o),
(70,491,o),
(70,450,cs),
(70,66,ls),
(70,24,o),
(104,-10,o),
(145,-10,cs),
(186,-10,o),
(220,24,o),
(220,66,cs)
);
}
);
width = 290;
},
{
anchors = (
{
name = bottom;
pos = (115,0);
}
);
associatedMasterId = "65988B1E-DCE2-4AC3-A6FF-994A1050067D";
layerId = "675A5749-00D6-41EE-9D2A-213B199410CE";
name = "Original Skeleton";
shapes = (
{
attr = {
strokeHeight = 2;
strokeWidth = 2;
};
closed = 0;
nodes = (
(114,505,l),
(114,0,l)
);
},
{
attr = {
strokeHeight = 2;
strokeWidth = 2;
};
closed = 0;
nodes = (
(114,700,l),
(114,680,l)
);
}
);
width = 230;
},
{
anchors = (
{
name = bottom;
pos = (103,0);
}
);
layerId = "3D52442A-254C-4C79-B742-A98FD72DF947";
shapes = (
{
closed = 1;
nodes = (
(135,642,ls),
(135,659,o),
(124,675,o),
(102,675,cs),
(80,675,o),
(70,659,o),
(70,642,cs),
(70,633,ls),
(70,616,o),
(80,601,o),
(102,601,cs),
(124,601,o),
(135,616,o),
(135,633,cs)
);
},
{
closed = 1;
nodes = (
(130,494,ls),
(130,511,o),
(119,525,o),
(102,525,cs),
(84,525,o),
(75,511,o),
(75,494,cs),
(75,20,ls),
(75,3,o),
(84,-10,o),
(102,-10,cs),
(119,-10,o),
(130,3,o),
(130,20,cs)
);
}
);
width = 205;
}
);
metricLeft = "=n";
metricRight = "=|n";
unicode = 105;
},
{
color = 3;
glyphname = idotless;
lastChange = "2021-07-27 15:57:53 +0000";
layers = (
{
anchors = (
{
name = bottom;
pos = (111,0);
},
{
name = ogonek;
pos = (99,11);
},
{
name = top;
pos = (111,515);
}
);
layerId = "65988B1E-DCE2-4AC3-A6FF-994A1050067D";
shapes = (
{
closed = 1;
nodes = (
(152,485,ls),
(152,507,o),
(134,525,o),
(111,525,cs),
(87,525,o),
(70,507,o),
(70,485,cs),
(70,30,ls),
(70,8,o),
(87,-10,o),
(111,-10,cs),
(134,-10,o),
(152,8,o),
(152,30,cs)
);
}
);
width = 222;
},
{
layerId = "6242D68C-0A25-4F05-8F2A-2075F7C4A210";
width = 600;
},
{
layerId = "3D52442A-254C-4C79-B742-A98FD72DF947";
width = 600;
}
);
unicode = 305;
},
{
glyphname = j;
lastChange = "2021-07-27 15:57:53 +0000";
layers = (
{
background = {
shapes = (
{
closed = 1;
nodes = (
(599,-79,ls),
(599,-90,o),
(599,-90,o),
(587,-90,cs),
(565,-90,o),
(547,-108,o),
(547,-130,cs),
(547,-152,o),
(565,-170,o),
(587,-170,cs),
(659,-170,o),
(679,-125,o),
(679,-79,cs),
(679,485,ls),
(679,507,o),
(661,525,o),
(639,525,cs),
(617,525,o),
(599,507,o),
(599,485,cs)
);
}
);
};
layerId = "65988B1E-DCE2-4AC3-A6FF-994A1050067D";
shapes = (
{
ref = jdotless;
},
{
pos = (44,0);
ref = dotaccentcomb;
}
);
width = 233;
},
{
layerId = "6242D68C-0A25-4F05-8F2A-2075F7C4A210";
width = 600;
},
{
associatedMasterId = "65988B1E-DCE2-4AC3-A6FF-994A1050067D";
background = {
shapes = (
{
closed = 1;
nodes = (
(599,-79,ls),
(599,-90,o),
(599,-90,o),
(587,-90,cs),
(565,-90,o),
(547,-108,o),
(547,-130,cs),
(547,-152,o),
(565,-170,o),
(587,-170,cs),
(659,-170,o),
(679,-125,o),
(679,-79,cs),
(679,485,ls),
(679,507,o),
(661,525,o),
(639,525,cs),
(617,525,o),
(599,507,o),
(599,485,cs)
);
}
);
};
layerId = "BF4B0C62-C867-4AF3-8C5D-D3563B2BD05B";
name = "Original Skeleton";
shapes = (
{
attr = {
strokeHeight = 2;
strokeWidth = 2;
};
closed = 0;
nodes = (
(117,695,l),
(117,685,l)
);
},
{
attr = {
strokeHeight = 2;
strokeWidth = 2;
};
closed = 0;
nodes = (
(63,-137,l),
(115,-137,o),
(117,-108,o),
(117,-83,c),
(117,505,l)
);
}
);
width = 233;
},
{
layerId = "3D52442A-254C-4C79-B742-A98FD72DF947";
width = 600;
}
);
unicode = 106;
},
{
glyphname = j.ss02;
lastChange = "2021-07-27 15:57:53 +0000";
layers = (
{
background = {
shapes = (
{
closed = 1;
nodes = (
(114,-79,ls),
(114,-90,o),
(114,-90,o),
(102,-90,cs),
(80,-90,o),
(62,-108,o),
(62,-130,cs),
(62,-152,o),
(80,-170,o),
(102,-170,cs),
(174,-170,o),
(194,-125,o),
(194,-79,cs),
(194,485,ls),
(194,507,o),
(176,525,o),
(154,525,cs),
(132,525,o),
(114,507,o),
(114,485,cs)
);
}
);
};
layerId = "65988B1E-DCE2-4AC3-A6FF-994A1050067D";
shapes = (
{
ref = jdotless.ss02;
},
{
pos = (19,0);
ref = dotaccentcomb;
}
);
width = 208;
},
{
layerId = "6242D68C-0A25-4F05-8F2A-2075F7C4A210";
width = 600;
},
{
layerId = "3D52442A-254C-4C79-B742-A98FD72DF947";
width = 600;
}
);
metricRight = i;
},
{
color = 3;
glyphname = jdotless;
lastChange = "2021-07-27 15:57:53 +0000";
layers = (
{
anchors = (
{
name = bottom;
pos = (129,-170);
},
{
name = top;
pos = (129,515);
}
);
layerId = "65988B1E-DCE2-4AC3-A6FF-994A1050067D";
shapes = (
{
closed = 1;
nodes = (
(2,-175,o),
(33,-185,o),
(59,-185,cs),
(121,-185,o),
(168,-146,o),
(168,-59,cs),
(168,485,ls),
(168,507,o),
(150,525,o),
(128,525,cs),
(106,525,o),
(88,507,o),
(88,485,cs),
(88,-59,ls),
(88,-88,o),
(85,-105,o),
(62,-105,cs),
(55,-105,o),
(46,-104,o),
(36,-95,cs),
(30,-90,o),
(20,-85,o),
(8,-85,cs),
(-14,-85,o),
(-30,-103,o),
(-30,-122,cs),
(-30,-136,o),
(-26,-145,o),
(-17,-155,cs)
);
}
);
width = 233;
},
{
layerId = "6242D68C-0A25-4F05-8F2A-2075F7C4A210";
width = 600;
},
{
layerId = "3D52442A-254C-4C79-B742-A98FD72DF947";
width = 600;
}
);
unicode = 567;
},
{
color = 3;
glyphname = jdotless.ss02;
lastChange = "2021-07-27 15:57:53 +0000";
layers = (
{
anchors = (
{
name = bottom;
pos = (104,-170);
},
{
name = top;
pos = (104,515);
}
);
layerId = "65988B1E-DCE2-4AC3-A6FF-994A1050067D";
shapes = (
{
closed = 1;
nodes = (
(143,507,o),
(125,525,o),
(103,525,cs),
(81,525,o),
(63,507,o),
(63,485,cs),
(63,-63,ls),
(63,-83,o),
(53,-90,o),
(37,-90,cs),
(1,-90,ls),
(-21,-90,o),
(-39,-108,o),
(-39,-130,cs),
(-39,-152,o),
(-21,-170,o),
(1,-170,cs),
(50,-170,ls),
(109,-170,o),
(143,-123,o),
(143,-68,cs),
(143,485,ls)
);
}
);
width = 208;
},
{
layerId = "6242D68C-0A25-4F05-8F2A-2075F7C4A210";
width = 600;
},
{
layerId = "3D52442A-254C-4C79-B742-A98FD72DF947";
width = 600;
}
);
},
{
glyphname = k;
lastChange = "2021-07-27 15:57:53 +0000";
layers = (
{
anchors = (
{
name = bottom;
pos = (261,0);
},
{
name = top;
pos = (261,720);
}
);
layerId = "65988B1E-DCE2-4AC3-A6FF-994A1050067D";
shapes = (
{
closed = 1;
nodes = (
(150,680,ls),
(150,702,o),
(132,720,o),
(110,720,cs),
(88,720,o),
(70,702,o),
(70,680,cs),
(70,40,ls),
(70,18,o),
(88,0,o),
(110,0,cs),
(132,0,o),
(150,18,o),
(150,40,cs)
);
},
{
closed = 1;
nodes = (
(143,207,l),
(431,445,ls),
(440,452,o),
(445,464,o),
(445,476,cs),
(445,498,o),
(427,515,o),
(405,515,cs),
(395,515,o),
(386,512,o),
(379,506,cs),
(143,311,l)
);
},
{
closed = 1;
nodes = (
(453,0,o),
(471,18,o),
(471,40,cs),
(471,49,o),
(467,57,o),
(463,63,cs),
(256,352,l),
(195,302,l),
(399,17,ls),
(406,7,o),
(418,0,o),
(431,0,cs)
);
}
);
width = 501;
},
{
layerId = "6242D68C-0A25-4F05-8F2A-2075F7C4A210";
width = 600;
},
{
anchors = (
{
name = bottom;
pos = (261,0);
},
{
name = top;
pos = (261,720);
}
);
associatedMasterId = "65988B1E-DCE2-4AC3-A6FF-994A1050067D";
layerId = "CF477DA5-2A54-41BE-8053-E06A33513513";
name = "Original Skeleton";
shapes = (
{
attr = {
strokeWidth = 2;
};
closed = 0;
nodes = (
(101,700,l),
(101,0,l)
);
},
{
attr = {
strokeWidth = 2;
};
closed = 0;
nodes = (
(416,495,l),
(416,495,o),
(101,235,o),
(101,221,c)
);
},
{
attr = {
strokeWidth = 2;
};
closed = 0;
nodes = (
(235,343,l),
(482,0,l)
);
}
);
width = 501;
},
{
layerId = "3D52442A-254C-4C79-B742-A98FD72DF947";
width = 600;
}
);
metricLeft = "=h";
unicode = 107;
},
{
glyphname = kgreenlandic;
lastChange = "2021-07-27 15:57:53 +0000";
layers = (
{
background = {
shapes = (
{
closed = 1;
nodes = (
(161,490,ls),
(161,507,o),
(147,520,o),
(130,520,cs),
(113,520,o),
(100,507,o),
(100,490,cs),
(100,25,ls),
(100,8,o),
(113,-6,o),
(130,-6,cs),
(147,-6,o),
(161,8,o),
(161,25,cs)
);
},
{
closed = 1;
nodes = (
(441,465,ls),
(446,470,o),
(449,478,o),
(449,486,cs),
(449,502,o),
(436,516,o),
(419,516,cs),
(411,516,o),
(404,513,o),
(398,507,cs),
(141,243,l),
(141,158,l)
);
},
{
closed = 1;
nodes = (
(408,6,ls),
(413,-2,o),
(422,-7,o),
(432,-7,cs),
(449,-7,o),
(463,7,o),
(463,23,cs),
(463,30,o),
(461,36,o),
(457,41,cs),
(271,309,l),
(229,265,l)
);
}
);
};
layerId = "65988B1E-DCE2-4AC3-A6FF-994A1050067D";
shapes = (
{
closed = 1;
nodes = (
(150,481,ls),
(150,503,o),
(132,521,o),
(110,521,cs),
(88,521,o),
(70,503,o),
(70,481,cs),
(70,34,ls),
(70,12,o),
(88,-6,o),
(110,-6,cs),
(132,-6,o),
(150,12,o),
(150,34,cs)
);
},
{
closed = 1;
nodes = (
(143,150,l),
(431,445,ls),
(439,453,o),
(445,464,o),
(445,476,cs),
(445,498,o),
(427,515,o),
(405,515,cs),
(394,515,o),
(381,511,o),
(368,497,cs),
(143,259,l)
);
},
{
closed = 1;
nodes = (
(443,0,o),
(461,18,o),
(461,40,cs),
(461,49,o),
(457,57,o),
(453,63,cs),
(256,352,l),
(195,302,l),
(389,17,ls),
(396,7,o),
(408,0,o),
(421,0,cs)
);
}
);
width = 491;
},
{
layerId = "6242D68C-0A25-4F05-8F2A-2075F7C4A210";
width = 600;
},
{
layerId = "3D52442A-254C-4C79-B742-A98FD72DF947";
width = 600;
}
);
metricLeft = "=h";
metricRight = "=k";
unicode = 312;
},
{
glyphname = l;
lastChange = "2021-07-27 18:54:44 +0000";
layers = (
{
anchors = (
{
name = bottom;
pos = (110,0);
},
{
name = center;
pos = (110,360);
},
{
name = top;
pos = (110,720);
},
{
name = topright;
pos = (150,720);
}
);
layerId = "65988B1E-DCE2-4AC3-A6FF-994A1050067D";
shapes = (
{
closed = 1;
nodes = (
(150,690,ls),
(150,712,o),
(132,730,o),
(110,730,cs),
(87,730,o),
(70,712,o),
(70,690,cs),
(70,30,ls),
(70,8,o),
(87,-10,o),
(110,-10,cs),
(132,-10,o),
(150,8,o),
(150,30,cs)
);
}
);
width = 220;
},
{
anchors = (
{
name = bottom;
pos = (145,0);
},
{
name = center;
pos = (145,360);
},
{
name = top;
pos = (145,720);
},
{
name = topright;
pos = (270,720);
}
);
layerId = "6242D68C-0A25-4F05-8F2A-2075F7C4A210";
shapes = (
{
closed = 1;
nodes = (
(220,655,ls),
(220,696,o),
(186,730,o),
(145,730,cs),
(104,730,o),
(70,696,o),
(70,655,cs),
(70,66,ls),
(70,24,o),
(104,-10,o),
(145,-10,cs),
(186,-10,o),
(220,24,o),
(220,66,cs)
);
}
);
width = 290;
},
{
anchors = (
{
name = bottom;
pos = (110,0);
},
{
name = center;
pos = (110,360);
},
{
name = top;
pos = (110,720);
},
{
name = topright;
pos = (180,720);
}
);
associatedMasterId = "65988B1E-DCE2-4AC3-A6FF-994A1050067D";
layerId = "5A92A789-21DB-4AA7-A2C6-8048CCBA31E1";
name = "Original Skeleton";
shapes = (
{
attr = {
strokeWidth = 2;
};
closed = 0;
nodes = (
(101,700,l),
(101,0,l)
);
}
);
width = 220;
},
{
anchors = (
{
name = bottom;
pos = (98,0);
},
{
name = center;
pos = (98,360);
},
{
name = top;
pos = (98,720);
},
{
name = topright;
pos = (175,720);
}
);
layerId = "3D52442A-254C-4C79-B742-A98FD72DF947";
shapes = (
{
closed = 1;
nodes = (
(125,699,ls),
(125,716,o),
(114,730,o),
(97,730,cs),
(79,730,o),
(70,716,o),
(70,699,cs),
(70,21,ls),
(70,4,o),
(79,-9,o),
(97,-9,cs),
(114,-9,o),
(125,4,o),
(125,21,cs)
);
}
);
width = 195;
}
);
metricLeft = "=n";
metricRight = "=|n";
unicode = 108;
},
{
glyphname = lslash;
lastChange = "2021-07-27 15:57:53 +0000";
layers = (
{
layerId = "65988B1E-DCE2-4AC3-A6FF-994A1050067D";
shapes = (
{
closed = 1;
nodes = (
(216,690,ls),
(216,712,o),
(198,730,o),
(176,730,cs),
(153,730,o),
(136,712,o),
(136,690,cs),
(136,30,ls),
(136,8,o),
(153,-10,o),
(176,-10,cs),
(198,-10,o),
(216,8,o),
(216,30,cs)
);
},
{
attr = {
lineCapEnd = "2";
lineCapStart = "2";
strokeHeight = 74;
strokeWidth = 74;
};
closed = 0;
nodes = (
(47,269,l),
(314,406,l)
);
}
);
width = 361;
},
{
layerId = "6242D68C-0A25-4F05-8F2A-2075F7C4A210";
width = 600;
},
{
layerId = "3D52442A-254C-4C79-B742-A98FD72DF947";
width = 600;
}
);
unicode = 322;
},
{
glyphname = m;
lastChange = "2021-07-27 15:57:53 +0000";
layers = (
{
background = {
shapes = (
{
closed = 1;
nodes = (
(150,475,ls),
(150,498,o),
(132,515,o),
(110,515,cs),
(88,515,o),
(70,498,o),
(70,475,cs),
(70,40,ls),
(70,18,o),
(88,0,o),
(110,0,cs),
(132,0,o),
(150,18,o),
(150,40,cs)
);
},
{
closed = 1;
nodes = (
(811,352,ls),
(811,432,o),
(736,528,o),
(619,528,cs),
(517,528,o),
(406,432,o),
(406,346,cs),
(406,324,o),
(423,306,o),
(446,306,cs),
(468,306,o),
(486,324,o),
(486,346,cs),
(486,385,o),
(549,448,o),
(619,448,cs),
(695,448,o),
(731,396,o),
(731,352,cs),
(731,40,ls),
(731,18,o),
(749,0,o),
(771,0,cs),
(793,0,o),
(811,18,o),
(811,40,cs)
);
},
{
closed = 1;
nodes = (
(137,337,l),
(145,345,o),
(150,355,o),
(150,367,cs),
(150,394,o),
(212,448,o),
(287,448,cs),
(352,448,o),
(406,403,o),
(406,349,cs),
(406,348,o),
(406,348,o),
(406,347,cs),
(406,346,l),
(406,40,ls),
(406,18,o),
(424,0,o),
(446,0,cs),
(468,0,o),
(486,18,o),
(486,40,cs),
(486,346,ls),
(486,347,o),
(486,347,o),
(486,347,cs),
(486,349,ls),
(486,446,o),
(387,528,o),
(287,528,cs),
(215,528,o),
(184,502,o),
(137,466,c)
);
},
{
closed = 1;
nodes = (
(150,463,l),
(150,485,ls),
(150,507,o),
(132,525,o),
(110,525,cs),
(88,525,o),
(70,507,o),
(70,485,cs),
(70,30,ls),
(70,8,o),
(88,-10,o),
(110,-10,cs),
(132,-10,o),
(150,8,o),
(150,30,cs)
);
},
{
closed = 1;
nodes = (
(467,353,l),
(478,353,l),
(478,404,o),
(545,454,o),
(618,454,cs),
(690,454,o),
(737,413,o),
(737,340,cs),
(737,30,ls),
(737,8,o),
(755,-10,o),
(777,-10,cs),
(799,-10,o),
(817,8,o),
(817,30,cs),
(818,334,ls),
(818,455,o),
(741,530,o),
(630,530,cs),
(566,530,o),
(504,503,o),
(467,449,c)
);
},
{
closed = 1;
nodes = (
(139,353,l),
(150,353,l),
(150,404,o),
(217,454,o),
(290,454,cs),
(352,454,o),
(399,413,o),
(399,340,cs),
(399,30,ls),
(399,8,o),
(417,-10,o),
(439,-10,cs),
(461,-10,o),
(479,8,o),
(479,30,cs),
(480,339,ls),
(480,455,o),
(403,530,o),
(302,530,cs),
(238,530,o),
(176,503,o),
(139,449,c)
);
}
);
};
layerId = "65988B1E-DCE2-4AC3-A6FF-994A1050067D";
shapes = (
{
closed = 1;
nodes = (
(150,463,l),
(150,485,ls),
(150,507,o),
(132,525,o),
(110,525,cs),
(88,525,o),
(70,507,o),
(70,485,cs),
(70,30,ls),
(70,8,o),
(88,-10,o),
(110,-10,cs),
(132,-10,o),
(150,8,o),
(150,30,cs)
);
},
{
closed = 1;
nodes = (
(139,353,l),
(150,353,l),
(150,404,o),
(217,454,o),
(290,454,cs),
(352,454,o),
(399,413,o),
(399,340,cs),
(399,30,ls),
(399,8,o),
(417,-10,o),
(439,-10,cs),
(461,-10,o),
(479,8,o),
(479,30,cs),
(480,353,ls),
(480,455,o),
(403,530,o),
(302,530,cs),
(238,530,o),
(176,503,o),
(139,449,c)
);
},
{
closed = 1;
nodes = (
(467,353,l),
(480,353,l),
(480,404,o),
(545,454,o),
(618,454,cs),
(690,454,o),
(737,413,o),
(737,340,cs),
(737,30,ls),
(737,8,o),
(755,-10,o),
(777,-10,cs),
(799,-10,o),
(817,8,o),
(817,30,cs),
(818,334,ls),
(818,455,o),
(741,530,o),
(630,530,cs),
(548,530,o),
(480,493,o),
(446,430,c)
);
}
);
width = 878;
},
{
layerId = "6242D68C-0A25-4F05-8F2A-2075F7C4A210";
width = 600;
},
{
associatedMasterId = "65988B1E-DCE2-4AC3-A6FF-994A1050067D";
background = {
shapes = (
{
closed = 1;
nodes = (
(150,475,ls),
(150,498,o),
(132,515,o),
(110,515,cs),
(88,515,o),
(70,498,o),
(70,475,cs),
(70,40,ls),
(70,18,o),
(88,0,o),
(110,0,cs),
(132,0,o),
(150,18,o),
(150,40,cs)
);
},
{
closed = 1;
nodes = (
(811,352,ls),
(811,432,o),
(736,528,o),
(619,528,cs),
(517,528,o),
(406,432,o),
(406,346,cs),
(406,324,o),
(423,306,o),
(446,306,cs),
(468,306,o),
(486,324,o),
(486,346,cs),
(486,385,o),
(549,448,o),
(619,448,cs),
(695,448,o),
(731,396,o),
(731,352,cs),
(731,40,ls),
(731,18,o),
(749,0,o),
(771,0,cs),
(793,0,o),
(811,18,o),
(811,40,cs)
);
},
{
closed = 1;
nodes = (
(137,337,l),
(145,345,o),
(150,355,o),
(150,367,cs),
(150,394,o),
(212,448,o),
(287,448,cs),
(352,448,o),
(406,403,o),
(406,349,cs),
(406,348,o),
(406,348,o),
(406,347,cs),
(406,346,l),
(406,40,ls),
(406,18,o),
(424,0,o),
(446,0,cs),
(468,0,o),
(486,18,o),
(486,40,cs),
(486,346,ls),
(486,347,o),
(486,347,o),
(486,347,cs),
(486,349,ls),
(486,446,o),
(387,528,o),
(287,528,cs),
(215,528,o),
(184,502,o),
(137,466,c)
);
},
{
closed = 1;
nodes = (
(150,463,l),
(150,485,ls),
(150,507,o),
(132,525,o),
(110,525,cs),
(88,525,o),
(70,507,o),
(70,485,cs),
(70,30,ls),
(70,8,o),
(88,-10,o),
(110,-10,cs),
(132,-10,o),
(150,8,o),
(150,30,cs)
);
},
{
closed = 1;
nodes = (
(467,353,l),
(478,353,l),
(478,404,o),
(545,454,o),
(618,454,cs),
(690,454,o),
(737,413,o),
(737,340,cs),
(737,30,ls),
(737,8,o),
(755,-10,o),
(777,-10,cs),
(799,-10,o),
(817,8,o),
(817,30,cs),
(818,334,ls),
(818,455,o),
(741,530,o),
(630,530,cs),
(566,530,o),
(504,503,o),
(467,449,c)
);
},
{
closed = 1;
nodes = (
(139,353,l),
(150,353,l),
(150,404,o),
(217,454,o),
(290,454,cs),
(352,454,o),
(399,413,o),
(399,340,cs),
(399,30,ls),
(399,8,o),
(417,-10,o),
(439,-10,cs),
(461,-10,o),
(479,8,o),
(479,30,cs),
(480,339,ls),
(480,455,o),
(403,530,o),
(302,530,cs),
(238,530,o),
(176,503,o),
(139,449,c)
);
}
);
};
layerId = "36D8C238-37E5-42FE-9D9F-8E49B22706B6";
name = "Original Skeleton";
shapes = (
{
attr = {
strokeWidth = 2;
};
closed = 0;
nodes = (
(101,511,l),
(101,0,l)
);
},
{
attr = {
strokeWidth = 2;
};
closed = 0;
nodes = (
(437,0,l),
(437,382,ls),
(437,441,o),
(547,524,o),
(610,524,cs),
(704,524,o),
(771,447,o),
(771,388,cs),
(771,0,l)
);
},
{
attr = {
strokeWidth = 2;
};
closed = 0;
nodes = (
(101,402,l),
(101,453,o),
(222,524,o),
(278,524,cs),
(357,524,o),
(437,457,o),
(437,385,c)
);
}
);
width = 878;
},
{
layerId = "3D52442A-254C-4C79-B742-A98FD72DF947";
width = 600;
}
);
metricLeft = "=n";
metricRight = "=n";
unicode = 109;
},
{
color = 3;
glyphname = n;
lastChange = "2021-07-27 15:57:53 +0000";
layers = (
{
anchors = (
{
name = bottom;
pos = (275,0);
},
{
name = top;
pos = (275,515);
}
);
background = {
shapes = (
{
closed = 1;
nodes = (
(139,343,l),
(150,353,l),
(150,403,o),
(215,451,o),
(290,451,cs),
(354,451,o),
(409,413,o),
(409,344,cs),
(409,30,ls),
(409,8,o),
(427,-10,o),
(449,-10,cs),
(471,-10,o),
(489,8,o),
(489,30,cs),
(489,344,ls),
(489,468,o),
(390,530,o),
(297,530,cs),
(221,530,o),
(167,489,o),
(139,449,c)
);
}
);
};
layerId = "65988B1E-DCE2-4AC3-A6FF-994A1050067D";
shapes = (
{
closed = 1;
nodes = (
(150,485,ls),
(150,507,o),
(132,525,o),
(110,525,cs),
(88,525,o),
(70,507,o),
(70,485,cs),
(70,30,ls),
(70,8,o),
(88,-10,o),
(110,-10,cs),
(132,-10,o),
(150,8,o),
(150,30,cs)
);
},
{
closed = 1;
nodes = (
(139,353,l),
(150,353,l),
(150,404,o),
(217,454,o),
(283,454,cs),
(362,454,o),
(409,413,o),
(409,340,cs),
(409,30,ls),
(409,8,o),
(427,-10,o),
(449,-10,cs),
(471,-10,o),
(489,8,o),
(489,30,cs),
(490,342,ls),
(490,455,o),
(413,530,o),
(297,530,cs),
(238,530,o),
(176,503,o),
(139,449,c)
);
}
);
width = 550;
},
{
anchors = (
{
name = bottom;
pos = (310,0);
},
{
name = top;
pos = (310,515);
}
);
background = {
shapes = (
{
closed = 1;
nodes = (
(185,463,l),
(185,485,ls),
(185,507,o),
(167,525,o),
(145,525,cs),
(123,525,o),
(105,507,o),
(105,485,cs),
(105,30,ls),
(105,8,o),
(123,-10,o),
(145,-10,cs),
(167,-10,o),
(185,8,o),
(185,30,cs)
);
},
{
closed = 1;
nodes = (
(174,353,l),
(185,353,l),
(185,404,o),
(252,454,o),
(318,454,cs),
(397,454,o),
(444,413,o),
(444,340,cs),
(444,30,ls),
(444,8,o),
(462,-10,o),
(484,-10,cs),
(506,-10,o),
(524,8,o),
(524,30,cs),
(525,342,ls),
(525,455,o),
(448,530,o),
(332,530,cs),
(273,530,o),
(211,503,o),
(174,449,c)
);
},
{
ref = h;
}
);
};
layerId = "6242D68C-0A25-4F05-8F2A-2075F7C4A210";
shapes = (
{
closed = 1;
nodes = (
(220,450,ls),
(220,491,o),
(186,525,o),
(145,525,cs),
(104,525,o),
(70,491,o),
(70,450,cs),
(70,65,ls),
(70,24,o),
(104,-10,o),
(145,-10,cs),
(186,-10,o),
(220,24,o),
(220,65,cs)
);
},
{
closed = 1;
nodes = (
(186,282,l),
(220,283,l),
(220,359,o),
(263,389,o),
(321,389,cs),
(386,389,o),
(409,352,o),
(409,305,cs),
(409,65,ls),
(409,24,o),
(443,-10,o),
(484,-10,cs),
(525,-10,o),
(559,24,o),
(559,65,cs),
(560,307,ls),
(561,440,o),
(474,530,o),
(356,530,cs),
(292,530,o),
(227,496,o),
(187,406,c)
);
}
);
width = 620;
},
{
anchors = (
{
name = bottom;
pos = (275,0);
},
{
name = top;
pos = (275,515);
}
);
associatedMasterId = "65988B1E-DCE2-4AC3-A6FF-994A1050067D";
background = {
shapes = (
{
closed = 1;
nodes = (
(139,343,l),
(150,353,l),
(150,403,o),
(215,451,o),
(290,451,cs),
(354,451,o),
(409,413,o),
(409,344,cs),
(409,30,ls),
(409,8,o),
(427,-10,o),
(449,-10,cs),
(471,-10,o),
(489,8,o),
(489,30,cs),
(489,344,ls),
(489,468,o),
(390,530,o),
(297,530,cs),
(221,530,o),
(167,489,o),
(139,449,c)
);
}
);
};
layerId = "BF5C85C1-6261-4313-8667-907F9CE31011";
name = "Original Skeleton";
shapes = (
{
attr = {
strokeWidth = 2;
};
closed = 0;
nodes = (
(100,258,l),
(100,411,o),
(173,500,o),
(300,500,c),
(408,500,o),
(457,419,o),
(457,243,c),
(457,0,l)
);
},
{
attr = {
strokeWidth = 2;
};
closed = 0;
nodes = (
(100,485,l),
(100,0,l)
);
}
);
width = 550;
},
{
anchors = (
{
name = bottom;
pos = (263,0);
},
{
name = top;
pos = (263,515);
}
);
background = {
shapes = (
{
closed = 1;
nodes = (
(137,463,l),
(137,485,ls),
(137,507,o),
(119,525,o),
(97,525,cs),
(75,525,o),
(57,507,o),
(57,485,cs),
(57,30,ls),
(57,8,o),
(75,-10,o),
(97,-10,cs),
(119,-10,o),
(137,8,o),
(137,30,cs)
);
},
{
closed = 1;
nodes = (
(126,353,l),
(137,353,l),
(137,404,o),
(204,454,o),
(270,454,cs),
(349,454,o),
(396,413,o),
(396,340,cs),
(396,30,ls),
(396,8,o),
(414,-10,o),
(436,-10,cs),
(458,-10,o),
(476,8,o),
(476,30,cs),
(477,342,ls),
(477,455,o),
(400,530,o),
(284,530,cs),
(225,530,o),
(163,503,o),
(126,449,c)
);
}
);
};
layerId = "3D52442A-254C-4C79-B742-A98FD72DF947";
shapes = (
{
closed = 1;
nodes = (
(125,497,ls),
(125,514,o),
(114,525,o),
(97,525,cs),
(79,525,o),
(70,514,o),
(70,497,cs),
(70,17,ls),
(70,0,o),
(79,-10,o),
(97,-10,cs),
(114,-10,o),
(125,0,o),
(125,17,cs)
);
},
{
closed = 1;
nodes = (
(121,352,l),
(125,361,l),
(129,427,o),
(203,476,o),
(280,476,cs),
(350,476,o),
(410,432,o),
(410,356,cs),
(410,17,ls),
(410,0,o),
(420,-10,o),
(437,-10,cs),
(454,-10,o),
(465,0,o),
(465,17,cs),
(465,356,ls),
(465,473,o),
(371,530,o),
(289,530,cs),
(224,530,o),
(156,503,o),
(120,445,c)
);
}
);
width = 525;
}
);
unicode = 110;
},
{
glyphname = n.ss03;
lastChange = "2021-07-27 15:57:53 +0000";
layers = (
{
layerId = "65988B1E-DCE2-4AC3-A6FF-994A1050067D";
shapes = (
{
closed = 1;
nodes = (
(150,313,ls),
(150,403,o),
(215,451,o),
(290,451,cs),
(359,451,o),
(409,415,o),
(409,344,cs),
(409,30,ls),
(409,8,o),
(427,-10,o),
(449,-10,cs),
(471,-10,o),
(489,8,o),
(489,30,cs),
(489,344,ls),
(489,468,o),
(390,530,o),
(305,530,cs),
(231,530,o),
(166,483,o),
(153,434,c),
(151,427,o),
(150,431,o),
(150,434,c),
(150,473,l),
(150,485,ls),
(150,507,o),
(132,525,o),
(110,525,cs),
(88,525,o),
(70,507,o),
(70,485,cs),
(70,30,ls),
(70,8,o),
(88,-10,o),
(110,-10,cs),
(132,-10,o),
(150,8,o),
(150,30,cs)
);
}
);
width = 549;
},
{
layerId = "6242D68C-0A25-4F05-8F2A-2075F7C4A210";
width = 600;
},
{
layerId = "3D52442A-254C-4C79-B742-A98FD72DF947";
width = 600;
}
);
metricLeft = "=n";
metricRight = "=n";
},
{
glyphname = n.ss04;
lastChange = "2021-07-27 15:57:53 +0000";
layers = (
{
layerId = "65988B1E-DCE2-4AC3-A6FF-994A1050067D";
shapes = (
{
closed = 1;
nodes = (
(150,333,ls),
(150,403,o),
(215,451,o),
(290,451,cs),
(358,451,o),
(409,413,o),
(409,344,cs),
(409,30,ls),
(409,8,o),
(427,-10,o),
(449,-10,cs),
(471,-10,o),
(489,8,o),
(489,30,cs),
(489,344,ls),
(489,468,o),
(390,530,o),
(297,530,cs),
(231,530,o),
(166,493,o),
(147,444,c),
(144,444,l),
(146,454,o),
(150,463,o),
(150,479,cs),
(150,485,ls),
(150,507,o),
(132,525,o),
(110,525,cs),
(88,525,o),
(70,507,o),
(70,485,cs),
(70,30,ls),
(70,8,o),
(88,-10,o),
(110,-10,cs),
(132,-10,o),
(150,8,o),
(150,30,cs)
);
}
);
width = 549;
},
{
layerId = "6242D68C-0A25-4F05-8F2A-2075F7C4A210";
width = 600;
},
{
layerId = "3D52442A-254C-4C79-B742-A98FD72DF947";
width = 600;
}
);
metricLeft = "=n";
metricRight = "=n";
},
{
glyphname = eng;
lastChange = "2021-07-27 15:57:53 +0000";
layers = (
{
anchors = (
{
name = bottom;
pos = (688,-170);
},
{
name = top;
pos = (688,515);
}
);
layerId = "65988B1E-DCE2-4AC3-A6FF-994A1050067D";
shapes = (
{
ref = n;
},
{
closed = 1;
nodes = (
(409,113,l),
(409,-59,ls),
(409,-88,o),
(406,-105,o),
(383,-105,cs),
(376,-105,o),
(367,-104,o),
(357,-95,cs),
(351,-90,o),
(341,-85,o),
(329,-85,cs),
(307,-85,o),
(291,-103,o),
(291,-122,cs),
(291,-136,o),
(295,-145,o),
(304,-155,cs),
(323,-175,o),
(354,-185,o),
(380,-185,cs),
(442,-185,o),
(489,-146,o),
(489,-59,cs),
(489,113,l)
);
}
);
width = 549;
},
{
layerId = "6242D68C-0A25-4F05-8F2A-2075F7C4A210";
width = 600;
},
{
layerId = "3D52442A-254C-4C79-B742-A98FD72DF947";
width = 600;
}
);
metricLeft = "=n";
metricRight = "=j";
unicode = 331;
},
{
color = 3;
glyphname = o;
lastChange = "2021-07-27 15:57:53 +0000";
layers = (
{
anchors = (
{
name = bottom;
pos = (273,0);
},
{
name = center;
pos = (273,258);
},
{
name = ogonek;
pos = (309,10);
},
{
name = top;
pos = (273,515);
},
{
name = topright;
pos = (526,515);
}
);
layerId = "65988B1E-DCE2-4AC3-A6FF-994A1050067D";
shapes = (
{
closed = 1;
nodes = (
(426,136,o),
(373,62,o),
(273,62,cs),
(173,62,o),
(120,136,o),
(120,259,cs),
(120,378,o),
(173,453,o),
(273,453,cs),
(373,453,o),
(426,378,o),
(426,259,c)
);
},
{
closed = 1;
nodes = (
(506,413,o),
(416,530,o),
(273,530,cs),
(130,530,o),
(40,413,o),
(40,259,cs),
(40,101,o),
(130,-15,o),
(273,-15,cs),
(416,-15,o),
(506,101,o),
(506,259,cs)
);
}
);
width = 546;
},
{
anchors = (
{
name = bottom;
pos = (298,0);
},
{
name = center;
pos = (298,258);
},
{
name = ogonek;
pos = (536,10);
},
{
name = top;
pos = (298,515);
},
{
name = topright;
pos = (576,515);
}
);
background = {
shapes = (
{
closed = 1;
nodes = (
(451,136,o),
(398,62,o),
(298,62,cs),
(198,62,o),
(145,136,o),
(145,259,cs),
(145,378,o),
(198,453,o),
(298,453,cs),
(398,453,o),
(451,378,o),
(451,259,c)
);
},
{
closed = 1;
nodes = (
(531,413,o),
(441,530,o),
(298,530,cs),
(155,530,o),
(65,413,o),
(65,259,cs),
(65,101,o),
(155,-15,o),
(298,-15,cs),
(441,-15,o),
(531,101,o),
(531,259,cs)
);
}
);
};
layerId = "6242D68C-0A25-4F05-8F2A-2075F7C4A210";
shapes = (
{
closed = 1;
nodes = (
(399,167,o),
(363,122,o),
(298,122,cs),
(233,122,o),
(197,167,o),
(197,259,cs),
(197,347,o),
(233,393,o),
(298,393,cs),
(363,393,o),
(399,347,o),
(399,259,cs)
);
},
{
closed = 1;
nodes = (
(556,410,o),
(453,530,o),
(298,530,cs),
(143,530,o),
(40,410,o),
(40,259,cs),
(40,104,o),
(143,-15,o),
(298,-15,cs),
(453,-15,o),
(556,104,o),
(556,259,cs)
);
}
);
width = 596;
},
{
anchors = (
{
name = bottom;
pos = (273,0);
},
{
name = center;
pos = (273,258);
},
{
name = ogonek;
pos = (491,10);
},
{
name = top;
pos = (273,515);
},
{
name = topright;
pos = (526,515);
}
);
associatedMasterId = "65988B1E-DCE2-4AC3-A6FF-994A1050067D";
layerId = "83A823B5-66B8-4D06-8933-56CF212C5BA1";
name = "Original Skeleton";
shapes = (
{
attr = {
strokeWidth = 2;
};
closed = 1;
nodes = (
(520,115,o),
(435,0,o),
(302,0,cs),
(186,0,o),
(80,81,o),
(80,258,cs),
(80,442,o),
(186,515,o),
(302,515,cs),
(431,515,o),
(520,400,o),
(520,258,c)
);
}
);
width = 546;
},
{
anchors = (
{
name = bottom;
pos = (261,0);
},
{
name = center;
pos = (261,258);
},
{
name = ogonek;
pos = (469,10);
},
{
name = top;
pos = (261,515);
},
{
name = topright;
pos = (501,515);
}
);
background = {
shapes = (
{
closed = 1;
nodes = (
(413,136,o),
(360,62,o),
(260,62,cs),
(160,62,o),
(107,136,o),
(107,259,cs),
(107,378,o),
(160,453,o),
(260,453,cs),
(360,453,o),
(413,378,o),
(413,259,c)
);
},
{
closed = 1;
nodes = (
(493,413,o),
(403,530,o),
(260,530,cs),
(117,530,o),
(27,413,o),
(27,259,cs),
(27,101,o),
(117,-15,o),
(260,-15,cs),
(403,-15,o),
(493,101,o),
(493,259,cs)
);
}
);
};
layerId = "3D52442A-254C-4C79-B742-A98FD72DF947";
shapes = (
{
closed = 1;
nodes = (
(426,118,o),
(368,38,o),
(260,38,cs),
(152,38,o),
(95,118,o),
(95,259,cs),
(95,396,o),
(152,478,o),
(260,478,cs),
(368,478,o),
(426,396,o),
(426,259,cs)
);
},
{
closed = 1;
nodes = (
(481,421,o),
(397,530,o),
(260,530,cs),
(123,530,o),
(40,421,o),
(40,259,cs),
(40,93,o),
(123,-15,o),
(260,-15,cs),
(397,-15,o),
(481,93,o),
(481,259,cs)
);
}
);
width = 521;
}
);
unicode = 111;
},
{
color = 3;
glyphname = ohorn;
lastChange = "2021-07-27 15:57:53 +0000";
layers = (
{
anchors = (
{
name = bottom;
pos = (270,0);
},
{
name = top;
pos = (270,515);
}
);
background = {
shapes = (
{
closed = 1;
nodes = (
(105,-14,o),
(-3,130,o),
(-3,350,cs),
(-3,571,o),
(115,715,o),
(281,715,cs),
(447,715,o),
(565,571,o),
(565,350,cs),
(565,130,o),
(457,-14,o),
(281,-14,c)
);
},
{
closed = 1;
nodes = (
(155,640,o),
(79,521,o),
(79,350,cs),
(79,179,o),
(155,61,o),
(281,61,cs),
(407,61,o),
(483,179,o),
(483,350,cs),
(483,521,o),
(407,640,o),
(281,640,cs)
);
},
{
closed = 1;
nodes = (
(432,837,o),
(446,851,o),
(470,851,cs),
(490,851,o),
(504,835,o),
(504,813,cs),
(504,743,o),
(437,665,o),
(372,665,cs),
(284,665,l),
(285,715,l),
(324,715,ls),
(384,715,o),
(432,760,o),
(432,813,c)
);
}
);
};
layerId = "65988B1E-DCE2-4AC3-A6FF-994A1050067D";
shapes = (
{
closed = 1;
nodes = (
(421,136,o),
(368,62,o),
(268,62,cs),
(168,62,o),
(115,136,o),
(115,259,cs),
(115,378,o),
(168,453,o),
(268,453,cs),
(368,453,o),
(421,378,o),
(421,259,c)
);
},
{
closed = 1;
nodes = (
(501,413,o),
(411,530,o),
(268,530,cs),
(125,530,o),
(35,413,o),
(35,259,cs),
(35,101,o),
(125,-15,o),
(268,-15,cs),
(411,-15,o),
(501,101,o),
(501,259,cs)
);
},
{
closed = 1;
nodes = (
(418,565,o),
(370,530,o),
(310,530,cs),
(271,530,l),
(271,480,l),
(358,480,ls),
(423,480,o),
(490,548,o),
(490,618,cs),
(490,640,o),
(476,656,o),
(456,656,cs),
(432,656,o),
(418,642,o),
(418,618,c)
);
}
);
width = 600;
},
{
layerId = "6242D68C-0A25-4F05-8F2A-2075F7C4A210";
width = 600;
},
{
layerId = "3D52442A-254C-4C79-B742-A98FD72DF947";
width = 600;
}
);
unicode = 417;
},
{
color = 3;
glyphname = oslash;
lastChange = "2021-07-27 15:57:53 +0000";
layers = (
{
layerId = "65988B1E-DCE2-4AC3-A6FF-994A1050067D";
shapes = (
{
closed = 1;
nodes = (
(421,136,o),
(368,62,o),
(268,62,cs),
(168,62,o),
(115,136,o),
(115,259,cs),
(115,378,o),
(168,453,o),
(268,453,cs),
(368,453,o),
(421,378,o),
(421,259,c)
);
},
{
closed = 1;
nodes = (
(501,413,o),
(411,530,o),
(268,530,cs),
(125,530,o),
(35,413,o),
(35,259,cs),
(35,101,o),
(125,-15,o),
(268,-15,cs),
(411,-15,o),
(501,101,o),
(501,259,cs)
);
},
{
attr = {
lineCapEnd = 2;
lineCapStart = 2;
strokeHeight = 64;
strokeWidth = 64;
};
closed = 0;
nodes = (
(466,549,l),
(70,-9,l)
);
}
);
width = 536;
},
{
layerId = "6242D68C-0A25-4F05-8F2A-2075F7C4A210";
width = 600;
},
{
layerId = "3D52442A-254C-4C79-B742-A98FD72DF947";
width = 600;
}
);
unicode = 248;
},
{
glyphname = oe;
lastChange = "2021-07-27 15:57:53 +0000";
layers = (
{
layerId = "65988B1E-DCE2-4AC3-A6FF-994A1050067D";
shapes = (
{
closed = 1;
nodes = (
(421,136,o),
(368,62,o),
(268,62,cs),
(168,62,o),
(115,136,o),
(115,259,cs),
(115,378,o),
(168,453,o),
(268,453,cs),
(368,453,o),
(421,378,o),
(421,259,c)
);
},
{
closed = 1;
nodes = (
(501,413,o),
(411,530,o),
(268,530,cs),
(125,530,o),
(35,413,o),
(35,259,cs),
(35,101,o),
(125,-15,o),
(268,-15,cs),
(411,-15,o),
(501,101,o),
(501,259,cs)
);
},
{
closed = 1;
nodes = (
(737,-15,o),
(802,32,o),
(834,80,cs),
(863,123,o),
(839,155,o),
(813,155,cs),
(789,155,o),
(778,134,o),
(771,123,cs),
(753,94,o),
(711,62,o),
(650,62,cs),
(573,62,o),
(501,115,o),
(501,260,cs),
(501,386,o),
(561,453,o),
(648,453,cs),
(743,453,o),
(794,373,o),
(795,282,c),
(824,307,l),
(485,307,l),
(485,234,l),
(812,234,ls),
(850,234,o),
(869,255,o),
(869,293,cs),
(869,422,o),
(781,530,o),
(651,530,cs),
(520,530,o),
(421,420,o),
(421,255,cs),
(421,76,o),
(532,-15,o),
(652,-15,cs)
);
}
);
width = 899;
},
{
layerId = "6242D68C-0A25-4F05-8F2A-2075F7C4A210";
width = 600;
},
{
layerId = "3D52442A-254C-4C79-B742-A98FD72DF947";
width = 600;
}
);
unicode = 339;
},
{
glyphname = p;
lastChange = "2021-07-27 18:50:46 +0000";
layers = (
{
layerId = "65988B1E-DCE2-4AC3-A6FF-994A1050067D";
shapes = (
{
closed = 1;
nodes = (
(132,-180,o),
(150,-162,o),
(150,-140,cs),
(150,88,l),
(133,72,l),
(175,19,o),
(238,-15,o),
(312,-15,cs),
(451,-15,o),
(530,113,o),
(530,257,cs),
(530,415,o),
(451,529,o),
(313,530,cs),
(241,530,o),
(177,495,o),
(134,441,c),
(150,423,l),
(150,484,ls),
(150,507,o),
(132,525,o),
(110,525,cs),
(88,525,o),
(70,507,o),
(70,484,cs),
(70,-140,ls),
(70,-162,o),
(88,-180,o),
(110,-180,cs)
);
},
{
closed = 1;
nodes = (
(204,62,o),
(150,134,o),
(150,257,cs),
(150,385,o),
(201,452,o),
(295,453,cs),
(396,454,o),
(450,382,o),
(450,257,cs),
(450,134,o),
(393,62,o),
(297,62,cs)
);
}
);
width = 570;
},
{
layerId = "6242D68C-0A25-4F05-8F2A-2075F7C4A210";
shapes = (
{
closed = 1;
nodes = (
(186,-215,o),
(220,-181,o),
(220,-140,cs),
(220,81,l),
(192,69,l),
(235,6,o),
(297,-15,o),
(356,-15,cs),
(520,-15,o),
(590,134,o),
(590,257,cs),
(590,380,o),
(520,529,o),
(362,530,cs),
(277,531,o),
(223,484,o),
(203,429,c),
(220,421,l),
(220,449,ls),
(220,491,o),
(186,525,o),
(145,525,cs),
(104,525,o),
(70,491,o),
(70,449,cs),
(70,-140,ls),
(70,-181,o),
(104,-215,o),
(145,-215,cs)
);
},
{
closed = 1;
nodes = (
(263,122,o),
(220,171,o),
(220,257,cs),
(220,343,o),
(263,392,o),
(330,393,cs),
(402,394,o),
(433,340,o),
(433,257,cs),
(433,176,o),
(399,122,o),
(332,122,cs)
);
}
);
width = 630;
},
{
associatedMasterId = "65988B1E-DCE2-4AC3-A6FF-994A1050067D";
layerId = "8098D18F-B03B-4428-9176-92E9A67A2D90";
name = "Original Skeleton";
shapes = (
{
attr = {
strokeWidth = 2;
};
closed = 1;
nodes = (
(511,413,o),
(416,509,o),
(305,509,cs),
(198,509,o),
(101,437,o),
(101,258,cs),
(101,72,o),
(189,0,o),
(312,0,cs),
(446,0,o),
(511,115,o),
(511,271,c)
);
},
{
attr = {
strokeWidth = 2;
};
closed = 0;
nodes = (
(102,-150,l),
(102,500,l)
);
}
);
width = 570;
},
{
layerId = "3D52442A-254C-4C79-B742-A98FD72DF947";
shapes = (
{
closed = 1;
nodes = (
(114,-215,o),
(125,-204,o),
(125,-187,cs),
(125,93,l),
(113,85,l),
(138,34,o),
(198,-15,o),
(299,-15,cs),
(434,-15,o),
(505,101,o),
(505,257,cs),
(505,409,o),
(431,530,o),
(291,530,cs),
(206,530,o),
(142,478,o),
(107,412,c),
(125,417,l),
(125,497,ls),
(125,515,o),
(114,525,o),
(97,525,cs),
(80,525,o),
(70,515,o),
(70,497,cs),
(70,-187,ls),
(70,-204,o),
(80,-215,o),
(97,-215,cs)
);
},
{
closed = 1;
nodes = (
(194,37,o),
(125,106,o),
(125,257,cs),
(125,399,o),
(187,476,o),
(282,477,cs),
(391,479,o),
(450,400,o),
(450,257,cs),
(450,116,o),
(388,37,o),
(284,37,cs)
);
}
);
width = 545;
}
);
metricLeft = "=n";
metricRight = o;
unicode = 112;
},
